<?xml version="1.0" encoding="utf-8"?>
<svg xmlns="http://www.w3.org/2000/svg" xmlns:xlink="http://www.w3.org/1999/xlink" width="600" height="400" viewBox="0 0 2400 1600">
<defs>
  <clipPath id="clip340">
    <rect x="0" y="0" width="2400" height="1600"/>
  </clipPath>
</defs>
<path clip-path="url(#clip340)" d="
M0 1600 L2400 1600 L2400 0 L0 0  Z
  " fill="#ffffff" fill-rule="evenodd" fill-opacity="1"/>
<defs>
  <clipPath id="clip341">
    <rect x="480" y="0" width="1681" height="1600"/>
  </clipPath>
</defs>
<path clip-path="url(#clip340)" d="
M392.821 1423.18 L2352.76 1423.18 L2352.76 47.2441 L392.821 47.2441  Z
  " fill="#ffffff" fill-rule="evenodd" fill-opacity="1"/>
<defs>
  <clipPath id="clip342">
    <rect x="392" y="47" width="1961" height="1377"/>
  </clipPath>
</defs>
<polyline clip-path="url(#clip342)" style="stroke:#000000; stroke-linecap:round; stroke-linejoin:round; stroke-width:2; stroke-opacity:0.1; fill:none" points="
  438.999,1423.18 438.999,47.2441 
  "/>
<polyline clip-path="url(#clip342)" style="stroke:#000000; stroke-linecap:round; stroke-linejoin:round; stroke-width:2; stroke-opacity:0.1; fill:none" points="
  903.571,1423.18 903.571,47.2441 
  "/>
<polyline clip-path="url(#clip342)" style="stroke:#000000; stroke-linecap:round; stroke-linejoin:round; stroke-width:2; stroke-opacity:0.1; fill:none" points="
  1368.14,1423.18 1368.14,47.2441 
  "/>
<polyline clip-path="url(#clip342)" style="stroke:#000000; stroke-linecap:round; stroke-linejoin:round; stroke-width:2; stroke-opacity:0.1; fill:none" points="
  1832.71,1423.18 1832.71,47.2441 
  "/>
<polyline clip-path="url(#clip342)" style="stroke:#000000; stroke-linecap:round; stroke-linejoin:round; stroke-width:2; stroke-opacity:0.1; fill:none" points="
  2297.29,1423.18 2297.29,47.2441 
  "/>
<polyline clip-path="url(#clip340)" style="stroke:#000000; stroke-linecap:round; stroke-linejoin:round; stroke-width:4; stroke-opacity:1; fill:none" points="
  392.821,1423.18 2352.76,1423.18 
  "/>
<polyline clip-path="url(#clip340)" style="stroke:#000000; stroke-linecap:round; stroke-linejoin:round; stroke-width:4; stroke-opacity:1; fill:none" points="
  438.999,1423.18 438.999,1404.28 
  "/>
<polyline clip-path="url(#clip340)" style="stroke:#000000; stroke-linecap:round; stroke-linejoin:round; stroke-width:4; stroke-opacity:1; fill:none" points="
  903.571,1423.18 903.571,1404.28 
  "/>
<polyline clip-path="url(#clip340)" style="stroke:#000000; stroke-linecap:round; stroke-linejoin:round; stroke-width:4; stroke-opacity:1; fill:none" points="
  1368.14,1423.18 1368.14,1404.28 
  "/>
<polyline clip-path="url(#clip340)" style="stroke:#000000; stroke-linecap:round; stroke-linejoin:round; stroke-width:4; stroke-opacity:1; fill:none" points="
  1832.71,1423.18 1832.71,1404.28 
  "/>
<polyline clip-path="url(#clip340)" style="stroke:#000000; stroke-linecap:round; stroke-linejoin:round; stroke-width:4; stroke-opacity:1; fill:none" points="
  2297.29,1423.18 2297.29,1404.28 
  "/>
<path clip-path="url(#clip340)" d="M438.999 1454.1 Q435.388 1454.1 433.56 1457.66 Q431.754 1461.2 431.754 1468.33 Q431.754 1475.44 433.56 1479.01 Q435.388 1482.55 438.999 1482.55 Q442.634 1482.55 444.439 1479.01 Q446.268 1475.44 446.268 1468.33 Q446.268 1461.2 444.439 1457.66 Q442.634 1454.1 438.999 1454.1 M438.999 1450.39 Q444.81 1450.39 447.865 1455 Q450.944 1459.58 450.944 1468.33 Q450.944 1477.06 447.865 1481.67 Q444.81 1486.25 438.999 1486.25 Q433.189 1486.25 430.111 1481.67 Q427.055 1477.06 427.055 1468.33 Q427.055 1459.58 430.111 1455 Q433.189 1450.39 438.999 1450.39 Z" fill="#000000" fill-rule="evenodd" fill-opacity="1" /><path clip-path="url(#clip340)" d="M878.27 1451.02 L896.627 1451.02 L896.627 1454.96 L882.553 1454.96 L882.553 1463.43 Q883.571 1463.08 884.59 1462.92 Q885.608 1462.73 886.627 1462.73 Q892.414 1462.73 895.793 1465.9 Q899.173 1469.08 899.173 1474.49 Q899.173 1480.07 895.701 1483.17 Q892.229 1486.25 885.909 1486.25 Q883.733 1486.25 881.465 1485.88 Q879.219 1485.51 876.812 1484.77 L876.812 1480.07 Q878.895 1481.2 881.118 1481.76 Q883.34 1482.32 885.817 1482.32 Q889.821 1482.32 892.159 1480.21 Q894.497 1478.1 894.497 1474.49 Q894.497 1470.88 892.159 1468.77 Q889.821 1466.67 885.817 1466.67 Q883.942 1466.67 882.067 1467.08 Q880.215 1467.5 878.27 1468.38 L878.27 1451.02 Z" fill="#000000" fill-rule="evenodd" fill-opacity="1" /><path clip-path="url(#clip340)" d="M918.386 1454.1 Q914.775 1454.1 912.946 1457.66 Q911.141 1461.2 911.141 1468.33 Q911.141 1475.44 912.946 1479.01 Q914.775 1482.55 918.386 1482.55 Q922.02 1482.55 923.826 1479.01 Q925.654 1475.44 925.654 1468.33 Q925.654 1461.2 923.826 1457.66 Q922.02 1454.1 918.386 1454.1 M918.386 1450.39 Q924.196 1450.39 927.252 1455 Q930.33 1459.58 930.33 1468.33 Q930.33 1477.06 927.252 1481.67 Q924.196 1486.25 918.386 1486.25 Q912.576 1486.25 909.497 1481.67 Q906.441 1477.06 906.441 1468.33 Q906.441 1459.58 909.497 1455 Q912.576 1450.39 918.386 1450.39 Z" fill="#000000" fill-rule="evenodd" fill-opacity="1" /><path clip-path="url(#clip340)" d="M1327.75 1481.64 L1335.39 1481.64 L1335.39 1455.28 L1327.08 1456.95 L1327.08 1452.69 L1335.34 1451.02 L1340.02 1451.02 L1340.02 1481.64 L1347.66 1481.64 L1347.66 1485.58 L1327.75 1485.58 L1327.75 1481.64 Z" fill="#000000" fill-rule="evenodd" fill-opacity="1" /><path clip-path="url(#clip340)" d="M1367.1 1454.1 Q1363.49 1454.1 1361.66 1457.66 Q1359.86 1461.2 1359.86 1468.33 Q1359.86 1475.44 1361.66 1479.01 Q1363.49 1482.55 1367.1 1482.55 Q1370.74 1482.55 1372.54 1479.01 Q1374.37 1475.44 1374.37 1468.33 Q1374.37 1461.2 1372.54 1457.66 Q1370.74 1454.1 1367.1 1454.1 M1367.1 1450.39 Q1372.91 1450.39 1375.97 1455 Q1379.05 1459.58 1379.05 1468.33 Q1379.05 1477.06 1375.97 1481.67 Q1372.91 1486.25 1367.1 1486.25 Q1361.29 1486.25 1358.21 1481.67 Q1355.16 1477.06 1355.16 1468.33 Q1355.16 1459.58 1358.21 1455 Q1361.29 1450.39 1367.1 1450.39 Z" fill="#000000" fill-rule="evenodd" fill-opacity="1" /><path clip-path="url(#clip340)" d="M1397.26 1454.1 Q1393.65 1454.1 1391.82 1457.66 Q1390.02 1461.2 1390.02 1468.33 Q1390.02 1475.44 1391.82 1479.01 Q1393.65 1482.55 1397.26 1482.55 Q1400.9 1482.55 1402.7 1479.01 Q1404.53 1475.44 1404.53 1468.33 Q1404.53 1461.2 1402.7 1457.66 Q1400.9 1454.1 1397.26 1454.1 M1397.26 1450.39 Q1403.07 1450.39 1406.13 1455 Q1409.21 1459.58 1409.21 1468.33 Q1409.21 1477.06 1406.13 1481.67 Q1403.07 1486.25 1397.26 1486.25 Q1391.45 1486.25 1388.37 1481.67 Q1385.32 1477.06 1385.32 1468.33 Q1385.32 1459.58 1388.37 1455 Q1391.45 1450.39 1397.26 1450.39 Z" fill="#000000" fill-rule="evenodd" fill-opacity="1" /><path clip-path="url(#clip340)" d="M1792.32 1481.64 L1799.96 1481.64 L1799.96 1455.28 L1791.65 1456.95 L1791.65 1452.69 L1799.91 1451.02 L1804.59 1451.02 L1804.59 1481.64 L1812.23 1481.64 L1812.23 1485.58 L1792.32 1485.58 L1792.32 1481.64 Z" fill="#000000" fill-rule="evenodd" fill-opacity="1" /><path clip-path="url(#clip340)" d="M1821.72 1451.02 L1840.08 1451.02 L1840.08 1454.96 L1826 1454.96 L1826 1463.43 Q1827.02 1463.08 1828.04 1462.92 Q1829.06 1462.73 1830.08 1462.73 Q1835.86 1462.73 1839.24 1465.9 Q1842.62 1469.08 1842.62 1474.49 Q1842.62 1480.07 1839.15 1483.17 Q1835.68 1486.25 1829.36 1486.25 Q1827.18 1486.25 1824.91 1485.88 Q1822.67 1485.51 1820.26 1484.77 L1820.26 1480.07 Q1822.34 1481.2 1824.57 1481.76 Q1826.79 1482.32 1829.27 1482.32 Q1833.27 1482.32 1835.61 1480.21 Q1837.95 1478.1 1837.95 1474.49 Q1837.95 1470.88 1835.61 1468.77 Q1833.27 1466.67 1829.27 1466.67 Q1827.39 1466.67 1825.52 1467.08 Q1823.66 1467.5 1821.72 1468.38 L1821.72 1451.02 Z" fill="#000000" fill-rule="evenodd" fill-opacity="1" /><path clip-path="url(#clip340)" d="M1861.83 1454.1 Q1858.22 1454.1 1856.39 1457.66 Q1854.59 1461.2 1854.59 1468.33 Q1854.59 1475.44 1856.39 1479.01 Q1858.22 1482.55 1861.83 1482.55 Q1865.47 1482.55 1867.27 1479.01 Q1869.1 1475.44 1869.1 1468.33 Q1869.1 1461.2 1867.27 1457.66 Q1865.47 1454.1 1861.83 1454.1 M1861.83 1450.39 Q1867.64 1450.39 1870.7 1455 Q1873.78 1459.58 1873.78 1468.33 Q1873.78 1477.06 1870.7 1481.67 Q1867.64 1486.25 1861.83 1486.25 Q1856.02 1486.25 1852.95 1481.67 Q1849.89 1477.06 1849.89 1468.33 Q1849.89 1459.58 1852.95 1455 Q1856.02 1450.39 1861.83 1450.39 Z" fill="#000000" fill-rule="evenodd" fill-opacity="1" /><path clip-path="url(#clip340)" d="M2260.98 1481.64 L2277.3 1481.64 L2277.3 1485.58 L2255.35 1485.58 L2255.35 1481.64 Q2258.02 1478.89 2262.6 1474.26 Q2267.21 1469.61 2268.39 1468.27 Q2270.63 1465.74 2271.51 1464.01 Q2272.41 1462.25 2272.41 1460.56 Q2272.41 1457.8 2270.47 1456.07 Q2268.55 1454.33 2265.45 1454.33 Q2263.25 1454.33 2260.79 1455.09 Q2258.36 1455.86 2255.58 1457.41 L2255.58 1452.69 Q2258.41 1451.55 2260.86 1450.97 Q2263.32 1450.39 2265.35 1450.39 Q2270.72 1450.39 2273.92 1453.08 Q2277.11 1455.77 2277.11 1460.26 Q2277.11 1462.39 2276.3 1464.31 Q2275.52 1466.2 2273.41 1468.8 Q2272.83 1469.47 2269.73 1472.69 Q2266.63 1475.88 2260.98 1481.64 Z" fill="#000000" fill-rule="evenodd" fill-opacity="1" /><path clip-path="url(#clip340)" d="M2297.11 1454.1 Q2293.5 1454.1 2291.67 1457.66 Q2289.87 1461.2 2289.87 1468.33 Q2289.87 1475.44 2291.67 1479.01 Q2293.5 1482.55 2297.11 1482.55 Q2300.75 1482.55 2302.55 1479.01 Q2304.38 1475.44 2304.38 1468.33 Q2304.38 1461.2 2302.55 1457.66 Q2300.75 1454.1 2297.11 1454.1 M2297.11 1450.39 Q2302.92 1450.39 2305.98 1455 Q2309.06 1459.58 2309.06 1468.33 Q2309.06 1477.06 2305.98 1481.67 Q2302.92 1486.25 2297.11 1486.25 Q2291.3 1486.25 2288.22 1481.67 Q2285.17 1477.06 2285.17 1468.33 Q2285.17 1459.58 2288.22 1455 Q2291.3 1450.39 2297.11 1450.39 Z" fill="#000000" fill-rule="evenodd" fill-opacity="1" /><path clip-path="url(#clip340)" d="M2327.27 1454.1 Q2323.66 1454.1 2321.83 1457.66 Q2320.03 1461.2 2320.03 1468.33 Q2320.03 1475.44 2321.83 1479.01 Q2323.66 1482.55 2327.27 1482.55 Q2330.91 1482.55 2332.71 1479.01 Q2334.54 1475.44 2334.54 1468.33 Q2334.54 1461.2 2332.71 1457.66 Q2330.91 1454.1 2327.27 1454.1 M2327.27 1450.39 Q2333.08 1450.39 2336.14 1455 Q2339.22 1459.58 2339.22 1468.33 Q2339.22 1477.06 2336.14 1481.67 Q2333.08 1486.25 2327.27 1486.25 Q2321.46 1486.25 2318.39 1481.67 Q2315.33 1477.06 2315.33 1468.33 Q2315.33 1459.58 2318.39 1455 Q2321.46 1450.39 2327.27 1450.39 Z" fill="#000000" fill-rule="evenodd" fill-opacity="1" /><path clip-path="url(#clip340)" d="M1387.72 1546.53 L1387.72 1568.04 L1381.86 1568.04 L1381.86 1546.72 Q1381.86 1541.66 1379.89 1539.14 Q1377.91 1536.63 1373.97 1536.63 Q1369.22 1536.63 1366.49 1539.65 Q1363.75 1542.68 1363.75 1547.9 L1363.75 1568.04 L1357.86 1568.04 L1357.86 1532.4 L1363.75 1532.4 L1363.75 1537.93 Q1365.85 1534.72 1368.68 1533.13 Q1371.55 1531.54 1375.27 1531.54 Q1381.41 1531.54 1384.57 1535.36 Q1387.72 1539.14 1387.72 1546.53 Z" fill="#000000" fill-rule="evenodd" fill-opacity="1" /><polyline clip-path="url(#clip342)" style="stroke:#000000; stroke-linecap:round; stroke-linejoin:round; stroke-width:2; stroke-opacity:0.1; fill:none" points="
  392.821,1384.24 2352.76,1384.24 
  "/>
<polyline clip-path="url(#clip342)" style="stroke:#000000; stroke-linecap:round; stroke-linejoin:round; stroke-width:2; stroke-opacity:0.1; fill:none" points="
  392.821,1038.21 2352.76,1038.21 
  "/>
<polyline clip-path="url(#clip342)" style="stroke:#000000; stroke-linecap:round; stroke-linejoin:round; stroke-width:2; stroke-opacity:0.1; fill:none" points="
  392.821,692.188 2352.76,692.188 
  "/>
<polyline clip-path="url(#clip342)" style="stroke:#000000; stroke-linecap:round; stroke-linejoin:round; stroke-width:2; stroke-opacity:0.1; fill:none" points="
  392.821,346.163 2352.76,346.163 
  "/>
<polyline clip-path="url(#clip340)" style="stroke:#000000; stroke-linecap:round; stroke-linejoin:round; stroke-width:4; stroke-opacity:1; fill:none" points="
  392.821,1423.18 392.821,47.2441 
  "/>
<polyline clip-path="url(#clip340)" style="stroke:#000000; stroke-linecap:round; stroke-linejoin:round; stroke-width:4; stroke-opacity:1; fill:none" points="
  392.821,1384.24 411.719,1384.24 
  "/>
<polyline clip-path="url(#clip340)" style="stroke:#000000; stroke-linecap:round; stroke-linejoin:round; stroke-width:4; stroke-opacity:1; fill:none" points="
  392.821,1038.21 411.719,1038.21 
  "/>
<polyline clip-path="url(#clip340)" style="stroke:#000000; stroke-linecap:round; stroke-linejoin:round; stroke-width:4; stroke-opacity:1; fill:none" points="
  392.821,692.188 411.719,692.188 
  "/>
<polyline clip-path="url(#clip340)" style="stroke:#000000; stroke-linecap:round; stroke-linejoin:round; stroke-width:4; stroke-opacity:1; fill:none" points="
  392.821,346.163 411.719,346.163 
  "/>
<path clip-path="url(#clip340)" d="M344.877 1370.04 Q341.266 1370.04 339.437 1373.6 Q337.631 1377.14 337.631 1384.27 Q337.631 1391.38 339.437 1394.94 Q341.266 1398.49 344.877 1398.49 Q348.511 1398.49 350.316 1394.94 Q352.145 1391.38 352.145 1384.27 Q352.145 1377.14 350.316 1373.6 Q348.511 1370.04 344.877 1370.04 M344.877 1366.33 Q350.687 1366.33 353.742 1370.94 Q356.821 1375.52 356.821 1384.27 Q356.821 1393 353.742 1397.61 Q350.687 1402.19 344.877 1402.19 Q339.067 1402.19 335.988 1397.61 Q332.932 1393 332.932 1384.27 Q332.932 1375.52 335.988 1370.94 Q339.067 1366.33 344.877 1366.33 Z" fill="#000000" fill-rule="evenodd" fill-opacity="1" /><path clip-path="url(#clip340)" d="M115.718 1027.38 L134.075 1027.38 L134.075 1031.32 L120.001 1031.32 L120.001 1039.79 Q121.019 1039.44 122.038 1039.28 Q123.056 1039.09 124.075 1039.09 Q129.862 1039.09 133.242 1042.26 Q136.621 1045.44 136.621 1050.85 Q136.621 1056.43 133.149 1059.53 Q129.677 1062.61 123.357 1062.61 Q121.181 1062.61 118.913 1062.24 Q116.668 1061.87 114.26 1061.13 L114.26 1056.43 Q116.343 1057.57 118.566 1058.12 Q120.788 1058.68 123.265 1058.68 Q127.269 1058.68 129.607 1056.57 Q131.945 1054.46 131.945 1050.85 Q131.945 1047.24 129.607 1045.14 Q127.269 1043.03 123.265 1043.03 Q121.39 1043.03 119.515 1043.45 Q117.663 1043.86 115.718 1044.74 L115.718 1027.38 Z" fill="#000000" fill-rule="evenodd" fill-opacity="1" /><path clip-path="url(#clip340)" d="M145.834 1056.06 L150.718 1056.06 L150.718 1061.94 L145.834 1061.94 L145.834 1056.06 Z" fill="#000000" fill-rule="evenodd" fill-opacity="1" /><path clip-path="url(#clip340)" d="M170.903 1030.46 Q167.292 1030.46 165.464 1034.02 Q163.658 1037.57 163.658 1044.7 Q163.658 1051.8 165.464 1055.37 Q167.292 1058.91 170.903 1058.91 Q174.538 1058.91 176.343 1055.37 Q178.172 1051.8 178.172 1044.7 Q178.172 1037.57 176.343 1034.02 Q174.538 1030.46 170.903 1030.46 M170.903 1026.76 Q176.714 1026.76 179.769 1031.36 Q182.848 1035.95 182.848 1044.7 Q182.848 1053.42 179.769 1058.03 Q176.714 1062.61 170.903 1062.61 Q165.093 1062.61 162.015 1058.03 Q158.959 1053.42 158.959 1044.7 Q158.959 1035.95 162.015 1031.36 Q165.093 1026.76 170.903 1026.76 Z" fill="#000000" fill-rule="evenodd" fill-opacity="1" /><path clip-path="url(#clip340)" d="M201.065 1030.46 Q197.454 1030.46 195.625 1034.02 Q193.82 1037.57 193.82 1044.7 Q193.82 1051.8 195.625 1055.37 Q197.454 1058.91 201.065 1058.91 Q204.699 1058.91 206.505 1055.37 Q208.334 1051.8 208.334 1044.7 Q208.334 1037.57 206.505 1034.02 Q204.699 1030.46 201.065 1030.46 M201.065 1026.76 Q206.875 1026.76 209.931 1031.36 Q213.01 1035.95 213.01 1044.7 Q213.01 1053.42 209.931 1058.03 Q206.875 1062.61 201.065 1062.61 Q195.255 1062.61 192.176 1058.03 Q189.121 1053.42 189.121 1044.7 Q189.121 1035.95 192.176 1031.36 Q195.255 1026.76 201.065 1026.76 Z" fill="#000000" fill-rule="evenodd" fill-opacity="1" /><path clip-path="url(#clip340)" d="M249.398 1036.48 L238.82 1047.1 L249.398 1057.68 L246.644 1060.48 L236.019 1049.86 L225.394 1060.48 L222.662 1057.68 L233.218 1047.1 L222.662 1036.48 L225.394 1033.68 L236.019 1044.3 L246.644 1033.68 L249.398 1036.48 Z" fill="#000000" fill-rule="evenodd" fill-opacity="1" /><path clip-path="url(#clip340)" d="M261.759 1058.01 L269.398 1058.01 L269.398 1031.64 L261.088 1033.31 L261.088 1029.05 L269.352 1027.38 L274.028 1027.38 L274.028 1058.01 L281.667 1058.01 L281.667 1061.94 L261.759 1061.94 L261.759 1058.01 Z" fill="#000000" fill-rule="evenodd" fill-opacity="1" /><path clip-path="url(#clip340)" d="M301.111 1030.46 Q297.5 1030.46 295.671 1034.02 Q293.866 1037.57 293.866 1044.7 Q293.866 1051.8 295.671 1055.37 Q297.5 1058.91 301.111 1058.91 Q304.745 1058.91 306.551 1055.37 Q308.379 1051.8 308.379 1044.7 Q308.379 1037.57 306.551 1034.02 Q304.745 1030.46 301.111 1030.46 M301.111 1026.76 Q306.921 1026.76 309.977 1031.36 Q313.055 1035.95 313.055 1044.7 Q313.055 1053.42 309.977 1058.03 Q306.921 1062.61 301.111 1062.61 Q295.301 1062.61 292.222 1058.03 Q289.167 1053.42 289.167 1044.7 Q289.167 1035.95 292.222 1031.36 Q295.301 1026.76 301.111 1026.76 Z" fill="#000000" fill-rule="evenodd" fill-opacity="1" /><path clip-path="url(#clip340)" d="M317.626 1031.33 L330.885 1031.33 L330.885 1034.53 L313.055 1034.53 L313.055 1031.33 Q315.218 1029.09 318.942 1025.33 Q322.685 1021.55 323.644 1020.46 Q325.469 1018.41 326.183 1017 Q326.917 1015.57 326.917 1014.2 Q326.917 1011.96 325.337 1010.55 Q323.776 1009.14 321.256 1009.14 Q319.469 1009.14 317.475 1009.76 Q315.5 1010.38 313.243 1011.64 L313.243 1007.8 Q315.538 1006.88 317.532 1006.41 Q319.525 1005.94 321.18 1005.94 Q325.544 1005.94 328.139 1008.12 Q330.735 1010.31 330.735 1013.95 Q330.735 1015.68 330.076 1017.25 Q329.437 1018.79 327.725 1020.89 Q327.255 1021.44 324.735 1024.05 Q322.215 1026.65 317.626 1031.33 Z" fill="#000000" fill-rule="evenodd" fill-opacity="1" /><path clip-path="url(#clip340)" d="M347.455 1018.98 Q344.897 1018.98 343.392 1020.73 Q341.907 1022.47 341.907 1025.52 Q341.907 1028.55 343.392 1030.32 Q344.897 1032.07 347.455 1032.07 Q350.013 1032.07 351.498 1030.32 Q353.003 1028.55 353.003 1025.52 Q353.003 1022.47 351.498 1020.73 Q350.013 1018.98 347.455 1018.98 M354.997 1007.07 L354.997 1010.53 Q353.567 1009.85 352.1 1009.5 Q350.652 1009.14 349.223 1009.14 Q345.461 1009.14 343.468 1011.68 Q341.493 1014.22 341.211 1019.35 Q342.32 1017.72 343.994 1016.85 Q345.668 1015.97 347.68 1015.97 Q351.912 1015.97 354.357 1018.54 Q356.821 1021.1 356.821 1025.52 Q356.821 1029.85 354.263 1032.46 Q351.705 1035.08 347.455 1035.08 Q342.584 1035.08 340.007 1031.35 Q337.43 1027.61 337.43 1020.52 Q337.43 1013.86 340.59 1009.91 Q343.75 1005.94 349.072 1005.94 Q350.502 1005.94 351.95 1006.22 Q353.417 1006.51 354.997 1007.07 Z" fill="#000000" fill-rule="evenodd" fill-opacity="1" /><path clip-path="url(#clip340)" d="M117.348 711.98 L124.986 711.98 L124.986 685.615 L116.676 687.281 L116.676 683.022 L124.94 681.356 L129.616 681.356 L129.616 711.98 L137.255 711.98 L137.255 715.916 L117.348 715.916 L117.348 711.98 Z" fill="#000000" fill-rule="evenodd" fill-opacity="1" /><path clip-path="url(#clip340)" d="M146.699 710.036 L151.583 710.036 L151.583 715.916 L146.699 715.916 L146.699 710.036 Z" fill="#000000" fill-rule="evenodd" fill-opacity="1" /><path clip-path="url(#clip340)" d="M171.769 684.434 Q168.157 684.434 166.329 687.999 Q164.523 691.541 164.523 698.67 Q164.523 705.777 166.329 709.342 Q168.157 712.883 171.769 712.883 Q175.403 712.883 177.208 709.342 Q179.037 705.777 179.037 698.67 Q179.037 691.541 177.208 687.999 Q175.403 684.434 171.769 684.434 M171.769 680.731 Q177.579 680.731 180.634 685.337 Q183.713 689.92 183.713 698.67 Q183.713 707.397 180.634 712.004 Q177.579 716.587 171.769 716.587 Q165.958 716.587 162.88 712.004 Q159.824 707.397 159.824 698.67 Q159.824 689.92 162.88 685.337 Q165.958 680.731 171.769 680.731 Z" fill="#000000" fill-rule="evenodd" fill-opacity="1" /><path clip-path="url(#clip340)" d="M201.93 684.434 Q198.319 684.434 196.491 687.999 Q194.685 691.541 194.685 698.67 Q194.685 705.777 196.491 709.342 Q198.319 712.883 201.93 712.883 Q205.565 712.883 207.37 709.342 Q209.199 705.777 209.199 698.67 Q209.199 691.541 207.37 687.999 Q205.565 684.434 201.93 684.434 M201.93 680.731 Q207.741 680.731 210.796 685.337 Q213.875 689.92 213.875 698.67 Q213.875 707.397 210.796 712.004 Q207.741 716.587 201.93 716.587 Q196.12 716.587 193.042 712.004 Q189.986 707.397 189.986 698.67 Q189.986 689.92 193.042 685.337 Q196.12 680.731 201.93 680.731 Z" fill="#000000" fill-rule="evenodd" fill-opacity="1" /><path clip-path="url(#clip340)" d="M250.263 690.453 L239.685 701.078 L250.263 711.656 L247.509 714.457 L236.884 703.832 L226.259 714.457 L223.528 711.656 L234.083 701.078 L223.528 690.453 L226.259 687.652 L236.884 698.277 L247.509 687.652 L250.263 690.453 Z" fill="#000000" fill-rule="evenodd" fill-opacity="1" /><path clip-path="url(#clip340)" d="M262.625 711.98 L270.263 711.98 L270.263 685.615 L261.953 687.281 L261.953 683.022 L270.217 681.356 L274.893 681.356 L274.893 711.98 L282.532 711.98 L282.532 715.916 L262.625 715.916 L262.625 711.98 Z" fill="#000000" fill-rule="evenodd" fill-opacity="1" /><path clip-path="url(#clip340)" d="M301.976 684.434 Q298.365 684.434 296.536 687.999 Q294.731 691.541 294.731 698.67 Q294.731 705.777 296.536 709.342 Q298.365 712.883 301.976 712.883 Q305.61 712.883 307.416 709.342 Q309.245 705.777 309.245 698.67 Q309.245 691.541 307.416 687.999 Q305.61 684.434 301.976 684.434 M301.976 680.731 Q307.786 680.731 310.842 685.337 Q313.921 689.92 313.921 698.67 Q313.921 707.397 310.842 712.004 Q307.786 716.587 301.976 716.587 Q296.166 716.587 293.087 712.004 Q290.032 707.397 290.032 698.67 Q290.032 689.92 293.087 685.337 Q296.166 680.731 301.976 680.731 Z" fill="#000000" fill-rule="evenodd" fill-opacity="1" /><path clip-path="url(#clip340)" d="M318.491 685.308 L331.75 685.308 L331.75 688.505 L313.921 688.505 L313.921 685.308 Q316.083 683.07 319.807 679.308 Q323.55 675.528 324.509 674.437 Q326.334 672.387 327.048 670.976 Q327.782 669.547 327.782 668.174 Q327.782 665.936 326.202 664.525 Q324.641 663.115 322.121 663.115 Q320.334 663.115 318.34 663.735 Q316.366 664.356 314.109 665.616 L314.109 661.779 Q316.403 660.858 318.397 660.388 Q320.39 659.917 322.046 659.917 Q326.409 659.917 329.004 662.099 Q331.6 664.281 331.6 667.929 Q331.6 669.66 330.942 671.221 Q330.302 672.763 328.591 674.87 Q328.12 675.415 325.6 678.029 Q323.08 680.625 318.491 685.308 Z" fill="#000000" fill-rule="evenodd" fill-opacity="1" /><path clip-path="url(#clip340)" d="M338.766 660.425 L356.821 660.425 L356.821 662.043 L346.627 688.505 L342.659 688.505 L352.251 663.623 L338.766 663.623 L338.766 660.425 Z" fill="#000000" fill-rule="evenodd" fill-opacity="1" /><path clip-path="url(#clip340)" d="M117.348 365.955 L124.986 365.955 L124.986 339.59 L116.676 341.256 L116.676 336.997 L124.94 335.33 L129.616 335.33 L129.616 365.955 L137.255 365.955 L137.255 369.89 L117.348 369.89 L117.348 365.955 Z" fill="#000000" fill-rule="evenodd" fill-opacity="1" /><path clip-path="url(#clip340)" d="M146.699 364.011 L151.583 364.011 L151.583 369.89 L146.699 369.89 L146.699 364.011 Z" fill="#000000" fill-rule="evenodd" fill-opacity="1" /><path clip-path="url(#clip340)" d="M161.815 335.33 L180.171 335.33 L180.171 339.266 L166.097 339.266 L166.097 347.738 Q167.116 347.391 168.134 347.229 Q169.153 347.043 170.171 347.043 Q175.958 347.043 179.338 350.215 Q182.718 353.386 182.718 358.803 Q182.718 364.381 179.245 367.483 Q175.773 370.562 169.454 370.562 Q167.278 370.562 165.009 370.191 Q162.764 369.821 160.357 369.08 L160.357 364.381 Q162.44 365.515 164.662 366.071 Q166.884 366.627 169.361 366.627 Q173.366 366.627 175.704 364.52 Q178.042 362.414 178.042 358.803 Q178.042 355.191 175.704 353.085 Q173.366 350.979 169.361 350.979 Q167.486 350.979 165.611 351.395 Q163.759 351.812 161.815 352.691 L161.815 335.33 Z" fill="#000000" fill-rule="evenodd" fill-opacity="1" /><path clip-path="url(#clip340)" d="M201.93 338.409 Q198.319 338.409 196.491 341.974 Q194.685 345.516 194.685 352.645 Q194.685 359.752 196.491 363.316 Q198.319 366.858 201.93 366.858 Q205.565 366.858 207.37 363.316 Q209.199 359.752 209.199 352.645 Q209.199 345.516 207.37 341.974 Q205.565 338.409 201.93 338.409 M201.93 334.705 Q207.741 334.705 210.796 339.312 Q213.875 343.895 213.875 352.645 Q213.875 361.372 210.796 365.978 Q207.741 370.562 201.93 370.562 Q196.12 370.562 193.042 365.978 Q189.986 361.372 189.986 352.645 Q189.986 343.895 193.042 339.312 Q196.12 334.705 201.93 334.705 Z" fill="#000000" fill-rule="evenodd" fill-opacity="1" /><path clip-path="url(#clip340)" d="M250.263 344.428 L239.685 355.053 L250.263 365.631 L247.509 368.432 L236.884 357.807 L226.259 368.432 L223.528 365.631 L234.083 355.053 L223.528 344.428 L226.259 341.627 L236.884 352.252 L247.509 341.627 L250.263 344.428 Z" fill="#000000" fill-rule="evenodd" fill-opacity="1" /><path clip-path="url(#clip340)" d="M262.625 365.955 L270.263 365.955 L270.263 339.59 L261.953 341.256 L261.953 336.997 L270.217 335.33 L274.893 335.33 L274.893 365.955 L282.532 365.955 L282.532 369.89 L262.625 369.89 L262.625 365.955 Z" fill="#000000" fill-rule="evenodd" fill-opacity="1" /><path clip-path="url(#clip340)" d="M301.976 338.409 Q298.365 338.409 296.536 341.974 Q294.731 345.516 294.731 352.645 Q294.731 359.752 296.536 363.316 Q298.365 366.858 301.976 366.858 Q305.61 366.858 307.416 363.316 Q309.245 359.752 309.245 352.645 Q309.245 345.516 307.416 341.974 Q305.61 338.409 301.976 338.409 M301.976 334.705 Q307.786 334.705 310.842 339.312 Q313.921 343.895 313.921 352.645 Q313.921 361.372 310.842 365.978 Q307.786 370.562 301.976 370.562 Q296.166 370.562 293.087 365.978 Q290.032 361.372 290.032 352.645 Q290.032 343.895 293.087 339.312 Q296.166 334.705 301.976 334.705 Z" fill="#000000" fill-rule="evenodd" fill-opacity="1" /><path clip-path="url(#clip340)" d="M318.491 339.283 L331.75 339.283 L331.75 342.48 L313.921 342.48 L313.921 339.283 Q316.083 337.045 319.807 333.283 Q323.55 329.503 324.509 328.412 Q326.334 326.362 327.048 324.951 Q327.782 323.522 327.782 322.149 Q327.782 319.911 326.202 318.5 Q324.641 317.09 322.121 317.09 Q320.334 317.09 318.34 317.71 Q316.366 318.331 314.109 319.591 L314.109 315.754 Q316.403 314.833 318.397 314.362 Q320.39 313.892 322.046 313.892 Q326.409 313.892 329.004 316.074 Q331.6 318.256 331.6 321.904 Q331.6 323.635 330.942 325.196 Q330.302 326.738 328.591 328.844 Q328.12 329.39 325.6 332.004 Q323.08 334.6 318.491 339.283 Z" fill="#000000" fill-rule="evenodd" fill-opacity="1" /><path clip-path="url(#clip340)" d="M338.766 314.4 L356.821 314.4 L356.821 316.018 L346.627 342.48 L342.659 342.48 L352.251 317.597 L338.766 317.597 L338.766 314.4 Z" fill="#000000" fill-rule="evenodd" fill-opacity="1" /><path clip-path="url(#clip340)" d="M46.0847 1027.68 Q46.0847 1034.78 47.7079 1037.52 Q49.3312 1040.26 53.2461 1040.26 Q56.3653 1040.26 58.2114 1038.22 Q60.0256 1036.15 60.0256 1032.62 Q60.0256 1027.75 56.5881 1024.82 Q53.1188 1021.86 47.3897 1021.86 L46.0847 1021.86 L46.0847 1027.68 M43.6657 1016 L64.0042 1016 L64.0042 1021.86 L58.5933 1021.86 Q61.8398 1023.86 63.3994 1026.86 Q64.9272 1029.85 64.9272 1034.18 Q64.9272 1039.65 61.8716 1042.9 Q58.7843 1046.11 53.6281 1046.11 Q47.6125 1046.11 44.5569 1042.1 Q41.5014 1038.06 41.5014 1030.07 L41.5014 1021.86 L40.9285 1021.86 Q36.8862 1021.86 34.6901 1024.53 Q32.4621 1027.18 32.4621 1031.98 Q32.4621 1035.04 33.1941 1037.93 Q33.9262 1040.83 35.3903 1043.5 L29.9795 1043.5 Q28.7381 1040.29 28.1334 1037.26 Q27.4968 1034.24 27.4968 1031.38 Q27.4968 1023.64 31.5072 1019.82 Q35.5176 1016 43.6657 1016 Z" fill="#000000" fill-rule="evenodd" fill-opacity="1" /><path clip-path="url(#clip340)" d="M46.212 978.35 Q39.7508 978.35 36.0905 981.024 Q32.3984 983.665 32.3984 988.312 Q32.3984 992.959 36.0905 995.633 Q39.7508 998.275 46.212 998.275 Q52.6732 998.275 56.3653 995.633 Q60.0256 992.959 60.0256 988.312 Q60.0256 983.665 56.3653 981.024 Q52.6732 978.35 46.212 978.35 M33.7671 998.275 Q30.5842 996.429 29.0564 993.628 Q27.4968 990.795 27.4968 986.88 Q27.4968 980.387 32.6531 976.345 Q37.8093 972.271 46.212 972.271 Q54.6147 972.271 59.771 976.345 Q64.9272 980.387 64.9272 986.88 Q64.9272 990.795 63.3994 993.628 Q61.8398 996.429 58.657 998.275 L64.0042 998.275 L64.0042 1004.16 L14.479 1004.16 L14.479 998.275 L33.7671 998.275 Z" fill="#000000" fill-rule="evenodd" fill-opacity="1" /><path clip-path="url(#clip340)" d="M29.4065 939.838 L34.9447 939.838 Q33.6716 942.32 33.035 944.994 Q32.3984 947.667 32.3984 950.532 Q32.3984 954.893 33.7352 957.089 Q35.072 959.253 37.7456 959.253 Q39.7826 959.253 40.9603 957.693 Q42.1061 956.134 43.1565 951.423 L43.6021 949.418 Q44.9389 943.18 47.3897 940.57 Q49.8086 937.928 54.1691 937.928 Q59.1344 937.928 62.0308 941.875 Q64.9272 945.79 64.9272 952.665 Q64.9272 955.529 64.3543 958.648 Q63.8132 961.736 62.6992 965.173 L56.6518 965.173 Q58.3387 961.927 59.198 958.776 Q60.0256 955.625 60.0256 952.537 Q60.0256 948.399 58.6251 946.171 Q57.1929 943.943 54.6147 943.943 Q52.2276 943.943 50.9545 945.567 Q49.6813 947.158 48.5037 952.601 L48.0262 954.638 Q46.8804 960.081 44.5251 962.5 Q42.138 964.918 38.0002 964.918 Q32.9713 964.918 30.2341 961.354 Q27.4968 957.789 27.4968 951.232 Q27.4968 947.986 27.9743 945.121 Q28.4517 942.257 29.4065 939.838 Z" fill="#000000" fill-rule="evenodd" fill-opacity="1" /><path clip-path="url(#clip340)" d="M32.4621 914.789 Q32.4621 919.499 36.1542 922.236 Q39.8145 924.974 46.212 924.974 Q52.6095 924.974 56.3017 922.268 Q59.9619 919.531 59.9619 914.789 Q59.9619 910.11 56.2698 907.373 Q52.5777 904.635 46.212 904.635 Q39.8781 904.635 36.186 907.373 Q32.4621 910.11 32.4621 914.789 M27.4968 914.789 Q27.4968 907.15 32.4621 902.789 Q37.4273 898.429 46.212 898.429 Q54.9649 898.429 59.9619 902.789 Q64.9272 907.15 64.9272 914.789 Q64.9272 922.459 59.9619 926.82 Q54.9649 931.148 46.212 931.148 Q37.4273 931.148 32.4621 926.82 Q27.4968 922.459 27.4968 914.789 Z" fill="#000000" fill-rule="evenodd" fill-opacity="1" /><path clip-path="url(#clip340)" d="M14.479 888.721 L14.479 882.865 L64.0042 882.865 L64.0042 888.721 L14.479 888.721 Z" fill="#000000" fill-rule="evenodd" fill-opacity="1" /><path clip-path="url(#clip340)" d="M49.9359 871.215 L28.3562 871.215 L28.3562 865.359 L49.7131 865.359 Q54.7739 865.359 57.3202 863.385 Q59.8346 861.412 59.8346 857.465 Q59.8346 852.723 56.8109 849.986 Q53.7872 847.217 48.5673 847.217 L28.3562 847.217 L28.3562 841.36 L64.0042 841.36 L64.0042 847.217 L58.5296 847.217 Q61.7762 849.349 63.3676 852.182 Q64.9272 854.983 64.9272 858.707 Q64.9272 864.85 61.1078 868.032 Q57.2883 871.215 49.9359 871.215 M27.4968 856.479 L27.4968 856.479 Z" fill="#000000" fill-rule="evenodd" fill-opacity="1" /><path clip-path="url(#clip340)" d="M18.2347 823.504 L28.3562 823.504 L28.3562 811.441 L32.9077 811.441 L32.9077 823.504 L52.2594 823.504 Q56.6199 823.504 57.8613 822.327 Q59.1026 821.117 59.1026 817.457 L59.1026 811.441 L64.0042 811.441 L64.0042 817.457 Q64.0042 824.236 61.4897 826.814 Q58.9434 829.393 52.2594 829.393 L32.9077 829.393 L32.9077 833.689 L28.3562 833.689 L28.3562 829.393 L18.2347 829.393 L18.2347 823.504 Z" fill="#000000" fill-rule="evenodd" fill-opacity="1" /><path clip-path="url(#clip340)" d="M44.7161 773.247 L47.5806 773.247 L47.5806 800.174 Q53.6281 799.792 56.8109 796.546 Q59.9619 793.267 59.9619 787.443 Q59.9619 784.069 59.1344 780.918 Q58.3069 777.735 56.6518 774.616 L62.1899 774.616 Q63.5267 777.767 64.227 781.077 Q64.9272 784.387 64.9272 787.793 Q64.9272 796.323 59.9619 801.32 Q54.9967 806.285 46.5303 806.285 Q37.7774 806.285 32.6531 801.574 Q27.4968 796.832 27.4968 788.811 Q27.4968 781.618 32.1438 777.448 Q36.7589 773.247 44.7161 773.247 M42.9973 779.104 Q38.1912 779.167 35.3266 781.809 Q32.4621 784.419 32.4621 788.748 Q32.4621 793.649 35.2312 796.609 Q38.0002 799.537 43.0292 799.983 L42.9973 779.104 Z" fill="#000000" fill-rule="evenodd" fill-opacity="1" /><path clip-path="url(#clip340)" d="M33.7671 719.457 L14.479 719.457 L14.479 713.6 L64.0042 713.6 L64.0042 719.457 L58.657 719.457 Q61.8398 721.303 63.3994 724.136 Q64.9272 726.937 64.9272 730.883 Q64.9272 737.344 59.771 741.419 Q54.6147 745.461 46.212 745.461 Q37.8093 745.461 32.6531 741.419 Q27.4968 737.344 27.4968 730.883 Q27.4968 726.937 29.0564 724.136 Q30.5842 721.303 33.7671 719.457 M46.212 739.413 Q52.6732 739.413 56.3653 736.772 Q60.0256 734.098 60.0256 729.451 Q60.0256 724.804 56.3653 722.13 Q52.6732 719.457 46.212 719.457 Q39.7508 719.457 36.0905 722.13 Q32.3984 724.804 32.3984 729.451 Q32.3984 734.098 36.0905 736.772 Q39.7508 739.413 46.212 739.413 Z" fill="#000000" fill-rule="evenodd" fill-opacity="1" /><path clip-path="url(#clip340)" d="M28.3562 701.537 L28.3562 695.681 L64.0042 695.681 L64.0042 701.537 L28.3562 701.537 M14.479 701.537 L14.479 695.681 L21.895 695.681 L21.895 701.537 L14.479 701.537 Z" fill="#000000" fill-rule="evenodd" fill-opacity="1" /><path clip-path="url(#clip340)" d="M14.479 665.38 L19.3487 665.38 L19.3487 670.982 Q19.3487 674.133 20.6219 675.374 Q21.895 676.584 25.2052 676.584 L28.3562 676.584 L28.3562 666.94 L32.9077 666.94 L32.9077 676.584 L64.0042 676.584 L64.0042 682.472 L32.9077 682.472 L32.9077 688.074 L28.3562 688.074 L28.3562 682.472 L25.8736 682.472 Q19.9216 682.472 17.2162 679.703 Q14.479 676.934 14.479 670.918 L14.479 665.38 Z" fill="#000000" fill-rule="evenodd" fill-opacity="1" /><path clip-path="url(#clip340)" d="M14.479 642.432 L19.3487 642.432 L19.3487 648.034 Q19.3487 651.185 20.6219 652.426 Q21.895 653.635 25.2052 653.635 L28.3562 653.635 L28.3562 643.991 L32.9077 643.991 L32.9077 653.635 L64.0042 653.635 L64.0042 659.524 L32.9077 659.524 L32.9077 665.126 L28.3562 665.126 L28.3562 659.524 L25.8736 659.524 Q19.9216 659.524 17.2162 656.755 Q14.479 653.986 14.479 647.97 L14.479 642.432 Z" fill="#000000" fill-rule="evenodd" fill-opacity="1" /><path clip-path="url(#clip340)" d="M44.7161 607.038 L47.5806 607.038 L47.5806 633.965 Q53.6281 633.583 56.8109 630.337 Q59.9619 627.059 59.9619 621.234 Q59.9619 617.86 59.1344 614.709 Q58.3069 611.526 56.6518 608.407 L62.1899 608.407 Q63.5267 611.558 64.227 614.868 Q64.9272 618.178 64.9272 621.584 Q64.9272 630.114 59.9619 635.111 Q54.9967 640.076 46.5303 640.076 Q37.7774 640.076 32.6531 635.366 Q27.4968 630.623 27.4968 622.603 Q27.4968 615.409 32.1438 611.24 Q36.7589 607.038 44.7161 607.038 M42.9973 612.895 Q38.1912 612.959 35.3266 615.6 Q32.4621 618.21 32.4621 622.539 Q32.4621 627.441 35.2312 630.401 Q38.0002 633.329 43.0292 633.774 L42.9973 612.895 Z" fill="#000000" fill-rule="evenodd" fill-opacity="1" /><path clip-path="url(#clip340)" d="M33.8307 576.77 Q33.2578 577.756 33.0032 578.934 Q32.7167 580.08 32.7167 581.48 Q32.7167 586.445 35.9632 589.119 Q39.1779 591.761 45.2253 591.761 L64.0042 591.761 L64.0042 597.649 L28.3562 597.649 L28.3562 591.761 L33.8944 591.761 Q30.6479 589.915 29.0883 586.955 Q27.4968 583.995 27.4968 579.761 Q27.4968 579.157 27.5923 578.425 Q27.656 577.693 27.8151 576.801 L33.8307 576.77 Z" fill="#000000" fill-rule="evenodd" fill-opacity="1" /><path clip-path="url(#clip340)" d="M44.7161 541.567 L47.5806 541.567 L47.5806 568.494 Q53.6281 568.112 56.8109 564.866 Q59.9619 561.587 59.9619 555.763 Q59.9619 552.389 59.1344 549.238 Q58.3069 546.055 56.6518 542.936 L62.1899 542.936 Q63.5267 546.087 64.227 549.397 Q64.9272 552.707 64.9272 556.113 Q64.9272 564.643 59.9619 569.64 Q54.9967 574.605 46.5303 574.605 Q37.7774 574.605 32.6531 569.895 Q27.4968 565.152 27.4968 557.131 Q27.4968 549.938 32.1438 545.769 Q36.7589 541.567 44.7161 541.567 M42.9973 547.424 Q38.1912 547.487 35.3266 550.129 Q32.4621 552.739 32.4621 557.068 Q32.4621 561.969 35.2312 564.929 Q38.0002 567.858 43.0292 568.303 L42.9973 547.424 Z" fill="#000000" fill-rule="evenodd" fill-opacity="1" /><path clip-path="url(#clip340)" d="M42.4881 502.323 L64.0042 502.323 L64.0042 508.179 L42.679 508.179 Q37.6183 508.179 35.1038 510.152 Q32.5894 512.126 32.5894 516.073 Q32.5894 520.815 35.6131 523.552 Q38.6368 526.289 43.8567 526.289 L64.0042 526.289 L64.0042 532.178 L28.3562 532.178 L28.3562 526.289 L33.8944 526.289 Q30.6797 524.189 29.0883 521.356 Q27.4968 518.491 27.4968 514.768 Q27.4968 508.625 31.3163 505.474 Q35.1038 502.323 42.4881 502.323 Z" fill="#000000" fill-rule="evenodd" fill-opacity="1" /><path clip-path="url(#clip340)" d="M29.7248 464.988 L35.1993 464.988 Q33.8307 467.47 33.1623 469.985 Q32.4621 472.467 32.4621 475.014 Q32.4621 480.711 36.0905 483.862 Q39.6872 487.013 46.212 487.013 Q52.7369 487.013 56.3653 483.862 Q59.9619 480.711 59.9619 475.014 Q59.9619 472.467 59.2935 469.985 Q58.5933 467.47 57.2247 464.988 L62.6355 464.988 Q63.7814 467.439 64.3543 470.08 Q64.9272 472.69 64.9272 475.65 Q64.9272 483.703 59.8664 488.445 Q54.8057 493.188 46.212 493.188 Q37.491 493.188 32.4939 488.414 Q27.4968 483.607 27.4968 475.268 Q27.4968 472.563 28.0697 469.985 Q28.6108 467.407 29.7248 464.988 Z" fill="#000000" fill-rule="evenodd" fill-opacity="1" /><path clip-path="url(#clip340)" d="M44.7161 424.311 L47.5806 424.311 L47.5806 451.238 Q53.6281 450.856 56.8109 447.609 Q59.9619 444.331 59.9619 438.506 Q59.9619 435.133 59.1344 431.982 Q58.3069 428.799 56.6518 425.679 L62.1899 425.679 Q63.5267 428.831 64.227 432.141 Q64.9272 435.451 64.9272 438.856 Q64.9272 447.387 59.9619 452.384 Q54.9967 457.349 46.5303 457.349 Q37.7774 457.349 32.6531 452.638 Q27.4968 447.896 27.4968 439.875 Q27.4968 432.682 32.1438 428.512 Q36.7589 424.311 44.7161 424.311 M42.9973 430.167 Q38.1912 430.231 35.3266 432.873 Q32.4621 435.483 32.4621 439.811 Q32.4621 444.713 35.2312 447.673 Q38.0002 450.601 43.0292 451.047 L42.9973 430.167 Z" fill="#000000" fill-rule="evenodd" fill-opacity="1" /><circle clip-path="url(#clip342)" cx="448.291" cy="1384.24" r="14.4" fill="#009af9" fill-rule="evenodd" fill-opacity="1" stroke="#000000" stroke-opacity="1" stroke-width="3.2"/>
<circle clip-path="url(#clip342)" cx="457.582" cy="1384.24" r="14.4" fill="#009af9" fill-rule="evenodd" fill-opacity="1" stroke="#000000" stroke-opacity="1" stroke-width="3.2"/>
<circle clip-path="url(#clip342)" cx="466.874" cy="1384.24" r="14.4" fill="#009af9" fill-rule="evenodd" fill-opacity="1" stroke="#000000" stroke-opacity="1" stroke-width="3.2"/>
<circle clip-path="url(#clip342)" cx="476.165" cy="1384.24" r="14.4" fill="#009af9" fill-rule="evenodd" fill-opacity="1" stroke="#000000" stroke-opacity="1" stroke-width="3.2"/>
<circle clip-path="url(#clip342)" cx="485.457" cy="1384.24" r="14.4" fill="#009af9" fill-rule="evenodd" fill-opacity="1" stroke="#000000" stroke-opacity="1" stroke-width="3.2"/>
<circle clip-path="url(#clip342)" cx="494.748" cy="1384.24" r="14.4" fill="#009af9" fill-rule="evenodd" fill-opacity="1" stroke="#000000" stroke-opacity="1" stroke-width="3.2"/>
<circle clip-path="url(#clip342)" cx="504.04" cy="1384.24" r="14.4" fill="#009af9" fill-rule="evenodd" fill-opacity="1" stroke="#000000" stroke-opacity="1" stroke-width="3.2"/>
<circle clip-path="url(#clip342)" cx="513.331" cy="1384.24" r="14.4" fill="#009af9" fill-rule="evenodd" fill-opacity="1" stroke="#000000" stroke-opacity="1" stroke-width="3.2"/>
<circle clip-path="url(#clip342)" cx="522.622" cy="1384.24" r="14.4" fill="#009af9" fill-rule="evenodd" fill-opacity="1" stroke="#000000" stroke-opacity="1" stroke-width="3.2"/>
<circle clip-path="url(#clip342)" cx="531.914" cy="1384.24" r="14.4" fill="#009af9" fill-rule="evenodd" fill-opacity="1" stroke="#000000" stroke-opacity="1" stroke-width="3.2"/>
<circle clip-path="url(#clip342)" cx="541.205" cy="1384.24" r="14.4" fill="#009af9" fill-rule="evenodd" fill-opacity="1" stroke="#000000" stroke-opacity="1" stroke-width="3.2"/>
<circle clip-path="url(#clip342)" cx="550.497" cy="1384.24" r="14.4" fill="#009af9" fill-rule="evenodd" fill-opacity="1" stroke="#000000" stroke-opacity="1" stroke-width="3.2"/>
<circle clip-path="url(#clip342)" cx="559.788" cy="1384.24" r="14.4" fill="#009af9" fill-rule="evenodd" fill-opacity="1" stroke="#000000" stroke-opacity="1" stroke-width="3.2"/>
<circle clip-path="url(#clip342)" cx="569.08" cy="1384.24" r="14.4" fill="#009af9" fill-rule="evenodd" fill-opacity="1" stroke="#000000" stroke-opacity="1" stroke-width="3.2"/>
<circle clip-path="url(#clip342)" cx="578.371" cy="1384.24" r="14.4" fill="#009af9" fill-rule="evenodd" fill-opacity="1" stroke="#000000" stroke-opacity="1" stroke-width="3.2"/>
<circle clip-path="url(#clip342)" cx="587.662" cy="1384.24" r="14.4" fill="#009af9" fill-rule="evenodd" fill-opacity="1" stroke="#000000" stroke-opacity="1" stroke-width="3.2"/>
<circle clip-path="url(#clip342)" cx="596.954" cy="1384.24" r="14.4" fill="#009af9" fill-rule="evenodd" fill-opacity="1" stroke="#000000" stroke-opacity="1" stroke-width="3.2"/>
<circle clip-path="url(#clip342)" cx="606.245" cy="1384.24" r="14.4" fill="#009af9" fill-rule="evenodd" fill-opacity="1" stroke="#000000" stroke-opacity="1" stroke-width="3.2"/>
<circle clip-path="url(#clip342)" cx="615.537" cy="1384.24" r="14.4" fill="#009af9" fill-rule="evenodd" fill-opacity="1" stroke="#000000" stroke-opacity="1" stroke-width="3.2"/>
<circle clip-path="url(#clip342)" cx="624.828" cy="1384.24" r="14.4" fill="#009af9" fill-rule="evenodd" fill-opacity="1" stroke="#000000" stroke-opacity="1" stroke-width="3.2"/>
<circle clip-path="url(#clip342)" cx="634.12" cy="1384.24" r="14.4" fill="#009af9" fill-rule="evenodd" fill-opacity="1" stroke="#000000" stroke-opacity="1" stroke-width="3.2"/>
<circle clip-path="url(#clip342)" cx="643.411" cy="1384.24" r="14.4" fill="#009af9" fill-rule="evenodd" fill-opacity="1" stroke="#000000" stroke-opacity="1" stroke-width="3.2"/>
<circle clip-path="url(#clip342)" cx="652.702" cy="1384.24" r="14.4" fill="#009af9" fill-rule="evenodd" fill-opacity="1" stroke="#000000" stroke-opacity="1" stroke-width="3.2"/>
<circle clip-path="url(#clip342)" cx="661.994" cy="1384.24" r="14.4" fill="#009af9" fill-rule="evenodd" fill-opacity="1" stroke="#000000" stroke-opacity="1" stroke-width="3.2"/>
<circle clip-path="url(#clip342)" cx="671.285" cy="1384.24" r="14.4" fill="#009af9" fill-rule="evenodd" fill-opacity="1" stroke="#000000" stroke-opacity="1" stroke-width="3.2"/>
<circle clip-path="url(#clip342)" cx="680.577" cy="1384.24" r="14.4" fill="#009af9" fill-rule="evenodd" fill-opacity="1" stroke="#000000" stroke-opacity="1" stroke-width="3.2"/>
<circle clip-path="url(#clip342)" cx="689.868" cy="1384.24" r="14.4" fill="#009af9" fill-rule="evenodd" fill-opacity="1" stroke="#000000" stroke-opacity="1" stroke-width="3.2"/>
<circle clip-path="url(#clip342)" cx="699.16" cy="1384.24" r="14.4" fill="#009af9" fill-rule="evenodd" fill-opacity="1" stroke="#000000" stroke-opacity="1" stroke-width="3.2"/>
<circle clip-path="url(#clip342)" cx="708.451" cy="1384.24" r="14.4" fill="#009af9" fill-rule="evenodd" fill-opacity="1" stroke="#000000" stroke-opacity="1" stroke-width="3.2"/>
<circle clip-path="url(#clip342)" cx="717.742" cy="1384.24" r="14.4" fill="#009af9" fill-rule="evenodd" fill-opacity="1" stroke="#000000" stroke-opacity="1" stroke-width="3.2"/>
<circle clip-path="url(#clip342)" cx="727.034" cy="1384.24" r="14.4" fill="#009af9" fill-rule="evenodd" fill-opacity="1" stroke="#000000" stroke-opacity="1" stroke-width="3.2"/>
<circle clip-path="url(#clip342)" cx="736.325" cy="1384.24" r="14.4" fill="#009af9" fill-rule="evenodd" fill-opacity="1" stroke="#000000" stroke-opacity="1" stroke-width="3.2"/>
<circle clip-path="url(#clip342)" cx="745.617" cy="1384.24" r="14.4" fill="#009af9" fill-rule="evenodd" fill-opacity="1" stroke="#000000" stroke-opacity="1" stroke-width="3.2"/>
<circle clip-path="url(#clip342)" cx="754.908" cy="1384.24" r="14.4" fill="#009af9" fill-rule="evenodd" fill-opacity="1" stroke="#000000" stroke-opacity="1" stroke-width="3.2"/>
<circle clip-path="url(#clip342)" cx="764.2" cy="1384.24" r="14.4" fill="#009af9" fill-rule="evenodd" fill-opacity="1" stroke="#000000" stroke-opacity="1" stroke-width="3.2"/>
<circle clip-path="url(#clip342)" cx="773.491" cy="1384.24" r="14.4" fill="#009af9" fill-rule="evenodd" fill-opacity="1" stroke="#000000" stroke-opacity="1" stroke-width="3.2"/>
<circle clip-path="url(#clip342)" cx="782.783" cy="1384.24" r="14.4" fill="#009af9" fill-rule="evenodd" fill-opacity="1" stroke="#000000" stroke-opacity="1" stroke-width="3.2"/>
<circle clip-path="url(#clip342)" cx="792.074" cy="1384.24" r="14.4" fill="#009af9" fill-rule="evenodd" fill-opacity="1" stroke="#000000" stroke-opacity="1" stroke-width="3.2"/>
<circle clip-path="url(#clip342)" cx="801.365" cy="1384.24" r="14.4" fill="#009af9" fill-rule="evenodd" fill-opacity="1" stroke="#000000" stroke-opacity="1" stroke-width="3.2"/>
<circle clip-path="url(#clip342)" cx="810.657" cy="1384.24" r="14.4" fill="#009af9" fill-rule="evenodd" fill-opacity="1" stroke="#000000" stroke-opacity="1" stroke-width="3.2"/>
<circle clip-path="url(#clip342)" cx="819.948" cy="1384.24" r="14.4" fill="#009af9" fill-rule="evenodd" fill-opacity="1" stroke="#000000" stroke-opacity="1" stroke-width="3.2"/>
<circle clip-path="url(#clip342)" cx="829.24" cy="1384.24" r="14.4" fill="#009af9" fill-rule="evenodd" fill-opacity="1" stroke="#000000" stroke-opacity="1" stroke-width="3.2"/>
<circle clip-path="url(#clip342)" cx="838.531" cy="1384.24" r="14.4" fill="#009af9" fill-rule="evenodd" fill-opacity="1" stroke="#000000" stroke-opacity="1" stroke-width="3.2"/>
<circle clip-path="url(#clip342)" cx="847.823" cy="1384.24" r="14.4" fill="#009af9" fill-rule="evenodd" fill-opacity="1" stroke="#000000" stroke-opacity="1" stroke-width="3.2"/>
<circle clip-path="url(#clip342)" cx="857.114" cy="1384.24" r="14.4" fill="#009af9" fill-rule="evenodd" fill-opacity="1" stroke="#000000" stroke-opacity="1" stroke-width="3.2"/>
<circle clip-path="url(#clip342)" cx="866.405" cy="1384.24" r="14.4" fill="#009af9" fill-rule="evenodd" fill-opacity="1" stroke="#000000" stroke-opacity="1" stroke-width="3.2"/>
<circle clip-path="url(#clip342)" cx="875.697" cy="1384.24" r="14.4" fill="#009af9" fill-rule="evenodd" fill-opacity="1" stroke="#000000" stroke-opacity="1" stroke-width="3.2"/>
<circle clip-path="url(#clip342)" cx="884.988" cy="1384.24" r="14.4" fill="#009af9" fill-rule="evenodd" fill-opacity="1" stroke="#000000" stroke-opacity="1" stroke-width="3.2"/>
<circle clip-path="url(#clip342)" cx="894.28" cy="1384.24" r="14.4" fill="#009af9" fill-rule="evenodd" fill-opacity="1" stroke="#000000" stroke-opacity="1" stroke-width="3.2"/>
<circle clip-path="url(#clip342)" cx="903.571" cy="1384.24" r="14.4" fill="#009af9" fill-rule="evenodd" fill-opacity="1" stroke="#000000" stroke-opacity="1" stroke-width="3.2"/>
<circle clip-path="url(#clip342)" cx="912.863" cy="1384.24" r="14.4" fill="#009af9" fill-rule="evenodd" fill-opacity="1" stroke="#000000" stroke-opacity="1" stroke-width="3.2"/>
<circle clip-path="url(#clip342)" cx="922.154" cy="1384.24" r="14.4" fill="#009af9" fill-rule="evenodd" fill-opacity="1" stroke="#000000" stroke-opacity="1" stroke-width="3.2"/>
<circle clip-path="url(#clip342)" cx="931.445" cy="1384.24" r="14.4" fill="#009af9" fill-rule="evenodd" fill-opacity="1" stroke="#000000" stroke-opacity="1" stroke-width="3.2"/>
<circle clip-path="url(#clip342)" cx="940.737" cy="1384.24" r="14.4" fill="#009af9" fill-rule="evenodd" fill-opacity="1" stroke="#000000" stroke-opacity="1" stroke-width="3.2"/>
<circle clip-path="url(#clip342)" cx="950.028" cy="1384.24" r="14.4" fill="#009af9" fill-rule="evenodd" fill-opacity="1" stroke="#000000" stroke-opacity="1" stroke-width="3.2"/>
<circle clip-path="url(#clip342)" cx="959.32" cy="1384.24" r="14.4" fill="#009af9" fill-rule="evenodd" fill-opacity="1" stroke="#000000" stroke-opacity="1" stroke-width="3.2"/>
<circle clip-path="url(#clip342)" cx="968.611" cy="1384.24" r="14.4" fill="#009af9" fill-rule="evenodd" fill-opacity="1" stroke="#000000" stroke-opacity="1" stroke-width="3.2"/>
<circle clip-path="url(#clip342)" cx="977.903" cy="1384.24" r="14.4" fill="#009af9" fill-rule="evenodd" fill-opacity="1" stroke="#000000" stroke-opacity="1" stroke-width="3.2"/>
<circle clip-path="url(#clip342)" cx="987.194" cy="1384.24" r="14.4" fill="#009af9" fill-rule="evenodd" fill-opacity="1" stroke="#000000" stroke-opacity="1" stroke-width="3.2"/>
<circle clip-path="url(#clip342)" cx="996.485" cy="1384.24" r="14.4" fill="#009af9" fill-rule="evenodd" fill-opacity="1" stroke="#000000" stroke-opacity="1" stroke-width="3.2"/>
<circle clip-path="url(#clip342)" cx="1005.78" cy="1384.24" r="14.4" fill="#009af9" fill-rule="evenodd" fill-opacity="1" stroke="#000000" stroke-opacity="1" stroke-width="3.2"/>
<circle clip-path="url(#clip342)" cx="1015.07" cy="1384.24" r="14.4" fill="#009af9" fill-rule="evenodd" fill-opacity="1" stroke="#000000" stroke-opacity="1" stroke-width="3.2"/>
<circle clip-path="url(#clip342)" cx="1024.36" cy="1384.24" r="14.4" fill="#009af9" fill-rule="evenodd" fill-opacity="1" stroke="#000000" stroke-opacity="1" stroke-width="3.2"/>
<circle clip-path="url(#clip342)" cx="1033.65" cy="1384.24" r="14.4" fill="#009af9" fill-rule="evenodd" fill-opacity="1" stroke="#000000" stroke-opacity="1" stroke-width="3.2"/>
<circle clip-path="url(#clip342)" cx="1042.94" cy="1384.24" r="14.4" fill="#009af9" fill-rule="evenodd" fill-opacity="1" stroke="#000000" stroke-opacity="1" stroke-width="3.2"/>
<circle clip-path="url(#clip342)" cx="1052.23" cy="1384.24" r="14.4" fill="#009af9" fill-rule="evenodd" fill-opacity="1" stroke="#000000" stroke-opacity="1" stroke-width="3.2"/>
<circle clip-path="url(#clip342)" cx="1061.53" cy="1384.24" r="14.4" fill="#009af9" fill-rule="evenodd" fill-opacity="1" stroke="#000000" stroke-opacity="1" stroke-width="3.2"/>
<circle clip-path="url(#clip342)" cx="1070.82" cy="1384.24" r="14.4" fill="#009af9" fill-rule="evenodd" fill-opacity="1" stroke="#000000" stroke-opacity="1" stroke-width="3.2"/>
<circle clip-path="url(#clip342)" cx="1080.11" cy="1384.24" r="14.4" fill="#009af9" fill-rule="evenodd" fill-opacity="1" stroke="#000000" stroke-opacity="1" stroke-width="3.2"/>
<circle clip-path="url(#clip342)" cx="1089.4" cy="1384.24" r="14.4" fill="#009af9" fill-rule="evenodd" fill-opacity="1" stroke="#000000" stroke-opacity="1" stroke-width="3.2"/>
<circle clip-path="url(#clip342)" cx="1098.69" cy="1384.24" r="14.4" fill="#009af9" fill-rule="evenodd" fill-opacity="1" stroke="#000000" stroke-opacity="1" stroke-width="3.2"/>
<circle clip-path="url(#clip342)" cx="1107.98" cy="1384.24" r="14.4" fill="#009af9" fill-rule="evenodd" fill-opacity="1" stroke="#000000" stroke-opacity="1" stroke-width="3.2"/>
<circle clip-path="url(#clip342)" cx="1117.27" cy="1384.24" r="14.4" fill="#009af9" fill-rule="evenodd" fill-opacity="1" stroke="#000000" stroke-opacity="1" stroke-width="3.2"/>
<circle clip-path="url(#clip342)" cx="1126.57" cy="1384.24" r="14.4" fill="#009af9" fill-rule="evenodd" fill-opacity="1" stroke="#000000" stroke-opacity="1" stroke-width="3.2"/>
<circle clip-path="url(#clip342)" cx="1135.86" cy="1384.24" r="14.4" fill="#009af9" fill-rule="evenodd" fill-opacity="1" stroke="#000000" stroke-opacity="1" stroke-width="3.2"/>
<circle clip-path="url(#clip342)" cx="1145.15" cy="1384.24" r="14.4" fill="#009af9" fill-rule="evenodd" fill-opacity="1" stroke="#000000" stroke-opacity="1" stroke-width="3.2"/>
<circle clip-path="url(#clip342)" cx="1154.44" cy="1384.24" r="14.4" fill="#009af9" fill-rule="evenodd" fill-opacity="1" stroke="#000000" stroke-opacity="1" stroke-width="3.2"/>
<circle clip-path="url(#clip342)" cx="1163.73" cy="1384.24" r="14.4" fill="#009af9" fill-rule="evenodd" fill-opacity="1" stroke="#000000" stroke-opacity="1" stroke-width="3.2"/>
<circle clip-path="url(#clip342)" cx="1173.02" cy="1384.24" r="14.4" fill="#009af9" fill-rule="evenodd" fill-opacity="1" stroke="#000000" stroke-opacity="1" stroke-width="3.2"/>
<circle clip-path="url(#clip342)" cx="1182.31" cy="1384.24" r="14.4" fill="#009af9" fill-rule="evenodd" fill-opacity="1" stroke="#000000" stroke-opacity="1" stroke-width="3.2"/>
<circle clip-path="url(#clip342)" cx="1191.61" cy="1384.24" r="14.4" fill="#009af9" fill-rule="evenodd" fill-opacity="1" stroke="#000000" stroke-opacity="1" stroke-width="3.2"/>
<circle clip-path="url(#clip342)" cx="1200.9" cy="1384.24" r="14.4" fill="#009af9" fill-rule="evenodd" fill-opacity="1" stroke="#000000" stroke-opacity="1" stroke-width="3.2"/>
<circle clip-path="url(#clip342)" cx="1210.19" cy="1384.24" r="14.4" fill="#009af9" fill-rule="evenodd" fill-opacity="1" stroke="#000000" stroke-opacity="1" stroke-width="3.2"/>
<circle clip-path="url(#clip342)" cx="1219.48" cy="1384.24" r="14.4" fill="#009af9" fill-rule="evenodd" fill-opacity="1" stroke="#000000" stroke-opacity="1" stroke-width="3.2"/>
<circle clip-path="url(#clip342)" cx="1228.77" cy="1384.24" r="14.4" fill="#009af9" fill-rule="evenodd" fill-opacity="1" stroke="#000000" stroke-opacity="1" stroke-width="3.2"/>
<circle clip-path="url(#clip342)" cx="1238.06" cy="1384.24" r="14.4" fill="#009af9" fill-rule="evenodd" fill-opacity="1" stroke="#000000" stroke-opacity="1" stroke-width="3.2"/>
<circle clip-path="url(#clip342)" cx="1247.35" cy="1384.24" r="14.4" fill="#009af9" fill-rule="evenodd" fill-opacity="1" stroke="#000000" stroke-opacity="1" stroke-width="3.2"/>
<circle clip-path="url(#clip342)" cx="1256.65" cy="1384.24" r="14.4" fill="#009af9" fill-rule="evenodd" fill-opacity="1" stroke="#000000" stroke-opacity="1" stroke-width="3.2"/>
<circle clip-path="url(#clip342)" cx="1265.94" cy="1384.24" r="14.4" fill="#009af9" fill-rule="evenodd" fill-opacity="1" stroke="#000000" stroke-opacity="1" stroke-width="3.2"/>
<circle clip-path="url(#clip342)" cx="1275.23" cy="1384.24" r="14.4" fill="#009af9" fill-rule="evenodd" fill-opacity="1" stroke="#000000" stroke-opacity="1" stroke-width="3.2"/>
<circle clip-path="url(#clip342)" cx="1284.52" cy="1384.24" r="14.4" fill="#009af9" fill-rule="evenodd" fill-opacity="1" stroke="#000000" stroke-opacity="1" stroke-width="3.2"/>
<circle clip-path="url(#clip342)" cx="1293.81" cy="1384.24" r="14.4" fill="#009af9" fill-rule="evenodd" fill-opacity="1" stroke="#000000" stroke-opacity="1" stroke-width="3.2"/>
<circle clip-path="url(#clip342)" cx="1303.1" cy="1384.24" r="14.4" fill="#009af9" fill-rule="evenodd" fill-opacity="1" stroke="#000000" stroke-opacity="1" stroke-width="3.2"/>
<circle clip-path="url(#clip342)" cx="1312.39" cy="1384.24" r="14.4" fill="#009af9" fill-rule="evenodd" fill-opacity="1" stroke="#000000" stroke-opacity="1" stroke-width="3.2"/>
<circle clip-path="url(#clip342)" cx="1321.69" cy="1384.24" r="14.4" fill="#009af9" fill-rule="evenodd" fill-opacity="1" stroke="#000000" stroke-opacity="1" stroke-width="3.2"/>
<circle clip-path="url(#clip342)" cx="1330.98" cy="1384.24" r="14.4" fill="#009af9" fill-rule="evenodd" fill-opacity="1" stroke="#000000" stroke-opacity="1" stroke-width="3.2"/>
<circle clip-path="url(#clip342)" cx="1340.27" cy="1384.24" r="14.4" fill="#009af9" fill-rule="evenodd" fill-opacity="1" stroke="#000000" stroke-opacity="1" stroke-width="3.2"/>
<circle clip-path="url(#clip342)" cx="1349.56" cy="1384.24" r="14.4" fill="#009af9" fill-rule="evenodd" fill-opacity="1" stroke="#000000" stroke-opacity="1" stroke-width="3.2"/>
<circle clip-path="url(#clip342)" cx="1358.85" cy="1384.24" r="14.4" fill="#009af9" fill-rule="evenodd" fill-opacity="1" stroke="#000000" stroke-opacity="1" stroke-width="3.2"/>
<circle clip-path="url(#clip342)" cx="1368.14" cy="1384.24" r="14.4" fill="#009af9" fill-rule="evenodd" fill-opacity="1" stroke="#000000" stroke-opacity="1" stroke-width="3.2"/>
<circle clip-path="url(#clip342)" cx="1377.43" cy="1384.24" r="14.4" fill="#009af9" fill-rule="evenodd" fill-opacity="1" stroke="#000000" stroke-opacity="1" stroke-width="3.2"/>
<circle clip-path="url(#clip342)" cx="1386.73" cy="1384.24" r="14.4" fill="#009af9" fill-rule="evenodd" fill-opacity="1" stroke="#000000" stroke-opacity="1" stroke-width="3.2"/>
<circle clip-path="url(#clip342)" cx="1396.02" cy="1384.24" r="14.4" fill="#009af9" fill-rule="evenodd" fill-opacity="1" stroke="#000000" stroke-opacity="1" stroke-width="3.2"/>
<circle clip-path="url(#clip342)" cx="1405.31" cy="1384.24" r="14.4" fill="#009af9" fill-rule="evenodd" fill-opacity="1" stroke="#000000" stroke-opacity="1" stroke-width="3.2"/>
<circle clip-path="url(#clip342)" cx="1414.6" cy="1384.24" r="14.4" fill="#009af9" fill-rule="evenodd" fill-opacity="1" stroke="#000000" stroke-opacity="1" stroke-width="3.2"/>
<circle clip-path="url(#clip342)" cx="1423.89" cy="1384.24" r="14.4" fill="#009af9" fill-rule="evenodd" fill-opacity="1" stroke="#000000" stroke-opacity="1" stroke-width="3.2"/>
<circle clip-path="url(#clip342)" cx="1433.18" cy="1384.24" r="14.4" fill="#009af9" fill-rule="evenodd" fill-opacity="1" stroke="#000000" stroke-opacity="1" stroke-width="3.2"/>
<circle clip-path="url(#clip342)" cx="1442.47" cy="1384.24" r="14.4" fill="#009af9" fill-rule="evenodd" fill-opacity="1" stroke="#000000" stroke-opacity="1" stroke-width="3.2"/>
<circle clip-path="url(#clip342)" cx="1451.77" cy="1384.24" r="14.4" fill="#009af9" fill-rule="evenodd" fill-opacity="1" stroke="#000000" stroke-opacity="1" stroke-width="3.2"/>
<circle clip-path="url(#clip342)" cx="1461.06" cy="1384.24" r="14.4" fill="#009af9" fill-rule="evenodd" fill-opacity="1" stroke="#000000" stroke-opacity="1" stroke-width="3.2"/>
<circle clip-path="url(#clip342)" cx="1470.35" cy="1384.24" r="14.4" fill="#009af9" fill-rule="evenodd" fill-opacity="1" stroke="#000000" stroke-opacity="1" stroke-width="3.2"/>
<circle clip-path="url(#clip342)" cx="1479.64" cy="1384.24" r="14.4" fill="#009af9" fill-rule="evenodd" fill-opacity="1" stroke="#000000" stroke-opacity="1" stroke-width="3.2"/>
<circle clip-path="url(#clip342)" cx="1488.93" cy="1384.24" r="14.4" fill="#009af9" fill-rule="evenodd" fill-opacity="1" stroke="#000000" stroke-opacity="1" stroke-width="3.2"/>
<circle clip-path="url(#clip342)" cx="1498.22" cy="1384.24" r="14.4" fill="#009af9" fill-rule="evenodd" fill-opacity="1" stroke="#000000" stroke-opacity="1" stroke-width="3.2"/>
<circle clip-path="url(#clip342)" cx="1507.51" cy="1384.24" r="14.4" fill="#009af9" fill-rule="evenodd" fill-opacity="1" stroke="#000000" stroke-opacity="1" stroke-width="3.2"/>
<circle clip-path="url(#clip342)" cx="1516.81" cy="1384.24" r="14.4" fill="#009af9" fill-rule="evenodd" fill-opacity="1" stroke="#000000" stroke-opacity="1" stroke-width="3.2"/>
<circle clip-path="url(#clip342)" cx="1526.1" cy="1384.24" r="14.4" fill="#009af9" fill-rule="evenodd" fill-opacity="1" stroke="#000000" stroke-opacity="1" stroke-width="3.2"/>
<circle clip-path="url(#clip342)" cx="1535.39" cy="1384.24" r="14.4" fill="#009af9" fill-rule="evenodd" fill-opacity="1" stroke="#000000" stroke-opacity="1" stroke-width="3.2"/>
<circle clip-path="url(#clip342)" cx="1544.68" cy="1384.24" r="14.4" fill="#009af9" fill-rule="evenodd" fill-opacity="1" stroke="#000000" stroke-opacity="1" stroke-width="3.2"/>
<circle clip-path="url(#clip342)" cx="1553.97" cy="1384.24" r="14.4" fill="#009af9" fill-rule="evenodd" fill-opacity="1" stroke="#000000" stroke-opacity="1" stroke-width="3.2"/>
<circle clip-path="url(#clip342)" cx="1563.26" cy="1384.24" r="14.4" fill="#009af9" fill-rule="evenodd" fill-opacity="1" stroke="#000000" stroke-opacity="1" stroke-width="3.2"/>
<circle clip-path="url(#clip342)" cx="1572.55" cy="1384.24" r="14.4" fill="#009af9" fill-rule="evenodd" fill-opacity="1" stroke="#000000" stroke-opacity="1" stroke-width="3.2"/>
<circle clip-path="url(#clip342)" cx="1581.85" cy="1384.24" r="14.4" fill="#009af9" fill-rule="evenodd" fill-opacity="1" stroke="#000000" stroke-opacity="1" stroke-width="3.2"/>
<circle clip-path="url(#clip342)" cx="1591.14" cy="1384.24" r="14.4" fill="#009af9" fill-rule="evenodd" fill-opacity="1" stroke="#000000" stroke-opacity="1" stroke-width="3.2"/>
<circle clip-path="url(#clip342)" cx="1600.43" cy="1384.24" r="14.4" fill="#009af9" fill-rule="evenodd" fill-opacity="1" stroke="#000000" stroke-opacity="1" stroke-width="3.2"/>
<circle clip-path="url(#clip342)" cx="1609.72" cy="1384.24" r="14.4" fill="#009af9" fill-rule="evenodd" fill-opacity="1" stroke="#000000" stroke-opacity="1" stroke-width="3.2"/>
<circle clip-path="url(#clip342)" cx="1619.01" cy="1384.24" r="14.4" fill="#009af9" fill-rule="evenodd" fill-opacity="1" stroke="#000000" stroke-opacity="1" stroke-width="3.2"/>
<circle clip-path="url(#clip342)" cx="1628.3" cy="1384.24" r="14.4" fill="#009af9" fill-rule="evenodd" fill-opacity="1" stroke="#000000" stroke-opacity="1" stroke-width="3.2"/>
<circle clip-path="url(#clip342)" cx="1637.59" cy="1384.24" r="14.4" fill="#009af9" fill-rule="evenodd" fill-opacity="1" stroke="#000000" stroke-opacity="1" stroke-width="3.2"/>
<circle clip-path="url(#clip342)" cx="1646.89" cy="1384.24" r="14.4" fill="#009af9" fill-rule="evenodd" fill-opacity="1" stroke="#000000" stroke-opacity="1" stroke-width="3.2"/>
<circle clip-path="url(#clip342)" cx="1656.18" cy="1384.24" r="14.4" fill="#009af9" fill-rule="evenodd" fill-opacity="1" stroke="#000000" stroke-opacity="1" stroke-width="3.2"/>
<circle clip-path="url(#clip342)" cx="1665.47" cy="1384.24" r="14.4" fill="#009af9" fill-rule="evenodd" fill-opacity="1" stroke="#000000" stroke-opacity="1" stroke-width="3.2"/>
<circle clip-path="url(#clip342)" cx="1674.76" cy="1384.24" r="14.4" fill="#009af9" fill-rule="evenodd" fill-opacity="1" stroke="#000000" stroke-opacity="1" stroke-width="3.2"/>
<circle clip-path="url(#clip342)" cx="1684.05" cy="1384.24" r="14.4" fill="#009af9" fill-rule="evenodd" fill-opacity="1" stroke="#000000" stroke-opacity="1" stroke-width="3.2"/>
<circle clip-path="url(#clip342)" cx="1693.34" cy="1384.24" r="14.4" fill="#009af9" fill-rule="evenodd" fill-opacity="1" stroke="#000000" stroke-opacity="1" stroke-width="3.2"/>
<circle clip-path="url(#clip342)" cx="1702.63" cy="1384.24" r="14.4" fill="#009af9" fill-rule="evenodd" fill-opacity="1" stroke="#000000" stroke-opacity="1" stroke-width="3.2"/>
<circle clip-path="url(#clip342)" cx="1711.93" cy="1384.24" r="14.4" fill="#009af9" fill-rule="evenodd" fill-opacity="1" stroke="#000000" stroke-opacity="1" stroke-width="3.2"/>
<circle clip-path="url(#clip342)" cx="1721.22" cy="1384.24" r="14.4" fill="#009af9" fill-rule="evenodd" fill-opacity="1" stroke="#000000" stroke-opacity="1" stroke-width="3.2"/>
<circle clip-path="url(#clip342)" cx="1730.51" cy="1384.24" r="14.4" fill="#009af9" fill-rule="evenodd" fill-opacity="1" stroke="#000000" stroke-opacity="1" stroke-width="3.2"/>
<circle clip-path="url(#clip342)" cx="1739.8" cy="1384.24" r="14.4" fill="#009af9" fill-rule="evenodd" fill-opacity="1" stroke="#000000" stroke-opacity="1" stroke-width="3.2"/>
<circle clip-path="url(#clip342)" cx="1749.09" cy="1384.24" r="14.4" fill="#009af9" fill-rule="evenodd" fill-opacity="1" stroke="#000000" stroke-opacity="1" stroke-width="3.2"/>
<circle clip-path="url(#clip342)" cx="1758.38" cy="1384.24" r="14.4" fill="#009af9" fill-rule="evenodd" fill-opacity="1" stroke="#000000" stroke-opacity="1" stroke-width="3.2"/>
<circle clip-path="url(#clip342)" cx="1767.67" cy="1384.24" r="14.4" fill="#009af9" fill-rule="evenodd" fill-opacity="1" stroke="#000000" stroke-opacity="1" stroke-width="3.2"/>
<circle clip-path="url(#clip342)" cx="1776.97" cy="1384.24" r="14.4" fill="#009af9" fill-rule="evenodd" fill-opacity="1" stroke="#000000" stroke-opacity="1" stroke-width="3.2"/>
<circle clip-path="url(#clip342)" cx="1786.26" cy="1384.24" r="14.4" fill="#009af9" fill-rule="evenodd" fill-opacity="1" stroke="#000000" stroke-opacity="1" stroke-width="3.2"/>
<circle clip-path="url(#clip342)" cx="1795.55" cy="1384.24" r="14.4" fill="#009af9" fill-rule="evenodd" fill-opacity="1" stroke="#000000" stroke-opacity="1" stroke-width="3.2"/>
<circle clip-path="url(#clip342)" cx="1804.84" cy="1384.24" r="14.4" fill="#009af9" fill-rule="evenodd" fill-opacity="1" stroke="#000000" stroke-opacity="1" stroke-width="3.2"/>
<circle clip-path="url(#clip342)" cx="1814.13" cy="1384.24" r="14.4" fill="#009af9" fill-rule="evenodd" fill-opacity="1" stroke="#000000" stroke-opacity="1" stroke-width="3.2"/>
<circle clip-path="url(#clip342)" cx="1823.42" cy="1384.24" r="14.4" fill="#009af9" fill-rule="evenodd" fill-opacity="1" stroke="#000000" stroke-opacity="1" stroke-width="3.2"/>
<circle clip-path="url(#clip342)" cx="1832.71" cy="1384.24" r="14.4" fill="#009af9" fill-rule="evenodd" fill-opacity="1" stroke="#000000" stroke-opacity="1" stroke-width="3.2"/>
<circle clip-path="url(#clip342)" cx="1842.01" cy="1384.24" r="14.4" fill="#009af9" fill-rule="evenodd" fill-opacity="1" stroke="#000000" stroke-opacity="1" stroke-width="3.2"/>
<circle clip-path="url(#clip342)" cx="1851.3" cy="1384.24" r="14.4" fill="#009af9" fill-rule="evenodd" fill-opacity="1" stroke="#000000" stroke-opacity="1" stroke-width="3.2"/>
<circle clip-path="url(#clip342)" cx="1860.59" cy="1384.24" r="14.4" fill="#009af9" fill-rule="evenodd" fill-opacity="1" stroke="#000000" stroke-opacity="1" stroke-width="3.2"/>
<circle clip-path="url(#clip342)" cx="1869.88" cy="1384.24" r="14.4" fill="#009af9" fill-rule="evenodd" fill-opacity="1" stroke="#000000" stroke-opacity="1" stroke-width="3.2"/>
<circle clip-path="url(#clip342)" cx="1879.17" cy="1384.24" r="14.4" fill="#009af9" fill-rule="evenodd" fill-opacity="1" stroke="#000000" stroke-opacity="1" stroke-width="3.2"/>
<circle clip-path="url(#clip342)" cx="1888.46" cy="1384.24" r="14.4" fill="#009af9" fill-rule="evenodd" fill-opacity="1" stroke="#000000" stroke-opacity="1" stroke-width="3.2"/>
<circle clip-path="url(#clip342)" cx="1897.75" cy="1384.24" r="14.4" fill="#009af9" fill-rule="evenodd" fill-opacity="1" stroke="#000000" stroke-opacity="1" stroke-width="3.2"/>
<circle clip-path="url(#clip342)" cx="1907.05" cy="1384.24" r="14.4" fill="#009af9" fill-rule="evenodd" fill-opacity="1" stroke="#000000" stroke-opacity="1" stroke-width="3.2"/>
<circle clip-path="url(#clip342)" cx="1916.34" cy="1384.24" r="14.4" fill="#009af9" fill-rule="evenodd" fill-opacity="1" stroke="#000000" stroke-opacity="1" stroke-width="3.2"/>
<circle clip-path="url(#clip342)" cx="1925.63" cy="1384.24" r="14.4" fill="#009af9" fill-rule="evenodd" fill-opacity="1" stroke="#000000" stroke-opacity="1" stroke-width="3.2"/>
<circle clip-path="url(#clip342)" cx="1934.92" cy="1384.24" r="14.4" fill="#009af9" fill-rule="evenodd" fill-opacity="1" stroke="#000000" stroke-opacity="1" stroke-width="3.2"/>
<circle clip-path="url(#clip342)" cx="1944.21" cy="1384.24" r="14.4" fill="#009af9" fill-rule="evenodd" fill-opacity="1" stroke="#000000" stroke-opacity="1" stroke-width="3.2"/>
<circle clip-path="url(#clip342)" cx="1953.5" cy="1384.24" r="14.4" fill="#009af9" fill-rule="evenodd" fill-opacity="1" stroke="#000000" stroke-opacity="1" stroke-width="3.2"/>
<circle clip-path="url(#clip342)" cx="1962.79" cy="1384.24" r="14.4" fill="#009af9" fill-rule="evenodd" fill-opacity="1" stroke="#000000" stroke-opacity="1" stroke-width="3.2"/>
<circle clip-path="url(#clip342)" cx="1972.09" cy="1384.24" r="14.4" fill="#009af9" fill-rule="evenodd" fill-opacity="1" stroke="#000000" stroke-opacity="1" stroke-width="3.2"/>
<circle clip-path="url(#clip342)" cx="1981.38" cy="1384.24" r="14.4" fill="#009af9" fill-rule="evenodd" fill-opacity="1" stroke="#000000" stroke-opacity="1" stroke-width="3.2"/>
<circle clip-path="url(#clip342)" cx="1990.67" cy="1384.24" r="14.4" fill="#009af9" fill-rule="evenodd" fill-opacity="1" stroke="#000000" stroke-opacity="1" stroke-width="3.2"/>
<circle clip-path="url(#clip342)" cx="1999.96" cy="1384.24" r="14.4" fill="#009af9" fill-rule="evenodd" fill-opacity="1" stroke="#000000" stroke-opacity="1" stroke-width="3.2"/>
<circle clip-path="url(#clip342)" cx="2009.25" cy="1384.24" r="14.4" fill="#009af9" fill-rule="evenodd" fill-opacity="1" stroke="#000000" stroke-opacity="1" stroke-width="3.2"/>
<circle clip-path="url(#clip342)" cx="2018.54" cy="1384.24" r="14.4" fill="#009af9" fill-rule="evenodd" fill-opacity="1" stroke="#000000" stroke-opacity="1" stroke-width="3.2"/>
<circle clip-path="url(#clip342)" cx="2027.83" cy="1384.24" r="14.4" fill="#009af9" fill-rule="evenodd" fill-opacity="1" stroke="#000000" stroke-opacity="1" stroke-width="3.2"/>
<circle clip-path="url(#clip342)" cx="2037.13" cy="1384.24" r="14.4" fill="#009af9" fill-rule="evenodd" fill-opacity="1" stroke="#000000" stroke-opacity="1" stroke-width="3.2"/>
<circle clip-path="url(#clip342)" cx="2046.42" cy="1384.24" r="14.4" fill="#009af9" fill-rule="evenodd" fill-opacity="1" stroke="#000000" stroke-opacity="1" stroke-width="3.2"/>
<circle clip-path="url(#clip342)" cx="2055.71" cy="1384.23" r="14.4" fill="#009af9" fill-rule="evenodd" fill-opacity="1" stroke="#000000" stroke-opacity="1" stroke-width="3.2"/>
<circle clip-path="url(#clip342)" cx="2065" cy="1384.23" r="14.4" fill="#009af9" fill-rule="evenodd" fill-opacity="1" stroke="#000000" stroke-opacity="1" stroke-width="3.2"/>
<circle clip-path="url(#clip342)" cx="2074.29" cy="1384.23" r="14.4" fill="#009af9" fill-rule="evenodd" fill-opacity="1" stroke="#000000" stroke-opacity="1" stroke-width="3.2"/>
<circle clip-path="url(#clip342)" cx="2083.58" cy="1384.22" r="14.4" fill="#009af9" fill-rule="evenodd" fill-opacity="1" stroke="#000000" stroke-opacity="1" stroke-width="3.2"/>
<circle clip-path="url(#clip342)" cx="2092.87" cy="1384.21" r="14.4" fill="#009af9" fill-rule="evenodd" fill-opacity="1" stroke="#000000" stroke-opacity="1" stroke-width="3.2"/>
<circle clip-path="url(#clip342)" cx="2102.17" cy="1384.19" r="14.4" fill="#009af9" fill-rule="evenodd" fill-opacity="1" stroke="#000000" stroke-opacity="1" stroke-width="3.2"/>
<circle clip-path="url(#clip342)" cx="2111.46" cy="1384.16" r="14.4" fill="#009af9" fill-rule="evenodd" fill-opacity="1" stroke="#000000" stroke-opacity="1" stroke-width="3.2"/>
<circle clip-path="url(#clip342)" cx="2120.75" cy="1384.11" r="14.4" fill="#009af9" fill-rule="evenodd" fill-opacity="1" stroke="#000000" stroke-opacity="1" stroke-width="3.2"/>
<circle clip-path="url(#clip342)" cx="2130.04" cy="1384.03" r="14.4" fill="#009af9" fill-rule="evenodd" fill-opacity="1" stroke="#000000" stroke-opacity="1" stroke-width="3.2"/>
<circle clip-path="url(#clip342)" cx="2139.33" cy="1383.91" r="14.4" fill="#009af9" fill-rule="evenodd" fill-opacity="1" stroke="#000000" stroke-opacity="1" stroke-width="3.2"/>
<circle clip-path="url(#clip342)" cx="2148.62" cy="1383.7" r="14.4" fill="#009af9" fill-rule="evenodd" fill-opacity="1" stroke="#000000" stroke-opacity="1" stroke-width="3.2"/>
<circle clip-path="url(#clip342)" cx="2157.91" cy="1383.36" r="14.4" fill="#009af9" fill-rule="evenodd" fill-opacity="1" stroke="#000000" stroke-opacity="1" stroke-width="3.2"/>
<circle clip-path="url(#clip342)" cx="2167.21" cy="1382.83" r="14.4" fill="#009af9" fill-rule="evenodd" fill-opacity="1" stroke="#000000" stroke-opacity="1" stroke-width="3.2"/>
<circle clip-path="url(#clip342)" cx="2176.5" cy="1381.93" r="14.4" fill="#009af9" fill-rule="evenodd" fill-opacity="1" stroke="#000000" stroke-opacity="1" stroke-width="3.2"/>
<circle clip-path="url(#clip342)" cx="2185.79" cy="1380.45" r="14.4" fill="#009af9" fill-rule="evenodd" fill-opacity="1" stroke="#000000" stroke-opacity="1" stroke-width="3.2"/>
<circle clip-path="url(#clip342)" cx="2195.08" cy="1377.99" r="14.4" fill="#009af9" fill-rule="evenodd" fill-opacity="1" stroke="#000000" stroke-opacity="1" stroke-width="3.2"/>
<circle clip-path="url(#clip342)" cx="2204.37" cy="1374.21" r="14.4" fill="#009af9" fill-rule="evenodd" fill-opacity="1" stroke="#000000" stroke-opacity="1" stroke-width="3.2"/>
<circle clip-path="url(#clip342)" cx="2213.66" cy="1367.75" r="14.4" fill="#009af9" fill-rule="evenodd" fill-opacity="1" stroke="#000000" stroke-opacity="1" stroke-width="3.2"/>
<circle clip-path="url(#clip342)" cx="2222.95" cy="1357.93" r="14.4" fill="#009af9" fill-rule="evenodd" fill-opacity="1" stroke="#000000" stroke-opacity="1" stroke-width="3.2"/>
<circle clip-path="url(#clip342)" cx="2232.25" cy="1341.02" r="14.4" fill="#009af9" fill-rule="evenodd" fill-opacity="1" stroke="#000000" stroke-opacity="1" stroke-width="3.2"/>
<circle clip-path="url(#clip342)" cx="2241.54" cy="1313.04" r="14.4" fill="#009af9" fill-rule="evenodd" fill-opacity="1" stroke="#000000" stroke-opacity="1" stroke-width="3.2"/>
<circle clip-path="url(#clip342)" cx="2250.83" cy="1270.66" r="14.4" fill="#009af9" fill-rule="evenodd" fill-opacity="1" stroke="#000000" stroke-opacity="1" stroke-width="3.2"/>
<circle clip-path="url(#clip342)" cx="2260.12" cy="1196.12" r="14.4" fill="#009af9" fill-rule="evenodd" fill-opacity="1" stroke="#000000" stroke-opacity="1" stroke-width="3.2"/>
<circle clip-path="url(#clip342)" cx="2269.41" cy="1085.89" r="14.4" fill="#009af9" fill-rule="evenodd" fill-opacity="1" stroke="#000000" stroke-opacity="1" stroke-width="3.2"/>
<circle clip-path="url(#clip342)" cx="2278.7" cy="897.772" r="14.4" fill="#009af9" fill-rule="evenodd" fill-opacity="1" stroke="#000000" stroke-opacity="1" stroke-width="3.2"/>
<circle clip-path="url(#clip342)" cx="2287.99" cy="586.038" r="14.4" fill="#009af9" fill-rule="evenodd" fill-opacity="1" stroke="#000000" stroke-opacity="1" stroke-width="3.2"/>
<circle clip-path="url(#clip342)" cx="2297.29" cy="86.1857" r="14.4" fill="#009af9" fill-rule="evenodd" fill-opacity="1" stroke="#000000" stroke-opacity="1" stroke-width="3.2"/>
</svg>
