<?xml version="1.0" encoding="utf-8"?>
<svg xmlns="http://www.w3.org/2000/svg" xmlns:xlink="http://www.w3.org/1999/xlink" width="600" height="400" viewBox="0 0 2400 1600">
<defs>
  <clipPath id="clip370">
    <rect x="0" y="0" width="2400" height="1600"/>
  </clipPath>
</defs>
<path clip-path="url(#clip370)" d="
M0 1600 L2400 1600 L2400 0 L0 0  Z
  " fill="#ffffff" fill-rule="evenodd" fill-opacity="1"/>
<defs>
  <clipPath id="clip371">
    <rect x="480" y="0" width="1681" height="1600"/>
  </clipPath>
</defs>
<path clip-path="url(#clip370)" d="
M394.075 1423.18 L2352.76 1423.18 L2352.76 47.2441 L394.075 47.2441  Z
  " fill="#ffffff" fill-rule="evenodd" fill-opacity="1"/>
<defs>
  <clipPath id="clip372">
    <rect x="394" y="47" width="1960" height="1377"/>
  </clipPath>
</defs>
<polyline clip-path="url(#clip372)" style="stroke:#000000; stroke-linecap:round; stroke-linejoin:round; stroke-width:2; stroke-opacity:0.1; fill:none" points="
  440.224,1423.18 440.224,47.2441 
  "/>
<polyline clip-path="url(#clip372)" style="stroke:#000000; stroke-linecap:round; stroke-linejoin:round; stroke-width:2; stroke-opacity:0.1; fill:none" points="
  904.499,1423.18 904.499,47.2441 
  "/>
<polyline clip-path="url(#clip372)" style="stroke:#000000; stroke-linecap:round; stroke-linejoin:round; stroke-width:2; stroke-opacity:0.1; fill:none" points="
  1368.77,1423.18 1368.77,47.2441 
  "/>
<polyline clip-path="url(#clip372)" style="stroke:#000000; stroke-linecap:round; stroke-linejoin:round; stroke-width:2; stroke-opacity:0.1; fill:none" points="
  1833.05,1423.18 1833.05,47.2441 
  "/>
<polyline clip-path="url(#clip372)" style="stroke:#000000; stroke-linecap:round; stroke-linejoin:round; stroke-width:2; stroke-opacity:0.1; fill:none" points="
  2297.32,1423.18 2297.32,47.2441 
  "/>
<polyline clip-path="url(#clip370)" style="stroke:#000000; stroke-linecap:round; stroke-linejoin:round; stroke-width:4; stroke-opacity:1; fill:none" points="
  394.075,1423.18 2352.76,1423.18 
  "/>
<polyline clip-path="url(#clip370)" style="stroke:#000000; stroke-linecap:round; stroke-linejoin:round; stroke-width:4; stroke-opacity:1; fill:none" points="
  440.224,1423.18 440.224,1404.28 
  "/>
<polyline clip-path="url(#clip370)" style="stroke:#000000; stroke-linecap:round; stroke-linejoin:round; stroke-width:4; stroke-opacity:1; fill:none" points="
  904.499,1423.18 904.499,1404.28 
  "/>
<polyline clip-path="url(#clip370)" style="stroke:#000000; stroke-linecap:round; stroke-linejoin:round; stroke-width:4; stroke-opacity:1; fill:none" points="
  1368.77,1423.18 1368.77,1404.28 
  "/>
<polyline clip-path="url(#clip370)" style="stroke:#000000; stroke-linecap:round; stroke-linejoin:round; stroke-width:4; stroke-opacity:1; fill:none" points="
  1833.05,1423.18 1833.05,1404.28 
  "/>
<polyline clip-path="url(#clip370)" style="stroke:#000000; stroke-linecap:round; stroke-linejoin:round; stroke-width:4; stroke-opacity:1; fill:none" points="
  2297.32,1423.18 2297.32,1404.28 
  "/>
<path clip-path="url(#clip370)" d="M440.224 1454.1 Q436.613 1454.1 434.784 1457.66 Q432.979 1461.2 432.979 1468.33 Q432.979 1475.44 434.784 1479.01 Q436.613 1482.55 440.224 1482.55 Q443.859 1482.55 445.664 1479.01 Q447.493 1475.44 447.493 1468.33 Q447.493 1461.2 445.664 1457.66 Q443.859 1454.1 440.224 1454.1 M440.224 1450.39 Q446.034 1450.39 449.09 1455 Q452.169 1459.58 452.169 1468.33 Q452.169 1477.06 449.09 1481.67 Q446.034 1486.25 440.224 1486.25 Q434.414 1486.25 431.335 1481.67 Q428.28 1477.06 428.28 1468.33 Q428.28 1459.58 431.335 1455 Q434.414 1450.39 440.224 1450.39 Z" fill="#000000" fill-rule="evenodd" fill-opacity="1" /><path clip-path="url(#clip370)" d="M879.198 1451.02 L897.554 1451.02 L897.554 1454.96 L883.48 1454.96 L883.48 1463.43 Q884.499 1463.08 885.517 1462.92 Q886.536 1462.73 887.554 1462.73 Q893.341 1462.73 896.721 1465.9 Q900.1 1469.08 900.1 1474.49 Q900.1 1480.07 896.628 1483.17 Q893.156 1486.25 886.837 1486.25 Q884.661 1486.25 882.392 1485.88 Q880.147 1485.51 877.739 1484.77 L877.739 1480.07 Q879.823 1481.2 882.045 1481.76 Q884.267 1482.32 886.744 1482.32 Q890.749 1482.32 893.087 1480.21 Q895.425 1478.1 895.425 1474.49 Q895.425 1470.88 893.087 1468.77 Q890.749 1466.67 886.744 1466.67 Q884.869 1466.67 882.994 1467.08 Q881.142 1467.5 879.198 1468.38 L879.198 1451.02 Z" fill="#000000" fill-rule="evenodd" fill-opacity="1" /><path clip-path="url(#clip370)" d="M919.313 1454.1 Q915.702 1454.1 913.874 1457.66 Q912.068 1461.2 912.068 1468.33 Q912.068 1475.44 913.874 1479.01 Q915.702 1482.55 919.313 1482.55 Q922.948 1482.55 924.753 1479.01 Q926.582 1475.44 926.582 1468.33 Q926.582 1461.2 924.753 1457.66 Q922.948 1454.1 919.313 1454.1 M919.313 1450.39 Q925.123 1450.39 928.179 1455 Q931.258 1459.58 931.258 1468.33 Q931.258 1477.06 928.179 1481.67 Q925.123 1486.25 919.313 1486.25 Q913.503 1486.25 910.424 1481.67 Q907.369 1477.06 907.369 1468.33 Q907.369 1459.58 910.424 1455 Q913.503 1450.39 919.313 1450.39 Z" fill="#000000" fill-rule="evenodd" fill-opacity="1" /><path clip-path="url(#clip370)" d="M1328.38 1481.64 L1336.02 1481.64 L1336.02 1455.28 L1327.71 1456.95 L1327.71 1452.69 L1335.97 1451.02 L1340.65 1451.02 L1340.65 1481.64 L1348.29 1481.64 L1348.29 1485.58 L1328.38 1485.58 L1328.38 1481.64 Z" fill="#000000" fill-rule="evenodd" fill-opacity="1" /><path clip-path="url(#clip370)" d="M1367.73 1454.1 Q1364.12 1454.1 1362.29 1457.66 Q1360.49 1461.2 1360.49 1468.33 Q1360.49 1475.44 1362.29 1479.01 Q1364.12 1482.55 1367.73 1482.55 Q1371.37 1482.55 1373.17 1479.01 Q1375 1475.44 1375 1468.33 Q1375 1461.2 1373.17 1457.66 Q1371.37 1454.1 1367.73 1454.1 M1367.73 1450.39 Q1373.54 1450.39 1376.6 1455 Q1379.68 1459.58 1379.68 1468.33 Q1379.68 1477.06 1376.6 1481.67 Q1373.54 1486.25 1367.73 1486.25 Q1361.92 1486.25 1358.84 1481.67 Q1355.79 1477.06 1355.79 1468.33 Q1355.79 1459.58 1358.84 1455 Q1361.92 1450.39 1367.73 1450.39 Z" fill="#000000" fill-rule="evenodd" fill-opacity="1" /><path clip-path="url(#clip370)" d="M1397.89 1454.1 Q1394.28 1454.1 1392.45 1457.66 Q1390.65 1461.2 1390.65 1468.33 Q1390.65 1475.44 1392.45 1479.01 Q1394.28 1482.55 1397.89 1482.55 Q1401.53 1482.55 1403.33 1479.01 Q1405.16 1475.44 1405.16 1468.33 Q1405.16 1461.2 1403.33 1457.66 Q1401.53 1454.1 1397.89 1454.1 M1397.89 1450.39 Q1403.7 1450.39 1406.76 1455 Q1409.84 1459.58 1409.84 1468.33 Q1409.84 1477.06 1406.76 1481.67 Q1403.7 1486.25 1397.89 1486.25 Q1392.08 1486.25 1389 1481.67 Q1385.95 1477.06 1385.95 1468.33 Q1385.95 1459.58 1389 1455 Q1392.08 1450.39 1397.89 1450.39 Z" fill="#000000" fill-rule="evenodd" fill-opacity="1" /><path clip-path="url(#clip370)" d="M1792.65 1481.64 L1800.29 1481.64 L1800.29 1455.28 L1791.98 1456.95 L1791.98 1452.69 L1800.25 1451.02 L1804.92 1451.02 L1804.92 1481.64 L1812.56 1481.64 L1812.56 1485.58 L1792.65 1485.58 L1792.65 1481.64 Z" fill="#000000" fill-rule="evenodd" fill-opacity="1" /><path clip-path="url(#clip370)" d="M1822.05 1451.02 L1840.41 1451.02 L1840.41 1454.96 L1826.33 1454.96 L1826.33 1463.43 Q1827.35 1463.08 1828.37 1462.92 Q1829.39 1462.73 1830.41 1462.73 Q1836.2 1462.73 1839.57 1465.9 Q1842.95 1469.08 1842.95 1474.49 Q1842.95 1480.07 1839.48 1483.17 Q1836.01 1486.25 1829.69 1486.25 Q1827.51 1486.25 1825.25 1485.88 Q1823 1485.51 1820.59 1484.77 L1820.59 1480.07 Q1822.68 1481.2 1824.9 1481.76 Q1827.12 1482.32 1829.6 1482.32 Q1833.6 1482.32 1835.94 1480.21 Q1838.28 1478.1 1838.28 1474.49 Q1838.28 1470.88 1835.94 1468.77 Q1833.6 1466.67 1829.6 1466.67 Q1827.72 1466.67 1825.85 1467.08 Q1824 1467.5 1822.05 1468.38 L1822.05 1451.02 Z" fill="#000000" fill-rule="evenodd" fill-opacity="1" /><path clip-path="url(#clip370)" d="M1862.17 1454.1 Q1858.56 1454.1 1856.73 1457.66 Q1854.92 1461.2 1854.92 1468.33 Q1854.92 1475.44 1856.73 1479.01 Q1858.56 1482.55 1862.17 1482.55 Q1865.8 1482.55 1867.61 1479.01 Q1869.44 1475.44 1869.44 1468.33 Q1869.44 1461.2 1867.61 1457.66 Q1865.8 1454.1 1862.17 1454.1 M1862.17 1450.39 Q1867.98 1450.39 1871.03 1455 Q1874.11 1459.58 1874.11 1468.33 Q1874.11 1477.06 1871.03 1481.67 Q1867.98 1486.25 1862.17 1486.25 Q1856.36 1486.25 1853.28 1481.67 Q1850.22 1477.06 1850.22 1468.33 Q1850.22 1459.58 1853.28 1455 Q1856.36 1450.39 1862.17 1450.39 Z" fill="#000000" fill-rule="evenodd" fill-opacity="1" /><path clip-path="url(#clip370)" d="M2261.01 1481.64 L2277.33 1481.64 L2277.33 1485.58 L2255.39 1485.58 L2255.39 1481.64 Q2258.05 1478.89 2262.63 1474.26 Q2267.24 1469.61 2268.42 1468.27 Q2270.67 1465.74 2271.55 1464.01 Q2272.45 1462.25 2272.45 1460.56 Q2272.45 1457.8 2270.5 1456.07 Q2268.58 1454.33 2265.48 1454.33 Q2263.28 1454.33 2260.83 1455.09 Q2258.4 1455.86 2255.62 1457.41 L2255.62 1452.69 Q2258.44 1451.55 2260.9 1450.97 Q2263.35 1450.39 2265.39 1450.39 Q2270.76 1450.39 2273.95 1453.08 Q2277.15 1455.77 2277.15 1460.26 Q2277.15 1462.39 2276.34 1464.31 Q2275.55 1466.2 2273.44 1468.8 Q2272.87 1469.47 2269.76 1472.69 Q2266.66 1475.88 2261.01 1481.64 Z" fill="#000000" fill-rule="evenodd" fill-opacity="1" /><path clip-path="url(#clip370)" d="M2297.15 1454.1 Q2293.54 1454.1 2291.71 1457.66 Q2289.9 1461.2 2289.9 1468.33 Q2289.9 1475.44 2291.71 1479.01 Q2293.54 1482.55 2297.15 1482.55 Q2300.78 1482.55 2302.59 1479.01 Q2304.42 1475.44 2304.42 1468.33 Q2304.42 1461.2 2302.59 1457.66 Q2300.78 1454.1 2297.15 1454.1 M2297.15 1450.39 Q2302.96 1450.39 2306.01 1455 Q2309.09 1459.58 2309.09 1468.33 Q2309.09 1477.06 2306.01 1481.67 Q2302.96 1486.25 2297.15 1486.25 Q2291.34 1486.25 2288.26 1481.67 Q2285.2 1477.06 2285.2 1468.33 Q2285.2 1459.58 2288.26 1455 Q2291.34 1450.39 2297.15 1450.39 Z" fill="#000000" fill-rule="evenodd" fill-opacity="1" /><path clip-path="url(#clip370)" d="M2327.31 1454.1 Q2323.7 1454.1 2321.87 1457.66 Q2320.06 1461.2 2320.06 1468.33 Q2320.06 1475.44 2321.87 1479.01 Q2323.7 1482.55 2327.31 1482.55 Q2330.94 1482.55 2332.75 1479.01 Q2334.58 1475.44 2334.58 1468.33 Q2334.58 1461.2 2332.75 1457.66 Q2330.94 1454.1 2327.31 1454.1 M2327.31 1450.39 Q2333.12 1450.39 2336.18 1455 Q2339.25 1459.58 2339.25 1468.33 Q2339.25 1477.06 2336.18 1481.67 Q2333.12 1486.25 2327.31 1486.25 Q2321.5 1486.25 2318.42 1481.67 Q2315.37 1477.06 2315.37 1468.33 Q2315.37 1459.58 2318.42 1455 Q2321.5 1450.39 2327.31 1450.39 Z" fill="#000000" fill-rule="evenodd" fill-opacity="1" /><path clip-path="url(#clip370)" d="M1388.34 1546.53 L1388.34 1568.04 L1382.49 1568.04 L1382.49 1546.72 Q1382.49 1541.66 1380.51 1539.14 Q1378.54 1536.63 1374.59 1536.63 Q1369.85 1536.63 1367.11 1539.65 Q1364.38 1542.68 1364.38 1547.9 L1364.38 1568.04 L1358.49 1568.04 L1358.49 1532.4 L1364.38 1532.4 L1364.38 1537.93 Q1366.48 1534.72 1369.31 1533.13 Q1372.17 1531.54 1375.9 1531.54 Q1382.04 1531.54 1385.19 1535.36 Q1388.34 1539.14 1388.34 1546.53 Z" fill="#000000" fill-rule="evenodd" fill-opacity="1" /><polyline clip-path="url(#clip372)" style="stroke:#000000; stroke-linecap:round; stroke-linejoin:round; stroke-width:2; stroke-opacity:0.1; fill:none" points="
  394.075,1384.24 2352.76,1384.24 
  "/>
<polyline clip-path="url(#clip372)" style="stroke:#000000; stroke-linecap:round; stroke-linejoin:round; stroke-width:2; stroke-opacity:0.1; fill:none" points="
  394.075,1190.07 2352.76,1190.07 
  "/>
<polyline clip-path="url(#clip372)" style="stroke:#000000; stroke-linecap:round; stroke-linejoin:round; stroke-width:2; stroke-opacity:0.1; fill:none" points="
  394.075,995.9 2352.76,995.9 
  "/>
<polyline clip-path="url(#clip372)" style="stroke:#000000; stroke-linecap:round; stroke-linejoin:round; stroke-width:2; stroke-opacity:0.1; fill:none" points="
  394.075,801.73 2352.76,801.73 
  "/>
<polyline clip-path="url(#clip372)" style="stroke:#000000; stroke-linecap:round; stroke-linejoin:round; stroke-width:2; stroke-opacity:0.1; fill:none" points="
  394.075,607.561 2352.76,607.561 
  "/>
<polyline clip-path="url(#clip372)" style="stroke:#000000; stroke-linecap:round; stroke-linejoin:round; stroke-width:2; stroke-opacity:0.1; fill:none" points="
  394.075,413.391 2352.76,413.391 
  "/>
<polyline clip-path="url(#clip372)" style="stroke:#000000; stroke-linecap:round; stroke-linejoin:round; stroke-width:2; stroke-opacity:0.1; fill:none" points="
  394.075,219.222 2352.76,219.222 
  "/>
<polyline clip-path="url(#clip370)" style="stroke:#000000; stroke-linecap:round; stroke-linejoin:round; stroke-width:4; stroke-opacity:1; fill:none" points="
  394.075,1423.18 394.075,47.2441 
  "/>
<polyline clip-path="url(#clip370)" style="stroke:#000000; stroke-linecap:round; stroke-linejoin:round; stroke-width:4; stroke-opacity:1; fill:none" points="
  394.075,1384.24 412.973,1384.24 
  "/>
<polyline clip-path="url(#clip370)" style="stroke:#000000; stroke-linecap:round; stroke-linejoin:round; stroke-width:4; stroke-opacity:1; fill:none" points="
  394.075,1190.07 412.973,1190.07 
  "/>
<polyline clip-path="url(#clip370)" style="stroke:#000000; stroke-linecap:round; stroke-linejoin:round; stroke-width:4; stroke-opacity:1; fill:none" points="
  394.075,995.9 412.973,995.9 
  "/>
<polyline clip-path="url(#clip370)" style="stroke:#000000; stroke-linecap:round; stroke-linejoin:round; stroke-width:4; stroke-opacity:1; fill:none" points="
  394.075,801.73 412.973,801.73 
  "/>
<polyline clip-path="url(#clip370)" style="stroke:#000000; stroke-linecap:round; stroke-linejoin:round; stroke-width:4; stroke-opacity:1; fill:none" points="
  394.075,607.561 412.973,607.561 
  "/>
<polyline clip-path="url(#clip370)" style="stroke:#000000; stroke-linecap:round; stroke-linejoin:round; stroke-width:4; stroke-opacity:1; fill:none" points="
  394.075,413.391 412.973,413.391 
  "/>
<polyline clip-path="url(#clip370)" style="stroke:#000000; stroke-linecap:round; stroke-linejoin:round; stroke-width:4; stroke-opacity:1; fill:none" points="
  394.075,219.222 412.973,219.222 
  "/>
<path clip-path="url(#clip370)" d="M346.131 1370.04 Q342.52 1370.04 340.691 1373.6 Q338.886 1377.14 338.886 1384.27 Q338.886 1391.38 340.691 1394.94 Q342.52 1398.49 346.131 1398.49 Q349.765 1398.49 351.571 1394.94 Q353.4 1391.38 353.4 1384.27 Q353.4 1377.14 351.571 1373.6 Q349.765 1370.04 346.131 1370.04 M346.131 1366.33 Q351.941 1366.33 354.997 1370.94 Q358.075 1375.52 358.075 1384.27 Q358.075 1393 354.997 1397.61 Q351.941 1402.19 346.131 1402.19 Q340.321 1402.19 337.242 1397.61 Q334.187 1393 334.187 1384.27 Q334.187 1375.52 337.242 1370.94 Q340.321 1366.33 346.131 1366.33 Z" fill="#000000" fill-rule="evenodd" fill-opacity="1" /><path clip-path="url(#clip370)" d="M117.825 1209.86 L125.464 1209.86 L125.464 1183.5 L117.154 1185.16 L117.154 1180.9 L125.418 1179.24 L130.093 1179.24 L130.093 1209.86 L137.732 1209.86 L137.732 1213.8 L117.825 1213.8 L117.825 1209.86 Z" fill="#000000" fill-rule="evenodd" fill-opacity="1" /><path clip-path="url(#clip370)" d="M147.177 1207.92 L152.061 1207.92 L152.061 1213.8 L147.177 1213.8 L147.177 1207.92 Z" fill="#000000" fill-rule="evenodd" fill-opacity="1" /><path clip-path="url(#clip370)" d="M172.246 1182.32 Q168.635 1182.32 166.806 1185.88 Q165.001 1189.42 165.001 1196.55 Q165.001 1203.66 166.806 1207.22 Q168.635 1210.76 172.246 1210.76 Q175.88 1210.76 177.686 1207.22 Q179.514 1203.66 179.514 1196.55 Q179.514 1189.42 177.686 1185.88 Q175.88 1182.32 172.246 1182.32 M172.246 1178.61 Q178.056 1178.61 181.112 1183.22 Q184.19 1187.8 184.19 1196.55 Q184.19 1205.28 181.112 1209.88 Q178.056 1214.47 172.246 1214.47 Q166.436 1214.47 163.357 1209.88 Q160.302 1205.28 160.302 1196.55 Q160.302 1187.8 163.357 1183.22 Q166.436 1178.61 172.246 1178.61 Z" fill="#000000" fill-rule="evenodd" fill-opacity="1" /><path clip-path="url(#clip370)" d="M220.579 1188.33 L210 1198.96 L220.579 1209.54 L217.824 1212.34 L207.199 1201.71 L196.575 1212.34 L193.843 1209.54 L204.399 1198.96 L193.843 1188.33 L196.575 1185.53 L207.199 1196.16 L217.824 1185.53 L220.579 1188.33 Z" fill="#000000" fill-rule="evenodd" fill-opacity="1" /><path clip-path="url(#clip370)" d="M232.94 1209.86 L240.579 1209.86 L240.579 1183.5 L232.269 1185.16 L232.269 1180.9 L240.533 1179.24 L245.209 1179.24 L245.209 1209.86 L252.847 1209.86 L252.847 1213.8 L232.94 1213.8 L232.94 1209.86 Z" fill="#000000" fill-rule="evenodd" fill-opacity="1" /><path clip-path="url(#clip370)" d="M272.292 1182.32 Q268.681 1182.32 266.852 1185.88 Q265.046 1189.42 265.046 1196.55 Q265.046 1203.66 266.852 1207.22 Q268.681 1210.76 272.292 1210.76 Q275.926 1210.76 277.732 1207.22 Q279.56 1203.66 279.56 1196.55 Q279.56 1189.42 277.732 1185.88 Q275.926 1182.32 272.292 1182.32 M272.292 1178.61 Q278.102 1178.61 281.157 1183.22 Q284.236 1187.8 284.236 1196.55 Q284.236 1205.28 281.157 1209.88 Q278.102 1214.47 272.292 1214.47 Q266.482 1214.47 263.403 1209.88 Q260.347 1205.28 260.347 1196.55 Q260.347 1187.8 263.403 1183.22 Q266.482 1178.61 272.292 1178.61 Z" fill="#000000" fill-rule="evenodd" fill-opacity="1" /><path clip-path="url(#clip370)" d="M284.236 1172.71 L308.348 1172.71 L308.348 1175.91 L284.236 1175.91 L284.236 1172.71 Z" fill="#000000" fill-rule="evenodd" fill-opacity="1" /><path clip-path="url(#clip370)" d="M317.206 1183.19 L323.413 1183.19 L323.413 1161.77 L316.661 1163.12 L316.661 1159.66 L323.375 1158.31 L327.174 1158.31 L327.174 1183.19 L333.381 1183.19 L333.381 1186.39 L317.206 1186.39 L317.206 1183.19 Z" fill="#000000" fill-rule="evenodd" fill-opacity="1" /><path clip-path="url(#clip370)" d="M341.092 1158.31 L356.007 1158.31 L356.007 1161.5 L344.571 1161.5 L344.571 1168.39 Q345.399 1168.1 346.227 1167.97 Q347.054 1167.82 347.882 1167.82 Q352.584 1167.82 355.329 1170.4 Q358.075 1172.98 358.075 1177.38 Q358.075 1181.91 355.254 1184.43 Q352.433 1186.93 347.299 1186.93 Q345.531 1186.93 343.687 1186.63 Q341.863 1186.33 339.907 1185.73 L339.907 1181.91 Q341.6 1182.83 343.405 1183.28 Q345.211 1183.73 347.223 1183.73 Q350.477 1183.73 352.377 1182.02 Q354.276 1180.31 354.276 1177.38 Q354.276 1174.44 352.377 1172.73 Q350.477 1171.02 347.223 1171.02 Q345.7 1171.02 344.176 1171.36 Q342.672 1171.7 341.092 1172.41 L341.092 1158.31 Z" fill="#000000" fill-rule="evenodd" fill-opacity="1" /><path clip-path="url(#clip370)" d="M121.043 1015.69 L137.362 1015.69 L137.362 1019.63 L115.418 1019.63 L115.418 1015.69 Q118.08 1012.94 122.663 1008.31 Q127.269 1003.66 128.45 1002.31 Q130.695 999.789 131.575 998.053 Q132.478 996.294 132.478 994.604 Q132.478 991.85 130.533 990.113 Q128.612 988.377 125.51 988.377 Q123.311 988.377 120.857 989.141 Q118.427 989.905 115.649 991.456 L115.649 986.734 Q118.473 985.6 120.927 985.021 Q123.38 984.442 125.418 984.442 Q130.788 984.442 133.982 987.127 Q137.177 989.813 137.177 994.303 Q137.177 996.433 136.367 998.354 Q135.579 1000.25 133.473 1002.84 Q132.894 1003.52 129.792 1006.73 Q126.691 1009.93 121.043 1015.69 Z" fill="#000000" fill-rule="evenodd" fill-opacity="1" /><path clip-path="url(#clip370)" d="M147.177 1013.75 L152.061 1013.75 L152.061 1019.63 L147.177 1019.63 L147.177 1013.75 Z" fill="#000000" fill-rule="evenodd" fill-opacity="1" /><path clip-path="url(#clip370)" d="M172.246 988.146 Q168.635 988.146 166.806 991.711 Q165.001 995.252 165.001 1002.38 Q165.001 1009.49 166.806 1013.05 Q168.635 1016.59 172.246 1016.59 Q175.88 1016.59 177.686 1013.05 Q179.514 1009.49 179.514 1002.38 Q179.514 995.252 177.686 991.711 Q175.88 988.146 172.246 988.146 M172.246 984.442 Q178.056 984.442 181.112 989.049 Q184.19 993.632 184.19 1002.38 Q184.19 1011.11 181.112 1015.72 Q178.056 1020.3 172.246 1020.3 Q166.436 1020.3 163.357 1015.72 Q160.302 1011.11 160.302 1002.38 Q160.302 993.632 163.357 989.049 Q166.436 984.442 172.246 984.442 Z" fill="#000000" fill-rule="evenodd" fill-opacity="1" /><path clip-path="url(#clip370)" d="M220.579 994.164 L210 1004.79 L220.579 1015.37 L217.824 1018.17 L207.199 1007.54 L196.575 1018.17 L193.843 1015.37 L204.399 1004.79 L193.843 994.164 L196.575 991.363 L207.199 1001.99 L217.824 991.363 L220.579 994.164 Z" fill="#000000" fill-rule="evenodd" fill-opacity="1" /><path clip-path="url(#clip370)" d="M232.94 1015.69 L240.579 1015.69 L240.579 989.326 L232.269 990.993 L232.269 986.734 L240.533 985.067 L245.209 985.067 L245.209 1015.69 L252.847 1015.69 L252.847 1019.63 L232.94 1019.63 L232.94 1015.69 Z" fill="#000000" fill-rule="evenodd" fill-opacity="1" /><path clip-path="url(#clip370)" d="M272.292 988.146 Q268.681 988.146 266.852 991.711 Q265.046 995.252 265.046 1002.38 Q265.046 1009.49 266.852 1013.05 Q268.681 1016.59 272.292 1016.59 Q275.926 1016.59 277.732 1013.05 Q279.56 1009.49 279.56 1002.38 Q279.56 995.252 277.732 991.711 Q275.926 988.146 272.292 988.146 M272.292 984.442 Q278.102 984.442 281.157 989.049 Q284.236 993.632 284.236 1002.38 Q284.236 1011.11 281.157 1015.72 Q278.102 1020.3 272.292 1020.3 Q266.482 1020.3 263.403 1015.72 Q260.347 1011.11 260.347 1002.38 Q260.347 993.632 263.403 989.049 Q266.482 984.442 272.292 984.442 Z" fill="#000000" fill-rule="evenodd" fill-opacity="1" /><path clip-path="url(#clip370)" d="M284.236 978.544 L308.348 978.544 L308.348 981.741 L284.236 981.741 L284.236 978.544 Z" fill="#000000" fill-rule="evenodd" fill-opacity="1" /><path clip-path="url(#clip370)" d="M317.206 989.019 L323.413 989.019 L323.413 967.597 L316.661 968.952 L316.661 965.491 L323.375 964.137 L327.174 964.137 L327.174 989.019 L333.381 989.019 L333.381 992.217 L317.206 992.217 L317.206 989.019 Z" fill="#000000" fill-rule="evenodd" fill-opacity="1" /><path clip-path="url(#clip370)" d="M341.092 964.137 L356.007 964.137 L356.007 967.334 L344.571 967.334 L344.571 974.218 Q345.399 973.936 346.227 973.804 Q347.054 973.653 347.882 973.653 Q352.584 973.653 355.329 976.23 Q358.075 978.807 358.075 983.208 Q358.075 987.741 355.254 990.261 Q352.433 992.762 347.299 992.762 Q345.531 992.762 343.687 992.461 Q341.863 992.16 339.907 991.558 L339.907 987.741 Q341.6 988.662 343.405 989.113 Q345.211 989.565 347.223 989.565 Q350.477 989.565 352.377 987.853 Q354.276 986.142 354.276 983.208 Q354.276 980.274 352.377 978.562 Q350.477 976.851 347.223 976.851 Q345.7 976.851 344.176 977.189 Q342.672 977.528 341.092 978.243 L341.092 964.137 Z" fill="#000000" fill-rule="evenodd" fill-opacity="1" /><path clip-path="url(#clip370)" d="M131.181 806.824 Q134.538 807.541 136.413 809.81 Q138.311 812.078 138.311 815.412 Q138.311 820.527 134.792 823.328 Q131.274 826.129 124.793 826.129 Q122.617 826.129 120.302 825.689 Q118.01 825.273 115.556 824.416 L115.556 819.902 Q117.501 821.037 119.816 821.615 Q122.13 822.194 124.654 822.194 Q129.052 822.194 131.343 820.458 Q133.658 818.722 133.658 815.412 Q133.658 812.356 131.505 810.643 Q129.376 808.907 125.556 808.907 L121.529 808.907 L121.529 805.064 L125.742 805.064 Q129.191 805.064 131.019 803.699 Q132.848 802.31 132.848 799.717 Q132.848 797.055 130.95 795.643 Q129.075 794.208 125.556 794.208 Q123.635 794.208 121.436 794.625 Q119.237 795.041 116.598 795.921 L116.598 791.754 Q119.26 791.014 121.575 790.643 Q123.913 790.273 125.973 790.273 Q131.297 790.273 134.399 792.703 Q137.501 795.111 137.501 799.231 Q137.501 802.101 135.857 804.092 Q134.214 806.06 131.181 806.824 Z" fill="#000000" fill-rule="evenodd" fill-opacity="1" /><path clip-path="url(#clip370)" d="M147.177 819.578 L152.061 819.578 L152.061 825.458 L147.177 825.458 L147.177 819.578 Z" fill="#000000" fill-rule="evenodd" fill-opacity="1" /><path clip-path="url(#clip370)" d="M172.246 793.976 Q168.635 793.976 166.806 797.541 Q165.001 801.083 165.001 808.213 Q165.001 815.319 166.806 818.884 Q168.635 822.425 172.246 822.425 Q175.88 822.425 177.686 818.884 Q179.514 815.319 179.514 808.213 Q179.514 801.083 177.686 797.541 Q175.88 793.976 172.246 793.976 M172.246 790.273 Q178.056 790.273 181.112 794.879 Q184.19 799.463 184.19 808.213 Q184.19 816.939 181.112 821.546 Q178.056 826.129 172.246 826.129 Q166.436 826.129 163.357 821.546 Q160.302 816.939 160.302 808.213 Q160.302 799.463 163.357 794.879 Q166.436 790.273 172.246 790.273 Z" fill="#000000" fill-rule="evenodd" fill-opacity="1" /><path clip-path="url(#clip370)" d="M220.579 799.995 L210 810.62 L220.579 821.199 L217.824 823.999 L207.199 813.375 L196.575 823.999 L193.843 821.199 L204.399 810.62 L193.843 799.995 L196.575 797.194 L207.199 807.819 L217.824 797.194 L220.579 799.995 Z" fill="#000000" fill-rule="evenodd" fill-opacity="1" /><path clip-path="url(#clip370)" d="M232.94 821.523 L240.579 821.523 L240.579 795.157 L232.269 796.824 L232.269 792.564 L240.533 790.898 L245.209 790.898 L245.209 821.523 L252.847 821.523 L252.847 825.458 L232.94 825.458 L232.94 821.523 Z" fill="#000000" fill-rule="evenodd" fill-opacity="1" /><path clip-path="url(#clip370)" d="M272.292 793.976 Q268.681 793.976 266.852 797.541 Q265.046 801.083 265.046 808.213 Q265.046 815.319 266.852 818.884 Q268.681 822.425 272.292 822.425 Q275.926 822.425 277.732 818.884 Q279.56 815.319 279.56 808.213 Q279.56 801.083 277.732 797.541 Q275.926 793.976 272.292 793.976 M272.292 790.273 Q278.102 790.273 281.157 794.879 Q284.236 799.463 284.236 808.213 Q284.236 816.939 281.157 821.546 Q278.102 826.129 272.292 826.129 Q266.482 826.129 263.403 821.546 Q260.347 816.939 260.347 808.213 Q260.347 799.463 263.403 794.879 Q266.482 790.273 272.292 790.273 Z" fill="#000000" fill-rule="evenodd" fill-opacity="1" /><path clip-path="url(#clip370)" d="M284.236 784.374 L308.348 784.374 L308.348 787.571 L284.236 787.571 L284.236 784.374 Z" fill="#000000" fill-rule="evenodd" fill-opacity="1" /><path clip-path="url(#clip370)" d="M317.206 794.85 L323.413 794.85 L323.413 773.428 L316.661 774.782 L316.661 771.322 L323.375 769.967 L327.174 769.967 L327.174 794.85 L333.381 794.85 L333.381 798.047 L317.206 798.047 L317.206 794.85 Z" fill="#000000" fill-rule="evenodd" fill-opacity="1" /><path clip-path="url(#clip370)" d="M341.092 769.967 L356.007 769.967 L356.007 773.165 L344.571 773.165 L344.571 780.048 Q345.399 779.766 346.227 779.635 Q347.054 779.484 347.882 779.484 Q352.584 779.484 355.329 782.061 Q358.075 784.637 358.075 789.038 Q358.075 793.571 355.254 796.091 Q352.433 798.593 347.299 798.593 Q345.531 798.593 343.687 798.292 Q341.863 797.991 339.907 797.389 L339.907 793.571 Q341.6 794.493 343.405 794.944 Q345.211 795.396 347.223 795.396 Q350.477 795.396 352.377 793.684 Q354.276 791.972 354.276 789.038 Q354.276 786.104 352.377 784.393 Q350.477 782.681 347.223 782.681 Q345.7 782.681 344.176 783.02 Q342.672 783.359 341.092 784.073 L341.092 769.967 Z" fill="#000000" fill-rule="evenodd" fill-opacity="1" /><path clip-path="url(#clip370)" d="M129.862 600.802 L118.056 619.251 L129.862 619.251 L129.862 600.802 M128.635 596.728 L134.515 596.728 L134.515 619.251 L139.445 619.251 L139.445 623.14 L134.515 623.14 L134.515 631.288 L129.862 631.288 L129.862 623.14 L114.26 623.14 L114.26 618.626 L128.635 596.728 Z" fill="#000000" fill-rule="evenodd" fill-opacity="1" /><path clip-path="url(#clip370)" d="M147.177 625.409 L152.061 625.409 L152.061 631.288 L147.177 631.288 L147.177 625.409 Z" fill="#000000" fill-rule="evenodd" fill-opacity="1" /><path clip-path="url(#clip370)" d="M172.246 599.807 Q168.635 599.807 166.806 603.372 Q165.001 606.914 165.001 614.043 Q165.001 621.15 166.806 624.714 Q168.635 628.256 172.246 628.256 Q175.88 628.256 177.686 624.714 Q179.514 621.15 179.514 614.043 Q179.514 606.914 177.686 603.372 Q175.88 599.807 172.246 599.807 M172.246 596.103 Q178.056 596.103 181.112 600.71 Q184.19 605.293 184.19 614.043 Q184.19 622.77 181.112 627.376 Q178.056 631.96 172.246 631.96 Q166.436 631.96 163.357 627.376 Q160.302 622.77 160.302 614.043 Q160.302 605.293 163.357 600.71 Q166.436 596.103 172.246 596.103 Z" fill="#000000" fill-rule="evenodd" fill-opacity="1" /><path clip-path="url(#clip370)" d="M220.579 605.826 L210 616.451 L220.579 627.029 L217.824 629.83 L207.199 619.205 L196.575 629.83 L193.843 627.029 L204.399 616.451 L193.843 605.826 L196.575 603.025 L207.199 613.65 L217.824 603.025 L220.579 605.826 Z" fill="#000000" fill-rule="evenodd" fill-opacity="1" /><path clip-path="url(#clip370)" d="M232.94 627.353 L240.579 627.353 L240.579 600.988 L232.269 602.654 L232.269 598.395 L240.533 596.728 L245.209 596.728 L245.209 627.353 L252.847 627.353 L252.847 631.288 L232.94 631.288 L232.94 627.353 Z" fill="#000000" fill-rule="evenodd" fill-opacity="1" /><path clip-path="url(#clip370)" d="M272.292 599.807 Q268.681 599.807 266.852 603.372 Q265.046 606.914 265.046 614.043 Q265.046 621.15 266.852 624.714 Q268.681 628.256 272.292 628.256 Q275.926 628.256 277.732 624.714 Q279.56 621.15 279.56 614.043 Q279.56 606.914 277.732 603.372 Q275.926 599.807 272.292 599.807 M272.292 596.103 Q278.102 596.103 281.157 600.71 Q284.236 605.293 284.236 614.043 Q284.236 622.77 281.157 627.376 Q278.102 631.96 272.292 631.96 Q266.482 631.96 263.403 627.376 Q260.347 622.77 260.347 614.043 Q260.347 605.293 263.403 600.71 Q266.482 596.103 272.292 596.103 Z" fill="#000000" fill-rule="evenodd" fill-opacity="1" /><path clip-path="url(#clip370)" d="M284.236 590.205 L308.348 590.205 L308.348 593.402 L284.236 593.402 L284.236 590.205 Z" fill="#000000" fill-rule="evenodd" fill-opacity="1" /><path clip-path="url(#clip370)" d="M317.206 600.681 L323.413 600.681 L323.413 579.259 L316.661 580.613 L316.661 577.152 L323.375 575.798 L327.174 575.798 L327.174 600.681 L333.381 600.681 L333.381 603.878 L317.206 603.878 L317.206 600.681 Z" fill="#000000" fill-rule="evenodd" fill-opacity="1" /><path clip-path="url(#clip370)" d="M341.092 575.798 L356.007 575.798 L356.007 578.995 L344.571 578.995 L344.571 585.879 Q345.399 585.597 346.227 585.465 Q347.054 585.315 347.882 585.315 Q352.584 585.315 355.329 587.891 Q358.075 590.468 358.075 594.869 Q358.075 599.402 355.254 601.922 Q352.433 604.423 347.299 604.423 Q345.531 604.423 343.687 604.123 Q341.863 603.822 339.907 603.22 L339.907 599.402 Q341.6 600.323 343.405 600.775 Q345.211 601.226 347.223 601.226 Q350.477 601.226 352.377 599.515 Q354.276 597.803 354.276 594.869 Q354.276 591.935 352.377 590.224 Q350.477 588.512 347.223 588.512 Q345.7 588.512 344.176 588.851 Q342.672 589.189 341.092 589.904 L341.092 575.798 Z" fill="#000000" fill-rule="evenodd" fill-opacity="1" /><path clip-path="url(#clip370)" d="M117.061 402.559 L135.417 402.559 L135.417 406.494 L121.343 406.494 L121.343 414.966 Q122.362 414.619 123.38 414.457 Q124.399 414.272 125.418 414.272 Q131.205 414.272 134.584 417.443 Q137.964 420.615 137.964 426.031 Q137.964 431.61 134.492 434.712 Q131.019 437.79 124.7 437.79 Q122.524 437.79 120.255 437.42 Q118.01 437.05 115.603 436.309 L115.603 431.61 Q117.686 432.744 119.908 433.3 Q122.13 433.855 124.607 433.855 Q128.612 433.855 130.95 431.749 Q133.288 429.642 133.288 426.031 Q133.288 422.42 130.95 420.314 Q128.612 418.207 124.607 418.207 Q122.732 418.207 120.857 418.624 Q119.006 419.04 117.061 419.92 L117.061 402.559 Z" fill="#000000" fill-rule="evenodd" fill-opacity="1" /><path clip-path="url(#clip370)" d="M147.177 431.239 L152.061 431.239 L152.061 437.119 L147.177 437.119 L147.177 431.239 Z" fill="#000000" fill-rule="evenodd" fill-opacity="1" /><path clip-path="url(#clip370)" d="M172.246 405.638 Q168.635 405.638 166.806 409.203 Q165.001 412.744 165.001 419.874 Q165.001 426.98 166.806 430.545 Q168.635 434.087 172.246 434.087 Q175.88 434.087 177.686 430.545 Q179.514 426.98 179.514 419.874 Q179.514 412.744 177.686 409.203 Q175.88 405.638 172.246 405.638 M172.246 401.934 Q178.056 401.934 181.112 406.541 Q184.19 411.124 184.19 419.874 Q184.19 428.601 181.112 433.207 Q178.056 437.79 172.246 437.79 Q166.436 437.79 163.357 433.207 Q160.302 428.601 160.302 419.874 Q160.302 411.124 163.357 406.541 Q166.436 401.934 172.246 401.934 Z" fill="#000000" fill-rule="evenodd" fill-opacity="1" /><path clip-path="url(#clip370)" d="M220.579 411.656 L210 422.281 L220.579 432.86 L217.824 435.661 L207.199 425.036 L196.575 435.661 L193.843 432.86 L204.399 422.281 L193.843 411.656 L196.575 408.855 L207.199 419.48 L217.824 408.855 L220.579 411.656 Z" fill="#000000" fill-rule="evenodd" fill-opacity="1" /><path clip-path="url(#clip370)" d="M232.94 433.184 L240.579 433.184 L240.579 406.818 L232.269 408.485 L232.269 404.226 L240.533 402.559 L245.209 402.559 L245.209 433.184 L252.847 433.184 L252.847 437.119 L232.94 437.119 L232.94 433.184 Z" fill="#000000" fill-rule="evenodd" fill-opacity="1" /><path clip-path="url(#clip370)" d="M272.292 405.638 Q268.681 405.638 266.852 409.203 Q265.046 412.744 265.046 419.874 Q265.046 426.98 266.852 430.545 Q268.681 434.087 272.292 434.087 Q275.926 434.087 277.732 430.545 Q279.56 426.98 279.56 419.874 Q279.56 412.744 277.732 409.203 Q275.926 405.638 272.292 405.638 M272.292 401.934 Q278.102 401.934 281.157 406.541 Q284.236 411.124 284.236 419.874 Q284.236 428.601 281.157 433.207 Q278.102 437.79 272.292 437.79 Q266.482 437.79 263.403 433.207 Q260.347 428.601 260.347 419.874 Q260.347 411.124 263.403 406.541 Q266.482 401.934 272.292 401.934 Z" fill="#000000" fill-rule="evenodd" fill-opacity="1" /><path clip-path="url(#clip370)" d="M284.236 396.035 L308.348 396.035 L308.348 399.233 L284.236 399.233 L284.236 396.035 Z" fill="#000000" fill-rule="evenodd" fill-opacity="1" /><path clip-path="url(#clip370)" d="M317.206 406.511 L323.413 406.511 L323.413 385.089 L316.661 386.443 L316.661 382.983 L323.375 381.629 L327.174 381.629 L327.174 406.511 L333.381 406.511 L333.381 409.709 L317.206 409.709 L317.206 406.511 Z" fill="#000000" fill-rule="evenodd" fill-opacity="1" /><path clip-path="url(#clip370)" d="M341.092 381.629 L356.007 381.629 L356.007 384.826 L344.571 384.826 L344.571 391.71 Q345.399 391.428 346.227 391.296 Q347.054 391.145 347.882 391.145 Q352.584 391.145 355.329 393.722 Q358.075 396.299 358.075 400.7 Q358.075 405.232 355.254 407.753 Q352.433 410.254 347.299 410.254 Q345.531 410.254 343.687 409.953 Q341.863 409.652 339.907 409.05 L339.907 405.232 Q341.6 406.154 343.405 406.605 Q345.211 407.057 347.223 407.057 Q350.477 407.057 352.377 405.345 Q354.276 403.634 354.276 400.7 Q354.276 397.766 352.377 396.054 Q350.477 394.343 347.223 394.343 Q345.7 394.343 344.176 394.681 Q342.672 395.02 341.092 395.735 L341.092 381.629 Z" fill="#000000" fill-rule="evenodd" fill-opacity="1" /><path clip-path="url(#clip370)" d="M127.593 223.806 Q124.445 223.806 122.593 225.959 Q120.765 228.112 120.765 231.862 Q120.765 235.589 122.593 237.765 Q124.445 239.917 127.593 239.917 Q130.742 239.917 132.57 237.765 Q134.422 235.589 134.422 231.862 Q134.422 228.112 132.57 225.959 Q130.742 223.806 127.593 223.806 M136.876 209.154 L136.876 213.413 Q135.117 212.58 133.311 212.14 Q131.529 211.7 129.769 211.7 Q125.14 211.7 122.686 214.825 Q120.255 217.95 119.908 224.269 Q121.274 222.255 123.334 221.191 Q125.394 220.103 127.871 220.103 Q133.08 220.103 136.089 223.274 Q139.121 226.422 139.121 231.862 Q139.121 237.186 135.973 240.403 Q132.825 243.621 127.593 243.621 Q121.598 243.621 118.427 239.038 Q115.256 234.431 115.256 225.704 Q115.256 217.51 119.144 212.649 Q123.033 207.765 129.584 207.765 Q131.343 207.765 133.126 208.112 Q134.931 208.459 136.876 209.154 Z" fill="#000000" fill-rule="evenodd" fill-opacity="1" /><path clip-path="url(#clip370)" d="M147.177 237.07 L152.061 237.07 L152.061 242.95 L147.177 242.95 L147.177 237.07 Z" fill="#000000" fill-rule="evenodd" fill-opacity="1" /><path clip-path="url(#clip370)" d="M172.246 211.468 Q168.635 211.468 166.806 215.033 Q165.001 218.575 165.001 225.704 Q165.001 232.811 166.806 236.376 Q168.635 239.917 172.246 239.917 Q175.88 239.917 177.686 236.376 Q179.514 232.811 179.514 225.704 Q179.514 218.575 177.686 215.033 Q175.88 211.468 172.246 211.468 M172.246 207.765 Q178.056 207.765 181.112 212.371 Q184.19 216.955 184.19 225.704 Q184.19 234.431 181.112 239.038 Q178.056 243.621 172.246 243.621 Q166.436 243.621 163.357 239.038 Q160.302 234.431 160.302 225.704 Q160.302 216.955 163.357 212.371 Q166.436 207.765 172.246 207.765 Z" fill="#000000" fill-rule="evenodd" fill-opacity="1" /><path clip-path="url(#clip370)" d="M220.579 217.487 L210 228.112 L220.579 238.691 L217.824 241.491 L207.199 230.866 L196.575 241.491 L193.843 238.691 L204.399 228.112 L193.843 217.487 L196.575 214.686 L207.199 225.311 L217.824 214.686 L220.579 217.487 Z" fill="#000000" fill-rule="evenodd" fill-opacity="1" /><path clip-path="url(#clip370)" d="M232.94 239.015 L240.579 239.015 L240.579 212.649 L232.269 214.316 L232.269 210.056 L240.533 208.39 L245.209 208.39 L245.209 239.015 L252.847 239.015 L252.847 242.95 L232.94 242.95 L232.94 239.015 Z" fill="#000000" fill-rule="evenodd" fill-opacity="1" /><path clip-path="url(#clip370)" d="M272.292 211.468 Q268.681 211.468 266.852 215.033 Q265.046 218.575 265.046 225.704 Q265.046 232.811 266.852 236.376 Q268.681 239.917 272.292 239.917 Q275.926 239.917 277.732 236.376 Q279.56 232.811 279.56 225.704 Q279.56 218.575 277.732 215.033 Q275.926 211.468 272.292 211.468 M272.292 207.765 Q278.102 207.765 281.157 212.371 Q284.236 216.955 284.236 225.704 Q284.236 234.431 281.157 239.038 Q278.102 243.621 272.292 243.621 Q266.482 243.621 263.403 239.038 Q260.347 234.431 260.347 225.704 Q260.347 216.955 263.403 212.371 Q266.482 207.765 272.292 207.765 Z" fill="#000000" fill-rule="evenodd" fill-opacity="1" /><path clip-path="url(#clip370)" d="M284.236 201.866 L308.348 201.866 L308.348 205.063 L284.236 205.063 L284.236 201.866 Z" fill="#000000" fill-rule="evenodd" fill-opacity="1" /><path clip-path="url(#clip370)" d="M317.206 212.342 L323.413 212.342 L323.413 190.92 L316.661 192.274 L316.661 188.813 L323.375 187.459 L327.174 187.459 L327.174 212.342 L333.381 212.342 L333.381 215.539 L317.206 215.539 L317.206 212.342 Z" fill="#000000" fill-rule="evenodd" fill-opacity="1" /><path clip-path="url(#clip370)" d="M341.092 187.459 L356.007 187.459 L356.007 190.657 L344.571 190.657 L344.571 197.54 Q345.399 197.258 346.227 197.127 Q347.054 196.976 347.882 196.976 Q352.584 196.976 355.329 199.553 Q358.075 202.129 358.075 206.53 Q358.075 211.063 355.254 213.583 Q352.433 216.085 347.299 216.085 Q345.531 216.085 343.687 215.784 Q341.863 215.483 339.907 214.881 L339.907 211.063 Q341.6 211.985 343.405 212.436 Q345.211 212.887 347.223 212.887 Q350.477 212.887 352.377 211.176 Q354.276 209.464 354.276 206.53 Q354.276 203.596 352.377 201.885 Q350.477 200.173 347.223 200.173 Q345.7 200.173 344.176 200.512 Q342.672 200.85 341.092 201.565 L341.092 187.459 Z" fill="#000000" fill-rule="evenodd" fill-opacity="1" /><path clip-path="url(#clip370)" d="M33.8307 1007.04 Q33.2578 1008.03 33.0032 1009.21 Q32.7167 1010.35 32.7167 1011.75 Q32.7167 1016.72 35.9632 1019.39 Q39.1779 1022.03 45.2253 1022.03 L64.0042 1022.03 L64.0042 1027.92 L28.3562 1027.92 L28.3562 1022.03 L33.8944 1022.03 Q30.6479 1020.19 29.0883 1017.23 Q27.4968 1014.27 27.4968 1010.04 Q27.4968 1009.43 27.5923 1008.7 Q27.656 1007.97 27.8151 1007.08 L33.8307 1007.04 Z" fill="#000000" fill-rule="evenodd" fill-opacity="1" /><path clip-path="url(#clip370)" d="M44.7161 971.841 L47.5806 971.841 L47.5806 998.768 Q53.6281 998.386 56.8109 995.14 Q59.9619 991.861 59.9619 986.037 Q59.9619 982.663 59.1344 979.512 Q58.3069 976.329 56.6518 973.21 L62.1899 973.21 Q63.5267 976.361 64.227 979.671 Q64.9272 982.981 64.9272 986.387 Q64.9272 994.917 59.9619 999.914 Q54.9967 1004.88 46.5303 1004.88 Q37.7774 1004.88 32.6531 1000.17 Q27.4968 995.426 27.4968 987.405 Q27.4968 980.212 32.1438 976.043 Q36.7589 971.841 44.7161 971.841 M42.9973 977.698 Q38.1912 977.761 35.3266 980.403 Q32.4621 983.013 32.4621 987.342 Q32.4621 992.243 35.2312 995.203 Q38.0002 998.132 43.0292 998.577 L42.9973 977.698 Z" fill="#000000" fill-rule="evenodd" fill-opacity="1" /><path clip-path="url(#clip370)" d="M14.479 962.229 L14.479 956.373 L64.0042 956.373 L64.0042 962.229 L14.479 962.229 Z" fill="#000000" fill-rule="evenodd" fill-opacity="1" /><path clip-path="url(#clip370)" d="M46.0847 927.918 Q46.0847 935.016 47.7079 937.753 Q49.3312 940.49 53.2461 940.49 Q56.3653 940.49 58.2114 938.453 Q60.0256 936.384 60.0256 932.851 Q60.0256 927.981 56.5881 925.053 Q53.1188 922.093 47.3897 922.093 L46.0847 922.093 L46.0847 927.918 M43.6657 916.237 L64.0042 916.237 L64.0042 922.093 L58.5933 922.093 Q61.8398 924.098 63.3994 927.09 Q64.9272 930.082 64.9272 934.411 Q64.9272 939.885 61.8716 943.132 Q58.7843 946.347 53.6281 946.347 Q47.6125 946.347 44.5569 942.336 Q41.5014 938.294 41.5014 930.305 L41.5014 922.093 L40.9285 922.093 Q36.8862 922.093 34.6901 924.767 Q32.4621 927.409 32.4621 932.215 Q32.4621 935.27 33.1941 938.167 Q33.9262 941.063 35.3903 943.737 L29.9795 943.737 Q28.7381 940.522 28.1334 937.498 Q27.4968 934.475 27.4968 931.61 Q27.4968 923.876 31.5072 920.056 Q35.5176 916.237 43.6657 916.237 Z" fill="#000000" fill-rule="evenodd" fill-opacity="1" /><path clip-path="url(#clip370)" d="M18.2347 898.381 L28.3562 898.381 L28.3562 886.318 L32.9077 886.318 L32.9077 898.381 L52.2594 898.381 Q56.6199 898.381 57.8613 897.203 Q59.1026 895.994 59.1026 892.334 L59.1026 886.318 L64.0042 886.318 L64.0042 892.334 Q64.0042 899.113 61.4897 901.691 Q58.9434 904.269 52.2594 904.269 L32.9077 904.269 L32.9077 908.566 L28.3562 908.566 L28.3562 904.269 L18.2347 904.269 L18.2347 898.381 Z" fill="#000000" fill-rule="evenodd" fill-opacity="1" /><path clip-path="url(#clip370)" d="M28.3562 878.615 L28.3562 872.759 L64.0042 872.759 L64.0042 878.615 L28.3562 878.615 M14.479 878.615 L14.479 872.759 L21.895 872.759 L21.895 878.615 L14.479 878.615 Z" fill="#000000" fill-rule="evenodd" fill-opacity="1" /><path clip-path="url(#clip370)" d="M28.3562 864.706 L28.3562 858.5 L58.275 847.36 L28.3562 836.22 L28.3562 830.013 L64.0042 843.381 L64.0042 851.338 L28.3562 864.706 Z" fill="#000000" fill-rule="evenodd" fill-opacity="1" /><path clip-path="url(#clip370)" d="M44.7161 791.437 L47.5806 791.437 L47.5806 818.364 Q53.6281 817.982 56.8109 814.736 Q59.9619 811.457 59.9619 805.633 Q59.9619 802.259 59.1344 799.108 Q58.3069 795.925 56.6518 792.806 L62.1899 792.806 Q63.5267 795.957 64.227 799.267 Q64.9272 802.577 64.9272 805.983 Q64.9272 814.513 59.9619 819.51 Q54.9967 824.475 46.5303 824.475 Q37.7774 824.475 32.6531 819.764 Q27.4968 815.022 27.4968 807.001 Q27.4968 799.808 32.1438 795.638 Q36.7589 791.437 44.7161 791.437 M42.9973 797.294 Q38.1912 797.357 35.3266 799.999 Q32.4621 802.609 32.4621 806.938 Q32.4621 811.839 35.2312 814.799 Q38.0002 817.727 43.0292 818.173 L42.9973 797.294 Z" fill="#000000" fill-rule="evenodd" fill-opacity="1" /><path clip-path="url(#clip370)" d="M33.7671 737.647 L14.479 737.647 L14.479 731.79 L64.0042 731.79 L64.0042 737.647 L58.657 737.647 Q61.8398 739.493 63.3994 742.326 Q64.9272 745.127 64.9272 749.073 Q64.9272 755.534 59.771 759.609 Q54.6147 763.651 46.212 763.651 Q37.8093 763.651 32.6531 759.609 Q27.4968 755.534 27.4968 749.073 Q27.4968 745.127 29.0564 742.326 Q30.5842 739.493 33.7671 737.647 M46.212 757.603 Q52.6732 757.603 56.3653 754.962 Q60.0256 752.288 60.0256 747.641 Q60.0256 742.994 56.3653 740.32 Q52.6732 737.647 46.212 737.647 Q39.7508 737.647 36.0905 740.32 Q32.3984 742.994 32.3984 747.641 Q32.3984 752.288 36.0905 754.962 Q39.7508 757.603 46.212 757.603 Z" fill="#000000" fill-rule="evenodd" fill-opacity="1" /><path clip-path="url(#clip370)" d="M28.3562 719.727 L28.3562 713.871 L64.0042 713.871 L64.0042 719.727 L28.3562 719.727 M14.479 719.727 L14.479 713.871 L21.895 713.871 L21.895 719.727 L14.479 719.727 Z" fill="#000000" fill-rule="evenodd" fill-opacity="1" /><path clip-path="url(#clip370)" d="M14.479 683.57 L19.3487 683.57 L19.3487 689.172 Q19.3487 692.323 20.6219 693.564 Q21.895 694.774 25.2052 694.774 L28.3562 694.774 L28.3562 685.13 L32.9077 685.13 L32.9077 694.774 L64.0042 694.774 L64.0042 700.662 L32.9077 700.662 L32.9077 706.264 L28.3562 706.264 L28.3562 700.662 L25.8736 700.662 Q19.9216 700.662 17.2162 697.893 Q14.479 695.124 14.479 689.108 L14.479 683.57 Z" fill="#000000" fill-rule="evenodd" fill-opacity="1" /><path clip-path="url(#clip370)" d="M14.479 660.622 L19.3487 660.622 L19.3487 666.224 Q19.3487 669.375 20.6219 670.616 Q21.895 671.825 25.2052 671.825 L28.3562 671.825 L28.3562 662.181 L32.9077 662.181 L32.9077 671.825 L64.0042 671.825 L64.0042 677.714 L32.9077 677.714 L32.9077 683.316 L28.3562 683.316 L28.3562 677.714 L25.8736 677.714 Q19.9216 677.714 17.2162 674.945 Q14.479 672.176 14.479 666.16 L14.479 660.622 Z" fill="#000000" fill-rule="evenodd" fill-opacity="1" /><path clip-path="url(#clip370)" d="M44.7161 625.228 L47.5806 625.228 L47.5806 652.155 Q53.6281 651.773 56.8109 648.527 Q59.9619 645.249 59.9619 639.424 Q59.9619 636.05 59.1344 632.899 Q58.3069 629.716 56.6518 626.597 L62.1899 626.597 Q63.5267 629.748 64.227 633.058 Q64.9272 636.368 64.9272 639.774 Q64.9272 648.304 59.9619 653.301 Q54.9967 658.266 46.5303 658.266 Q37.7774 658.266 32.6531 653.556 Q27.4968 648.813 27.4968 640.793 Q27.4968 633.599 32.1438 629.43 Q36.7589 625.228 44.7161 625.228 M42.9973 631.085 Q38.1912 631.149 35.3266 633.79 Q32.4621 636.4 32.4621 640.729 Q32.4621 645.631 35.2312 648.591 Q38.0002 651.519 43.0292 651.964 L42.9973 631.085 Z" fill="#000000" fill-rule="evenodd" fill-opacity="1" /><path clip-path="url(#clip370)" d="M33.8307 594.96 Q33.2578 595.946 33.0032 597.124 Q32.7167 598.27 32.7167 599.67 Q32.7167 604.635 35.9632 607.309 Q39.1779 609.951 45.2253 609.951 L64.0042 609.951 L64.0042 615.839 L28.3562 615.839 L28.3562 609.951 L33.8944 609.951 Q30.6479 608.105 29.0883 605.145 Q27.4968 602.185 27.4968 597.951 Q27.4968 597.347 27.5923 596.615 Q27.656 595.883 27.8151 594.991 L33.8307 594.96 Z" fill="#000000" fill-rule="evenodd" fill-opacity="1" /><path clip-path="url(#clip370)" d="M44.7161 559.757 L47.5806 559.757 L47.5806 586.684 Q53.6281 586.302 56.8109 583.056 Q59.9619 579.777 59.9619 573.953 Q59.9619 570.579 59.1344 567.428 Q58.3069 564.245 56.6518 561.126 L62.1899 561.126 Q63.5267 564.277 64.227 567.587 Q64.9272 570.897 64.9272 574.303 Q64.9272 582.833 59.9619 587.83 Q54.9967 592.795 46.5303 592.795 Q37.7774 592.795 32.6531 588.085 Q27.4968 583.342 27.4968 575.321 Q27.4968 568.128 32.1438 563.959 Q36.7589 559.757 44.7161 559.757 M42.9973 565.614 Q38.1912 565.677 35.3266 568.319 Q32.4621 570.929 32.4621 575.258 Q32.4621 580.159 35.2312 583.119 Q38.0002 586.048 43.0292 586.493 L42.9973 565.614 Z" fill="#000000" fill-rule="evenodd" fill-opacity="1" /><path clip-path="url(#clip370)" d="M42.4881 520.513 L64.0042 520.513 L64.0042 526.369 L42.679 526.369 Q37.6183 526.369 35.1038 528.342 Q32.5894 530.316 32.5894 534.263 Q32.5894 539.005 35.6131 541.742 Q38.6368 544.479 43.8567 544.479 L64.0042 544.479 L64.0042 550.368 L28.3562 550.368 L28.3562 544.479 L33.8944 544.479 Q30.6797 542.379 29.0883 539.546 Q27.4968 536.681 27.4968 532.958 Q27.4968 526.815 31.3163 523.664 Q35.1038 520.513 42.4881 520.513 Z" fill="#000000" fill-rule="evenodd" fill-opacity="1" /><path clip-path="url(#clip370)" d="M29.7248 483.178 L35.1993 483.178 Q33.8307 485.66 33.1623 488.175 Q32.4621 490.657 32.4621 493.204 Q32.4621 498.901 36.0905 502.052 Q39.6872 505.203 46.212 505.203 Q52.7369 505.203 56.3653 502.052 Q59.9619 498.901 59.9619 493.204 Q59.9619 490.657 59.2935 488.175 Q58.5933 485.66 57.2247 483.178 L62.6355 483.178 Q63.7814 485.629 64.3543 488.27 Q64.9272 490.88 64.9272 493.84 Q64.9272 501.893 59.8664 506.635 Q54.8057 511.378 46.212 511.378 Q37.491 511.378 32.4939 506.604 Q27.4968 501.797 27.4968 493.458 Q27.4968 490.753 28.0697 488.175 Q28.6108 485.597 29.7248 483.178 Z" fill="#000000" fill-rule="evenodd" fill-opacity="1" /><path clip-path="url(#clip370)" d="M44.7161 442.501 L47.5806 442.501 L47.5806 469.428 Q53.6281 469.046 56.8109 465.799 Q59.9619 462.521 59.9619 456.696 Q59.9619 453.323 59.1344 450.172 Q58.3069 446.989 56.6518 443.869 L62.1899 443.869 Q63.5267 447.021 64.227 450.331 Q64.9272 453.641 64.9272 457.047 Q64.9272 465.577 59.9619 470.574 Q54.9967 475.539 46.5303 475.539 Q37.7774 475.539 32.6531 470.828 Q27.4968 466.086 27.4968 458.065 Q27.4968 450.872 32.1438 446.702 Q36.7589 442.501 44.7161 442.501 M42.9973 448.357 Q38.1912 448.421 35.3266 451.063 Q32.4621 453.673 32.4621 458.001 Q32.4621 462.903 35.2312 465.863 Q38.0002 468.791 43.0292 469.237 L42.9973 448.357 Z" fill="#000000" fill-rule="evenodd" fill-opacity="1" /><circle clip-path="url(#clip372)" cx="449.51" cy="1384.24" r="14.4" fill="#009af9" fill-rule="evenodd" fill-opacity="1" stroke="#000000" stroke-opacity="1" stroke-width="3.2"/>
<circle clip-path="url(#clip372)" cx="458.795" cy="1384.24" r="14.4" fill="#009af9" fill-rule="evenodd" fill-opacity="1" stroke="#000000" stroke-opacity="1" stroke-width="3.2"/>
<circle clip-path="url(#clip372)" cx="468.081" cy="1384.24" r="14.4" fill="#009af9" fill-rule="evenodd" fill-opacity="1" stroke="#000000" stroke-opacity="1" stroke-width="3.2"/>
<circle clip-path="url(#clip372)" cx="477.366" cy="1384.24" r="14.4" fill="#009af9" fill-rule="evenodd" fill-opacity="1" stroke="#000000" stroke-opacity="1" stroke-width="3.2"/>
<circle clip-path="url(#clip372)" cx="486.652" cy="1384.24" r="14.4" fill="#009af9" fill-rule="evenodd" fill-opacity="1" stroke="#000000" stroke-opacity="1" stroke-width="3.2"/>
<circle clip-path="url(#clip372)" cx="495.937" cy="1384.24" r="14.4" fill="#009af9" fill-rule="evenodd" fill-opacity="1" stroke="#000000" stroke-opacity="1" stroke-width="3.2"/>
<circle clip-path="url(#clip372)" cx="505.223" cy="1384.24" r="14.4" fill="#009af9" fill-rule="evenodd" fill-opacity="1" stroke="#000000" stroke-opacity="1" stroke-width="3.2"/>
<circle clip-path="url(#clip372)" cx="514.508" cy="1384.24" r="14.4" fill="#009af9" fill-rule="evenodd" fill-opacity="1" stroke="#000000" stroke-opacity="1" stroke-width="3.2"/>
<circle clip-path="url(#clip372)" cx="523.794" cy="1384.24" r="14.4" fill="#009af9" fill-rule="evenodd" fill-opacity="1" stroke="#000000" stroke-opacity="1" stroke-width="3.2"/>
<circle clip-path="url(#clip372)" cx="533.079" cy="1384.24" r="14.4" fill="#009af9" fill-rule="evenodd" fill-opacity="1" stroke="#000000" stroke-opacity="1" stroke-width="3.2"/>
<circle clip-path="url(#clip372)" cx="542.365" cy="1384.24" r="14.4" fill="#009af9" fill-rule="evenodd" fill-opacity="1" stroke="#000000" stroke-opacity="1" stroke-width="3.2"/>
<circle clip-path="url(#clip372)" cx="551.65" cy="1384.24" r="14.4" fill="#009af9" fill-rule="evenodd" fill-opacity="1" stroke="#000000" stroke-opacity="1" stroke-width="3.2"/>
<circle clip-path="url(#clip372)" cx="560.936" cy="1384.24" r="14.4" fill="#009af9" fill-rule="evenodd" fill-opacity="1" stroke="#000000" stroke-opacity="1" stroke-width="3.2"/>
<circle clip-path="url(#clip372)" cx="570.221" cy="1384.24" r="14.4" fill="#009af9" fill-rule="evenodd" fill-opacity="1" stroke="#000000" stroke-opacity="1" stroke-width="3.2"/>
<circle clip-path="url(#clip372)" cx="579.507" cy="1384.24" r="14.4" fill="#009af9" fill-rule="evenodd" fill-opacity="1" stroke="#000000" stroke-opacity="1" stroke-width="3.2"/>
<circle clip-path="url(#clip372)" cx="588.792" cy="1384.24" r="14.4" fill="#009af9" fill-rule="evenodd" fill-opacity="1" stroke="#000000" stroke-opacity="1" stroke-width="3.2"/>
<circle clip-path="url(#clip372)" cx="598.078" cy="1384.24" r="14.4" fill="#009af9" fill-rule="evenodd" fill-opacity="1" stroke="#000000" stroke-opacity="1" stroke-width="3.2"/>
<circle clip-path="url(#clip372)" cx="607.363" cy="1384.24" r="14.4" fill="#009af9" fill-rule="evenodd" fill-opacity="1" stroke="#000000" stroke-opacity="1" stroke-width="3.2"/>
<circle clip-path="url(#clip372)" cx="616.649" cy="1384.24" r="14.4" fill="#009af9" fill-rule="evenodd" fill-opacity="1" stroke="#000000" stroke-opacity="1" stroke-width="3.2"/>
<circle clip-path="url(#clip372)" cx="625.934" cy="1384.24" r="14.4" fill="#009af9" fill-rule="evenodd" fill-opacity="1" stroke="#000000" stroke-opacity="1" stroke-width="3.2"/>
<circle clip-path="url(#clip372)" cx="635.219" cy="1384.24" r="14.4" fill="#009af9" fill-rule="evenodd" fill-opacity="1" stroke="#000000" stroke-opacity="1" stroke-width="3.2"/>
<circle clip-path="url(#clip372)" cx="644.505" cy="1384.24" r="14.4" fill="#009af9" fill-rule="evenodd" fill-opacity="1" stroke="#000000" stroke-opacity="1" stroke-width="3.2"/>
<circle clip-path="url(#clip372)" cx="653.79" cy="1384.24" r="14.4" fill="#009af9" fill-rule="evenodd" fill-opacity="1" stroke="#000000" stroke-opacity="1" stroke-width="3.2"/>
<circle clip-path="url(#clip372)" cx="663.076" cy="1384.24" r="14.4" fill="#009af9" fill-rule="evenodd" fill-opacity="1" stroke="#000000" stroke-opacity="1" stroke-width="3.2"/>
<circle clip-path="url(#clip372)" cx="672.361" cy="1384.24" r="14.4" fill="#009af9" fill-rule="evenodd" fill-opacity="1" stroke="#000000" stroke-opacity="1" stroke-width="3.2"/>
<circle clip-path="url(#clip372)" cx="681.647" cy="1384.24" r="14.4" fill="#009af9" fill-rule="evenodd" fill-opacity="1" stroke="#000000" stroke-opacity="1" stroke-width="3.2"/>
<circle clip-path="url(#clip372)" cx="690.932" cy="1384.24" r="14.4" fill="#009af9" fill-rule="evenodd" fill-opacity="1" stroke="#000000" stroke-opacity="1" stroke-width="3.2"/>
<circle clip-path="url(#clip372)" cx="700.218" cy="1384.24" r="14.4" fill="#009af9" fill-rule="evenodd" fill-opacity="1" stroke="#000000" stroke-opacity="1" stroke-width="3.2"/>
<circle clip-path="url(#clip372)" cx="709.503" cy="1384.24" r="14.4" fill="#009af9" fill-rule="evenodd" fill-opacity="1" stroke="#000000" stroke-opacity="1" stroke-width="3.2"/>
<circle clip-path="url(#clip372)" cx="718.789" cy="1384.24" r="14.4" fill="#009af9" fill-rule="evenodd" fill-opacity="1" stroke="#000000" stroke-opacity="1" stroke-width="3.2"/>
<circle clip-path="url(#clip372)" cx="728.074" cy="1384.24" r="14.4" fill="#009af9" fill-rule="evenodd" fill-opacity="1" stroke="#000000" stroke-opacity="1" stroke-width="3.2"/>
<circle clip-path="url(#clip372)" cx="737.36" cy="1384.24" r="14.4" fill="#009af9" fill-rule="evenodd" fill-opacity="1" stroke="#000000" stroke-opacity="1" stroke-width="3.2"/>
<circle clip-path="url(#clip372)" cx="746.645" cy="1384.24" r="14.4" fill="#009af9" fill-rule="evenodd" fill-opacity="1" stroke="#000000" stroke-opacity="1" stroke-width="3.2"/>
<circle clip-path="url(#clip372)" cx="755.931" cy="1384.24" r="14.4" fill="#009af9" fill-rule="evenodd" fill-opacity="1" stroke="#000000" stroke-opacity="1" stroke-width="3.2"/>
<circle clip-path="url(#clip372)" cx="765.216" cy="1384.24" r="14.4" fill="#009af9" fill-rule="evenodd" fill-opacity="1" stroke="#000000" stroke-opacity="1" stroke-width="3.2"/>
<circle clip-path="url(#clip372)" cx="774.502" cy="1384.24" r="14.4" fill="#009af9" fill-rule="evenodd" fill-opacity="1" stroke="#000000" stroke-opacity="1" stroke-width="3.2"/>
<circle clip-path="url(#clip372)" cx="783.787" cy="1384.24" r="14.4" fill="#009af9" fill-rule="evenodd" fill-opacity="1" stroke="#000000" stroke-opacity="1" stroke-width="3.2"/>
<circle clip-path="url(#clip372)" cx="793.073" cy="1384.24" r="14.4" fill="#009af9" fill-rule="evenodd" fill-opacity="1" stroke="#000000" stroke-opacity="1" stroke-width="3.2"/>
<circle clip-path="url(#clip372)" cx="802.358" cy="1384.24" r="14.4" fill="#009af9" fill-rule="evenodd" fill-opacity="1" stroke="#000000" stroke-opacity="1" stroke-width="3.2"/>
<circle clip-path="url(#clip372)" cx="811.644" cy="1384.24" r="14.4" fill="#009af9" fill-rule="evenodd" fill-opacity="1" stroke="#000000" stroke-opacity="1" stroke-width="3.2"/>
<circle clip-path="url(#clip372)" cx="820.929" cy="1384.24" r="14.4" fill="#009af9" fill-rule="evenodd" fill-opacity="1" stroke="#000000" stroke-opacity="1" stroke-width="3.2"/>
<circle clip-path="url(#clip372)" cx="830.215" cy="1384.24" r="14.4" fill="#009af9" fill-rule="evenodd" fill-opacity="1" stroke="#000000" stroke-opacity="1" stroke-width="3.2"/>
<circle clip-path="url(#clip372)" cx="839.5" cy="1384.24" r="14.4" fill="#009af9" fill-rule="evenodd" fill-opacity="1" stroke="#000000" stroke-opacity="1" stroke-width="3.2"/>
<circle clip-path="url(#clip372)" cx="848.786" cy="1384.24" r="14.4" fill="#009af9" fill-rule="evenodd" fill-opacity="1" stroke="#000000" stroke-opacity="1" stroke-width="3.2"/>
<circle clip-path="url(#clip372)" cx="858.071" cy="1384.24" r="14.4" fill="#009af9" fill-rule="evenodd" fill-opacity="1" stroke="#000000" stroke-opacity="1" stroke-width="3.2"/>
<circle clip-path="url(#clip372)" cx="867.357" cy="1384.24" r="14.4" fill="#009af9" fill-rule="evenodd" fill-opacity="1" stroke="#000000" stroke-opacity="1" stroke-width="3.2"/>
<circle clip-path="url(#clip372)" cx="876.642" cy="1384.24" r="14.4" fill="#009af9" fill-rule="evenodd" fill-opacity="1" stroke="#000000" stroke-opacity="1" stroke-width="3.2"/>
<circle clip-path="url(#clip372)" cx="885.928" cy="1384.24" r="14.4" fill="#009af9" fill-rule="evenodd" fill-opacity="1" stroke="#000000" stroke-opacity="1" stroke-width="3.2"/>
<circle clip-path="url(#clip372)" cx="895.213" cy="1384.24" r="14.4" fill="#009af9" fill-rule="evenodd" fill-opacity="1" stroke="#000000" stroke-opacity="1" stroke-width="3.2"/>
<circle clip-path="url(#clip372)" cx="904.499" cy="1384.24" r="14.4" fill="#009af9" fill-rule="evenodd" fill-opacity="1" stroke="#000000" stroke-opacity="1" stroke-width="3.2"/>
<circle clip-path="url(#clip372)" cx="913.784" cy="1384.24" r="14.4" fill="#009af9" fill-rule="evenodd" fill-opacity="1" stroke="#000000" stroke-opacity="1" stroke-width="3.2"/>
<circle clip-path="url(#clip372)" cx="923.07" cy="1384.24" r="14.4" fill="#009af9" fill-rule="evenodd" fill-opacity="1" stroke="#000000" stroke-opacity="1" stroke-width="3.2"/>
<circle clip-path="url(#clip372)" cx="932.355" cy="1384.24" r="14.4" fill="#009af9" fill-rule="evenodd" fill-opacity="1" stroke="#000000" stroke-opacity="1" stroke-width="3.2"/>
<circle clip-path="url(#clip372)" cx="941.641" cy="1384.24" r="14.4" fill="#009af9" fill-rule="evenodd" fill-opacity="1" stroke="#000000" stroke-opacity="1" stroke-width="3.2"/>
<circle clip-path="url(#clip372)" cx="950.926" cy="1384.24" r="14.4" fill="#009af9" fill-rule="evenodd" fill-opacity="1" stroke="#000000" stroke-opacity="1" stroke-width="3.2"/>
<circle clip-path="url(#clip372)" cx="960.212" cy="1384.24" r="14.4" fill="#009af9" fill-rule="evenodd" fill-opacity="1" stroke="#000000" stroke-opacity="1" stroke-width="3.2"/>
<circle clip-path="url(#clip372)" cx="969.497" cy="1384.24" r="14.4" fill="#009af9" fill-rule="evenodd" fill-opacity="1" stroke="#000000" stroke-opacity="1" stroke-width="3.2"/>
<circle clip-path="url(#clip372)" cx="978.782" cy="1384.24" r="14.4" fill="#009af9" fill-rule="evenodd" fill-opacity="1" stroke="#000000" stroke-opacity="1" stroke-width="3.2"/>
<circle clip-path="url(#clip372)" cx="988.068" cy="1384.24" r="14.4" fill="#009af9" fill-rule="evenodd" fill-opacity="1" stroke="#000000" stroke-opacity="1" stroke-width="3.2"/>
<circle clip-path="url(#clip372)" cx="997.353" cy="1384.24" r="14.4" fill="#009af9" fill-rule="evenodd" fill-opacity="1" stroke="#000000" stroke-opacity="1" stroke-width="3.2"/>
<circle clip-path="url(#clip372)" cx="1006.64" cy="1384.24" r="14.4" fill="#009af9" fill-rule="evenodd" fill-opacity="1" stroke="#000000" stroke-opacity="1" stroke-width="3.2"/>
<circle clip-path="url(#clip372)" cx="1015.92" cy="1384.24" r="14.4" fill="#009af9" fill-rule="evenodd" fill-opacity="1" stroke="#000000" stroke-opacity="1" stroke-width="3.2"/>
<circle clip-path="url(#clip372)" cx="1025.21" cy="1384.24" r="14.4" fill="#009af9" fill-rule="evenodd" fill-opacity="1" stroke="#000000" stroke-opacity="1" stroke-width="3.2"/>
<circle clip-path="url(#clip372)" cx="1034.5" cy="1384.24" r="14.4" fill="#009af9" fill-rule="evenodd" fill-opacity="1" stroke="#000000" stroke-opacity="1" stroke-width="3.2"/>
<circle clip-path="url(#clip372)" cx="1043.78" cy="1384.24" r="14.4" fill="#009af9" fill-rule="evenodd" fill-opacity="1" stroke="#000000" stroke-opacity="1" stroke-width="3.2"/>
<circle clip-path="url(#clip372)" cx="1053.07" cy="1384.24" r="14.4" fill="#009af9" fill-rule="evenodd" fill-opacity="1" stroke="#000000" stroke-opacity="1" stroke-width="3.2"/>
<circle clip-path="url(#clip372)" cx="1062.35" cy="1384.24" r="14.4" fill="#009af9" fill-rule="evenodd" fill-opacity="1" stroke="#000000" stroke-opacity="1" stroke-width="3.2"/>
<circle clip-path="url(#clip372)" cx="1071.64" cy="1384.24" r="14.4" fill="#009af9" fill-rule="evenodd" fill-opacity="1" stroke="#000000" stroke-opacity="1" stroke-width="3.2"/>
<circle clip-path="url(#clip372)" cx="1080.92" cy="1384.24" r="14.4" fill="#009af9" fill-rule="evenodd" fill-opacity="1" stroke="#000000" stroke-opacity="1" stroke-width="3.2"/>
<circle clip-path="url(#clip372)" cx="1090.21" cy="1384.24" r="14.4" fill="#009af9" fill-rule="evenodd" fill-opacity="1" stroke="#000000" stroke-opacity="1" stroke-width="3.2"/>
<circle clip-path="url(#clip372)" cx="1099.49" cy="753.944" r="14.4" fill="#009af9" fill-rule="evenodd" fill-opacity="1" stroke="#000000" stroke-opacity="1" stroke-width="3.2"/>
<circle clip-path="url(#clip372)" cx="1108.78" cy="994.695" r="14.4" fill="#009af9" fill-rule="evenodd" fill-opacity="1" stroke="#000000" stroke-opacity="1" stroke-width="3.2"/>
<circle clip-path="url(#clip372)" cx="1118.06" cy="902.736" r="14.4" fill="#009af9" fill-rule="evenodd" fill-opacity="1" stroke="#000000" stroke-opacity="1" stroke-width="3.2"/>
<circle clip-path="url(#clip372)" cx="1127.35" cy="937.862" r="14.4" fill="#009af9" fill-rule="evenodd" fill-opacity="1" stroke="#000000" stroke-opacity="1" stroke-width="3.2"/>
<circle clip-path="url(#clip372)" cx="1136.64" cy="924.445" r="14.4" fill="#009af9" fill-rule="evenodd" fill-opacity="1" stroke="#000000" stroke-opacity="1" stroke-width="3.2"/>
<circle clip-path="url(#clip372)" cx="1145.92" cy="872.736" r="14.4" fill="#009af9" fill-rule="evenodd" fill-opacity="1" stroke="#000000" stroke-opacity="1" stroke-width="3.2"/>
<circle clip-path="url(#clip372)" cx="1155.21" cy="892.487" r="14.4" fill="#009af9" fill-rule="evenodd" fill-opacity="1" stroke="#000000" stroke-opacity="1" stroke-width="3.2"/>
<circle clip-path="url(#clip372)" cx="1164.49" cy="863.234" r="14.4" fill="#009af9" fill-rule="evenodd" fill-opacity="1" stroke="#000000" stroke-opacity="1" stroke-width="3.2"/>
<circle clip-path="url(#clip372)" cx="1173.78" cy="860.991" r="14.4" fill="#009af9" fill-rule="evenodd" fill-opacity="1" stroke="#000000" stroke-opacity="1" stroke-width="3.2"/>
<circle clip-path="url(#clip372)" cx="1183.06" cy="895.016" r="14.4" fill="#009af9" fill-rule="evenodd" fill-opacity="1" stroke="#000000" stroke-opacity="1" stroke-width="3.2"/>
<circle clip-path="url(#clip372)" cx="1192.35" cy="861.521" r="14.4" fill="#009af9" fill-rule="evenodd" fill-opacity="1" stroke="#000000" stroke-opacity="1" stroke-width="3.2"/>
<circle clip-path="url(#clip372)" cx="1201.63" cy="848.977" r="14.4" fill="#009af9" fill-rule="evenodd" fill-opacity="1" stroke="#000000" stroke-opacity="1" stroke-width="3.2"/>
<circle clip-path="url(#clip372)" cx="1210.92" cy="838.109" r="14.4" fill="#009af9" fill-rule="evenodd" fill-opacity="1" stroke="#000000" stroke-opacity="1" stroke-width="3.2"/>
<circle clip-path="url(#clip372)" cx="1220.21" cy="822.904" r="14.4" fill="#009af9" fill-rule="evenodd" fill-opacity="1" stroke="#000000" stroke-opacity="1" stroke-width="3.2"/>
<circle clip-path="url(#clip372)" cx="1229.49" cy="828.711" r="14.4" fill="#009af9" fill-rule="evenodd" fill-opacity="1" stroke="#000000" stroke-opacity="1" stroke-width="3.2"/>
<circle clip-path="url(#clip372)" cx="1238.78" cy="826.493" r="14.4" fill="#009af9" fill-rule="evenodd" fill-opacity="1" stroke="#000000" stroke-opacity="1" stroke-width="3.2"/>
<circle clip-path="url(#clip372)" cx="1248.06" cy="845.618" r="14.4" fill="#009af9" fill-rule="evenodd" fill-opacity="1" stroke="#000000" stroke-opacity="1" stroke-width="3.2"/>
<circle clip-path="url(#clip372)" cx="1257.35" cy="827.017" r="14.4" fill="#009af9" fill-rule="evenodd" fill-opacity="1" stroke="#000000" stroke-opacity="1" stroke-width="3.2"/>
<circle clip-path="url(#clip372)" cx="1266.63" cy="820.159" r="14.4" fill="#009af9" fill-rule="evenodd" fill-opacity="1" stroke="#000000" stroke-opacity="1" stroke-width="3.2"/>
<circle clip-path="url(#clip372)" cx="1275.92" cy="805.519" r="14.4" fill="#009af9" fill-rule="evenodd" fill-opacity="1" stroke="#000000" stroke-opacity="1" stroke-width="3.2"/>
<circle clip-path="url(#clip372)" cx="1285.2" cy="821.778" r="14.4" fill="#009af9" fill-rule="evenodd" fill-opacity="1" stroke="#000000" stroke-opacity="1" stroke-width="3.2"/>
<circle clip-path="url(#clip372)" cx="1294.49" cy="802.383" r="14.4" fill="#009af9" fill-rule="evenodd" fill-opacity="1" stroke="#000000" stroke-opacity="1" stroke-width="3.2"/>
<circle clip-path="url(#clip372)" cx="1303.77" cy="793.494" r="14.4" fill="#009af9" fill-rule="evenodd" fill-opacity="1" stroke="#000000" stroke-opacity="1" stroke-width="3.2"/>
<circle clip-path="url(#clip372)" cx="1313.06" cy="796.889" r="14.4" fill="#009af9" fill-rule="evenodd" fill-opacity="1" stroke="#000000" stroke-opacity="1" stroke-width="3.2"/>
<circle clip-path="url(#clip372)" cx="1322.35" cy="783.142" r="14.4" fill="#009af9" fill-rule="evenodd" fill-opacity="1" stroke="#000000" stroke-opacity="1" stroke-width="3.2"/>
<circle clip-path="url(#clip372)" cx="1331.63" cy="757.615" r="14.4" fill="#009af9" fill-rule="evenodd" fill-opacity="1" stroke="#000000" stroke-opacity="1" stroke-width="3.2"/>
<circle clip-path="url(#clip372)" cx="1340.92" cy="729.322" r="14.4" fill="#009af9" fill-rule="evenodd" fill-opacity="1" stroke="#000000" stroke-opacity="1" stroke-width="3.2"/>
<circle clip-path="url(#clip372)" cx="1350.2" cy="751.885" r="14.4" fill="#009af9" fill-rule="evenodd" fill-opacity="1" stroke="#000000" stroke-opacity="1" stroke-width="3.2"/>
<circle clip-path="url(#clip372)" cx="1359.49" cy="743.266" r="14.4" fill="#009af9" fill-rule="evenodd" fill-opacity="1" stroke="#000000" stroke-opacity="1" stroke-width="3.2"/>
<circle clip-path="url(#clip372)" cx="1368.77" cy="728.596" r="14.4" fill="#009af9" fill-rule="evenodd" fill-opacity="1" stroke="#000000" stroke-opacity="1" stroke-width="3.2"/>
<circle clip-path="url(#clip372)" cx="1378.06" cy="723.099" r="14.4" fill="#009af9" fill-rule="evenodd" fill-opacity="1" stroke="#000000" stroke-opacity="1" stroke-width="3.2"/>
<circle clip-path="url(#clip372)" cx="1387.34" cy="711.477" r="14.4" fill="#009af9" fill-rule="evenodd" fill-opacity="1" stroke="#000000" stroke-opacity="1" stroke-width="3.2"/>
<circle clip-path="url(#clip372)" cx="1396.63" cy="681.994" r="14.4" fill="#009af9" fill-rule="evenodd" fill-opacity="1" stroke="#000000" stroke-opacity="1" stroke-width="3.2"/>
<circle clip-path="url(#clip372)" cx="1405.91" cy="682.773" r="14.4" fill="#009af9" fill-rule="evenodd" fill-opacity="1" stroke="#000000" stroke-opacity="1" stroke-width="3.2"/>
<circle clip-path="url(#clip372)" cx="1415.2" cy="734.304" r="14.4" fill="#009af9" fill-rule="evenodd" fill-opacity="1" stroke="#000000" stroke-opacity="1" stroke-width="3.2"/>
<circle clip-path="url(#clip372)" cx="1424.49" cy="666.574" r="14.4" fill="#009af9" fill-rule="evenodd" fill-opacity="1" stroke="#000000" stroke-opacity="1" stroke-width="3.2"/>
<circle clip-path="url(#clip372)" cx="1433.77" cy="702.343" r="14.4" fill="#009af9" fill-rule="evenodd" fill-opacity="1" stroke="#000000" stroke-opacity="1" stroke-width="3.2"/>
<circle clip-path="url(#clip372)" cx="1443.06" cy="676.445" r="14.4" fill="#009af9" fill-rule="evenodd" fill-opacity="1" stroke="#000000" stroke-opacity="1" stroke-width="3.2"/>
<circle clip-path="url(#clip372)" cx="1452.34" cy="671.214" r="14.4" fill="#009af9" fill-rule="evenodd" fill-opacity="1" stroke="#000000" stroke-opacity="1" stroke-width="3.2"/>
<circle clip-path="url(#clip372)" cx="1461.63" cy="691.905" r="14.4" fill="#009af9" fill-rule="evenodd" fill-opacity="1" stroke="#000000" stroke-opacity="1" stroke-width="3.2"/>
<circle clip-path="url(#clip372)" cx="1470.91" cy="649.343" r="14.4" fill="#009af9" fill-rule="evenodd" fill-opacity="1" stroke="#000000" stroke-opacity="1" stroke-width="3.2"/>
<circle clip-path="url(#clip372)" cx="1480.2" cy="665.6" r="14.4" fill="#009af9" fill-rule="evenodd" fill-opacity="1" stroke="#000000" stroke-opacity="1" stroke-width="3.2"/>
<circle clip-path="url(#clip372)" cx="1489.48" cy="659.39" r="14.4" fill="#009af9" fill-rule="evenodd" fill-opacity="1" stroke="#000000" stroke-opacity="1" stroke-width="3.2"/>
<circle clip-path="url(#clip372)" cx="1498.77" cy="650.853" r="14.4" fill="#009af9" fill-rule="evenodd" fill-opacity="1" stroke="#000000" stroke-opacity="1" stroke-width="3.2"/>
<circle clip-path="url(#clip372)" cx="1508.06" cy="654.114" r="14.4" fill="#009af9" fill-rule="evenodd" fill-opacity="1" stroke="#000000" stroke-opacity="1" stroke-width="3.2"/>
<circle clip-path="url(#clip372)" cx="1517.34" cy="619.533" r="14.4" fill="#009af9" fill-rule="evenodd" fill-opacity="1" stroke="#000000" stroke-opacity="1" stroke-width="3.2"/>
<circle clip-path="url(#clip372)" cx="1526.63" cy="622.44" r="14.4" fill="#009af9" fill-rule="evenodd" fill-opacity="1" stroke="#000000" stroke-opacity="1" stroke-width="3.2"/>
<circle clip-path="url(#clip372)" cx="1535.91" cy="595.864" r="14.4" fill="#009af9" fill-rule="evenodd" fill-opacity="1" stroke="#000000" stroke-opacity="1" stroke-width="3.2"/>
<circle clip-path="url(#clip372)" cx="1545.2" cy="621.754" r="14.4" fill="#009af9" fill-rule="evenodd" fill-opacity="1" stroke="#000000" stroke-opacity="1" stroke-width="3.2"/>
<circle clip-path="url(#clip372)" cx="1554.48" cy="621.592" r="14.4" fill="#009af9" fill-rule="evenodd" fill-opacity="1" stroke="#000000" stroke-opacity="1" stroke-width="3.2"/>
<circle clip-path="url(#clip372)" cx="1563.77" cy="609.63" r="14.4" fill="#009af9" fill-rule="evenodd" fill-opacity="1" stroke="#000000" stroke-opacity="1" stroke-width="3.2"/>
<circle clip-path="url(#clip372)" cx="1573.05" cy="614.199" r="14.4" fill="#009af9" fill-rule="evenodd" fill-opacity="1" stroke="#000000" stroke-opacity="1" stroke-width="3.2"/>
<circle clip-path="url(#clip372)" cx="1582.34" cy="612.454" r="14.4" fill="#009af9" fill-rule="evenodd" fill-opacity="1" stroke="#000000" stroke-opacity="1" stroke-width="3.2"/>
<circle clip-path="url(#clip372)" cx="1591.62" cy="601.767" r="14.4" fill="#009af9" fill-rule="evenodd" fill-opacity="1" stroke="#000000" stroke-opacity="1" stroke-width="3.2"/>
<circle clip-path="url(#clip372)" cx="1600.91" cy="563.748" r="14.4" fill="#009af9" fill-rule="evenodd" fill-opacity="1" stroke="#000000" stroke-opacity="1" stroke-width="3.2"/>
<circle clip-path="url(#clip372)" cx="1610.2" cy="552.25" r="14.4" fill="#009af9" fill-rule="evenodd" fill-opacity="1" stroke="#000000" stroke-opacity="1" stroke-width="3.2"/>
<circle clip-path="url(#clip372)" cx="1619.48" cy="588.805" r="14.4" fill="#009af9" fill-rule="evenodd" fill-opacity="1" stroke="#000000" stroke-opacity="1" stroke-width="3.2"/>
<circle clip-path="url(#clip372)" cx="1628.77" cy="561.591" r="14.4" fill="#009af9" fill-rule="evenodd" fill-opacity="1" stroke="#000000" stroke-opacity="1" stroke-width="3.2"/>
<circle clip-path="url(#clip372)" cx="1638.05" cy="522.846" r="14.4" fill="#009af9" fill-rule="evenodd" fill-opacity="1" stroke="#000000" stroke-opacity="1" stroke-width="3.2"/>
<circle clip-path="url(#clip372)" cx="1647.34" cy="557.892" r="14.4" fill="#009af9" fill-rule="evenodd" fill-opacity="1" stroke="#000000" stroke-opacity="1" stroke-width="3.2"/>
<circle clip-path="url(#clip372)" cx="1656.62" cy="531.992" r="14.4" fill="#009af9" fill-rule="evenodd" fill-opacity="1" stroke="#000000" stroke-opacity="1" stroke-width="3.2"/>
<circle clip-path="url(#clip372)" cx="1665.91" cy="526.418" r="14.4" fill="#009af9" fill-rule="evenodd" fill-opacity="1" stroke="#000000" stroke-opacity="1" stroke-width="3.2"/>
<circle clip-path="url(#clip372)" cx="1675.19" cy="538.106" r="14.4" fill="#009af9" fill-rule="evenodd" fill-opacity="1" stroke="#000000" stroke-opacity="1" stroke-width="3.2"/>
<circle clip-path="url(#clip372)" cx="1684.48" cy="521.826" r="14.4" fill="#009af9" fill-rule="evenodd" fill-opacity="1" stroke="#000000" stroke-opacity="1" stroke-width="3.2"/>
<circle clip-path="url(#clip372)" cx="1693.76" cy="484.229" r="14.4" fill="#009af9" fill-rule="evenodd" fill-opacity="1" stroke="#000000" stroke-opacity="1" stroke-width="3.2"/>
<circle clip-path="url(#clip372)" cx="1703.05" cy="516.643" r="14.4" fill="#009af9" fill-rule="evenodd" fill-opacity="1" stroke="#000000" stroke-opacity="1" stroke-width="3.2"/>
<circle clip-path="url(#clip372)" cx="1712.34" cy="493.105" r="14.4" fill="#009af9" fill-rule="evenodd" fill-opacity="1" stroke="#000000" stroke-opacity="1" stroke-width="3.2"/>
<circle clip-path="url(#clip372)" cx="1721.62" cy="502.095" r="14.4" fill="#009af9" fill-rule="evenodd" fill-opacity="1" stroke="#000000" stroke-opacity="1" stroke-width="3.2"/>
<circle clip-path="url(#clip372)" cx="1730.91" cy="473.091" r="14.4" fill="#009af9" fill-rule="evenodd" fill-opacity="1" stroke="#000000" stroke-opacity="1" stroke-width="3.2"/>
<circle clip-path="url(#clip372)" cx="1740.19" cy="484.17" r="14.4" fill="#009af9" fill-rule="evenodd" fill-opacity="1" stroke="#000000" stroke-opacity="1" stroke-width="3.2"/>
<circle clip-path="url(#clip372)" cx="1749.48" cy="479.938" r="14.4" fill="#009af9" fill-rule="evenodd" fill-opacity="1" stroke="#000000" stroke-opacity="1" stroke-width="3.2"/>
<circle clip-path="url(#clip372)" cx="1758.76" cy="465.457" r="14.4" fill="#009af9" fill-rule="evenodd" fill-opacity="1" stroke="#000000" stroke-opacity="1" stroke-width="3.2"/>
<circle clip-path="url(#clip372)" cx="1768.05" cy="480.937" r="14.4" fill="#009af9" fill-rule="evenodd" fill-opacity="1" stroke="#000000" stroke-opacity="1" stroke-width="3.2"/>
<circle clip-path="url(#clip372)" cx="1777.33" cy="450.431" r="14.4" fill="#009af9" fill-rule="evenodd" fill-opacity="1" stroke="#000000" stroke-opacity="1" stroke-width="3.2"/>
<circle clip-path="url(#clip372)" cx="1786.62" cy="446.883" r="14.4" fill="#009af9" fill-rule="evenodd" fill-opacity="1" stroke="#000000" stroke-opacity="1" stroke-width="3.2"/>
<circle clip-path="url(#clip372)" cx="1795.91" cy="438.844" r="14.4" fill="#009af9" fill-rule="evenodd" fill-opacity="1" stroke="#000000" stroke-opacity="1" stroke-width="3.2"/>
<circle clip-path="url(#clip372)" cx="1805.19" cy="395.468" r="14.4" fill="#009af9" fill-rule="evenodd" fill-opacity="1" stroke="#000000" stroke-opacity="1" stroke-width="3.2"/>
<circle clip-path="url(#clip372)" cx="1814.48" cy="412.036" r="14.4" fill="#009af9" fill-rule="evenodd" fill-opacity="1" stroke="#000000" stroke-opacity="1" stroke-width="3.2"/>
<circle clip-path="url(#clip372)" cx="1823.76" cy="441.19" r="14.4" fill="#009af9" fill-rule="evenodd" fill-opacity="1" stroke="#000000" stroke-opacity="1" stroke-width="3.2"/>
<circle clip-path="url(#clip372)" cx="1833.05" cy="397.161" r="14.4" fill="#009af9" fill-rule="evenodd" fill-opacity="1" stroke="#000000" stroke-opacity="1" stroke-width="3.2"/>
<circle clip-path="url(#clip372)" cx="1842.33" cy="386.873" r="14.4" fill="#009af9" fill-rule="evenodd" fill-opacity="1" stroke="#000000" stroke-opacity="1" stroke-width="3.2"/>
<circle clip-path="url(#clip372)" cx="1851.62" cy="390.802" r="14.4" fill="#009af9" fill-rule="evenodd" fill-opacity="1" stroke="#000000" stroke-opacity="1" stroke-width="3.2"/>
<circle clip-path="url(#clip372)" cx="1860.9" cy="399.655" r="14.4" fill="#009af9" fill-rule="evenodd" fill-opacity="1" stroke="#000000" stroke-opacity="1" stroke-width="3.2"/>
<circle clip-path="url(#clip372)" cx="1870.19" cy="396.273" r="14.4" fill="#009af9" fill-rule="evenodd" fill-opacity="1" stroke="#000000" stroke-opacity="1" stroke-width="3.2"/>
<circle clip-path="url(#clip372)" cx="1879.47" cy="381.746" r="14.4" fill="#009af9" fill-rule="evenodd" fill-opacity="1" stroke="#000000" stroke-opacity="1" stroke-width="3.2"/>
<circle clip-path="url(#clip372)" cx="1888.76" cy="357.966" r="14.4" fill="#009af9" fill-rule="evenodd" fill-opacity="1" stroke="#000000" stroke-opacity="1" stroke-width="3.2"/>
<circle clip-path="url(#clip372)" cx="1898.05" cy="367.049" r="14.4" fill="#009af9" fill-rule="evenodd" fill-opacity="1" stroke="#000000" stroke-opacity="1" stroke-width="3.2"/>
<circle clip-path="url(#clip372)" cx="1907.33" cy="348.642" r="14.4" fill="#009af9" fill-rule="evenodd" fill-opacity="1" stroke="#000000" stroke-opacity="1" stroke-width="3.2"/>
<circle clip-path="url(#clip372)" cx="1916.62" cy="337.21" r="14.4" fill="#009af9" fill-rule="evenodd" fill-opacity="1" stroke="#000000" stroke-opacity="1" stroke-width="3.2"/>
<circle clip-path="url(#clip372)" cx="1925.9" cy="364.399" r="14.4" fill="#009af9" fill-rule="evenodd" fill-opacity="1" stroke="#000000" stroke-opacity="1" stroke-width="3.2"/>
<circle clip-path="url(#clip372)" cx="1935.19" cy="311.699" r="14.4" fill="#009af9" fill-rule="evenodd" fill-opacity="1" stroke="#000000" stroke-opacity="1" stroke-width="3.2"/>
<circle clip-path="url(#clip372)" cx="1944.47" cy="349.263" r="14.4" fill="#009af9" fill-rule="evenodd" fill-opacity="1" stroke="#000000" stroke-opacity="1" stroke-width="3.2"/>
<circle clip-path="url(#clip372)" cx="1953.76" cy="356.465" r="14.4" fill="#009af9" fill-rule="evenodd" fill-opacity="1" stroke="#000000" stroke-opacity="1" stroke-width="3.2"/>
<circle clip-path="url(#clip372)" cx="1963.04" cy="300.439" r="14.4" fill="#009af9" fill-rule="evenodd" fill-opacity="1" stroke="#000000" stroke-opacity="1" stroke-width="3.2"/>
<circle clip-path="url(#clip372)" cx="1972.33" cy="321.839" r="14.4" fill="#009af9" fill-rule="evenodd" fill-opacity="1" stroke="#000000" stroke-opacity="1" stroke-width="3.2"/>
<circle clip-path="url(#clip372)" cx="1981.62" cy="283.141" r="14.4" fill="#009af9" fill-rule="evenodd" fill-opacity="1" stroke="#000000" stroke-opacity="1" stroke-width="3.2"/>
<circle clip-path="url(#clip372)" cx="1990.9" cy="285.346" r="14.4" fill="#009af9" fill-rule="evenodd" fill-opacity="1" stroke="#000000" stroke-opacity="1" stroke-width="3.2"/>
<circle clip-path="url(#clip372)" cx="2000.19" cy="284.504" r="14.4" fill="#009af9" fill-rule="evenodd" fill-opacity="1" stroke="#000000" stroke-opacity="1" stroke-width="3.2"/>
<circle clip-path="url(#clip372)" cx="2009.47" cy="284.826" r="14.4" fill="#009af9" fill-rule="evenodd" fill-opacity="1" stroke="#000000" stroke-opacity="1" stroke-width="3.2"/>
<circle clip-path="url(#clip372)" cx="2018.76" cy="260.951" r="14.4" fill="#009af9" fill-rule="evenodd" fill-opacity="1" stroke="#000000" stroke-opacity="1" stroke-width="3.2"/>
<circle clip-path="url(#clip372)" cx="2028.04" cy="270.071" r="14.4" fill="#009af9" fill-rule="evenodd" fill-opacity="1" stroke="#000000" stroke-opacity="1" stroke-width="3.2"/>
<circle clip-path="url(#clip372)" cx="2037.33" cy="248.443" r="14.4" fill="#009af9" fill-rule="evenodd" fill-opacity="1" stroke="#000000" stroke-opacity="1" stroke-width="3.2"/>
<circle clip-path="url(#clip372)" cx="2046.61" cy="256.704" r="14.4" fill="#009af9" fill-rule="evenodd" fill-opacity="1" stroke="#000000" stroke-opacity="1" stroke-width="3.2"/>
<circle clip-path="url(#clip372)" cx="2055.9" cy="253.549" r="14.4" fill="#009af9" fill-rule="evenodd" fill-opacity="1" stroke="#000000" stroke-opacity="1" stroke-width="3.2"/>
<circle clip-path="url(#clip372)" cx="2065.18" cy="237.621" r="14.4" fill="#009af9" fill-rule="evenodd" fill-opacity="1" stroke="#000000" stroke-opacity="1" stroke-width="3.2"/>
<circle clip-path="url(#clip372)" cx="2074.47" cy="233.116" r="14.4" fill="#009af9" fill-rule="evenodd" fill-opacity="1" stroke="#000000" stroke-opacity="1" stroke-width="3.2"/>
<circle clip-path="url(#clip372)" cx="2083.76" cy="247.925" r="14.4" fill="#009af9" fill-rule="evenodd" fill-opacity="1" stroke="#000000" stroke-opacity="1" stroke-width="3.2"/>
<circle clip-path="url(#clip372)" cx="2093.04" cy="226.09" r="14.4" fill="#009af9" fill-rule="evenodd" fill-opacity="1" stroke="#000000" stroke-opacity="1" stroke-width="3.2"/>
<circle clip-path="url(#clip372)" cx="2102.33" cy="234.43" r="14.4" fill="#009af9" fill-rule="evenodd" fill-opacity="1" stroke="#000000" stroke-opacity="1" stroke-width="3.2"/>
<circle clip-path="url(#clip372)" cx="2111.61" cy="218.885" r="14.4" fill="#009af9" fill-rule="evenodd" fill-opacity="1" stroke="#000000" stroke-opacity="1" stroke-width="3.2"/>
<circle clip-path="url(#clip372)" cx="2120.9" cy="194.269" r="14.4" fill="#009af9" fill-rule="evenodd" fill-opacity="1" stroke="#000000" stroke-opacity="1" stroke-width="3.2"/>
<circle clip-path="url(#clip372)" cx="2130.18" cy="203.672" r="14.4" fill="#009af9" fill-rule="evenodd" fill-opacity="1" stroke="#000000" stroke-opacity="1" stroke-width="3.2"/>
<circle clip-path="url(#clip372)" cx="2139.47" cy="200.08" r="14.4" fill="#009af9" fill-rule="evenodd" fill-opacity="1" stroke="#000000" stroke-opacity="1" stroke-width="3.2"/>
<circle clip-path="url(#clip372)" cx="2148.75" cy="187.027" r="14.4" fill="#009af9" fill-rule="evenodd" fill-opacity="1" stroke="#000000" stroke-opacity="1" stroke-width="3.2"/>
<circle clip-path="url(#clip372)" cx="2158.04" cy="192.013" r="14.4" fill="#009af9" fill-rule="evenodd" fill-opacity="1" stroke="#000000" stroke-opacity="1" stroke-width="3.2"/>
<circle clip-path="url(#clip372)" cx="2167.32" cy="201.128" r="14.4" fill="#009af9" fill-rule="evenodd" fill-opacity="1" stroke="#000000" stroke-opacity="1" stroke-width="3.2"/>
<circle clip-path="url(#clip372)" cx="2176.61" cy="184.025" r="14.4" fill="#009af9" fill-rule="evenodd" fill-opacity="1" stroke="#000000" stroke-opacity="1" stroke-width="3.2"/>
<circle clip-path="url(#clip372)" cx="2185.9" cy="165.302" r="14.4" fill="#009af9" fill-rule="evenodd" fill-opacity="1" stroke="#000000" stroke-opacity="1" stroke-width="3.2"/>
<circle clip-path="url(#clip372)" cx="2195.18" cy="141.236" r="14.4" fill="#009af9" fill-rule="evenodd" fill-opacity="1" stroke="#000000" stroke-opacity="1" stroke-width="3.2"/>
<circle clip-path="url(#clip372)" cx="2204.47" cy="150.428" r="14.4" fill="#009af9" fill-rule="evenodd" fill-opacity="1" stroke="#000000" stroke-opacity="1" stroke-width="3.2"/>
<circle clip-path="url(#clip372)" cx="2213.75" cy="131.018" r="14.4" fill="#009af9" fill-rule="evenodd" fill-opacity="1" stroke="#000000" stroke-opacity="1" stroke-width="3.2"/>
<circle clip-path="url(#clip372)" cx="2223.04" cy="148.258" r="14.4" fill="#009af9" fill-rule="evenodd" fill-opacity="1" stroke="#000000" stroke-opacity="1" stroke-width="3.2"/>
<circle clip-path="url(#clip372)" cx="2232.32" cy="129.527" r="14.4" fill="#009af9" fill-rule="evenodd" fill-opacity="1" stroke="#000000" stroke-opacity="1" stroke-width="3.2"/>
<circle clip-path="url(#clip372)" cx="2241.61" cy="106.656" r="14.4" fill="#009af9" fill-rule="evenodd" fill-opacity="1" stroke="#000000" stroke-opacity="1" stroke-width="3.2"/>
<circle clip-path="url(#clip372)" cx="2250.89" cy="124.671" r="14.4" fill="#009af9" fill-rule="evenodd" fill-opacity="1" stroke="#000000" stroke-opacity="1" stroke-width="3.2"/>
<circle clip-path="url(#clip372)" cx="2260.18" cy="94.8522" r="14.4" fill="#009af9" fill-rule="evenodd" fill-opacity="1" stroke="#000000" stroke-opacity="1" stroke-width="3.2"/>
<circle clip-path="url(#clip372)" cx="2269.47" cy="120.418" r="14.4" fill="#009af9" fill-rule="evenodd" fill-opacity="1" stroke="#000000" stroke-opacity="1" stroke-width="3.2"/>
<circle clip-path="url(#clip372)" cx="2278.75" cy="110.653" r="14.4" fill="#009af9" fill-rule="evenodd" fill-opacity="1" stroke="#000000" stroke-opacity="1" stroke-width="3.2"/>
<circle clip-path="url(#clip372)" cx="2288.04" cy="92.7235" r="14.4" fill="#009af9" fill-rule="evenodd" fill-opacity="1" stroke="#000000" stroke-opacity="1" stroke-width="3.2"/>
<circle clip-path="url(#clip372)" cx="2297.32" cy="86.1857" r="14.4" fill="#009af9" fill-rule="evenodd" fill-opacity="1" stroke="#000000" stroke-opacity="1" stroke-width="3.2"/>
</svg>
