<?xml version="1.0" encoding="UTF-8"?>
<svg xmlns="http://www.w3.org/2000/svg" xmlns:xlink="http://www.w3.org/1999/xlink" width="432pt" height="288pt" viewBox="0 0 432 288" version="1.1">
<defs>
<g>
<symbol overflow="visible" id="glyph0-0">
<path style="stroke:none;" d=""/>
</symbol>
<symbol overflow="visible" id="glyph0-1">
<path style="stroke:none;" d="M 4.703125 -0.4375 C 4.625 -0.40625 4.59375 -0.40625 4.546875 -0.40625 C 4.296875 -0.40625 4.15625 -0.546875 4.15625 -0.78125 L 4.15625 -3.484375 C 4.15625 -4.296875 3.546875 -4.734375 2.421875 -4.734375 C 1.734375 -4.734375 1.203125 -4.546875 0.890625 -4.203125 C 0.671875 -3.96875 0.59375 -3.703125 0.578125 -3.25 L 1.3125 -3.25 C 1.375 -3.8125 1.703125 -4.0625 2.390625 -4.0625 C 3.0625 -4.0625 3.421875 -3.8125 3.421875 -3.375 L 3.421875 -3.1875 C 3.40625 -2.875 3.25 -2.75 2.65625 -2.671875 C 1.625 -2.546875 1.453125 -2.5 1.171875 -2.390625 C 0.640625 -2.15625 0.375 -1.765625 0.375 -1.15625 C 0.375 -0.328125 0.953125 0.203125 1.875 0.203125 C 2.46875 0.203125 2.921875 0 3.453125 -0.46875 C 3.5 0 3.734375 0.203125 4.203125 0.203125 C 4.359375 0.203125 4.453125 0.1875 4.703125 0.125 Z M 3.421875 -1.453125 C 3.421875 -1.203125 3.359375 -1.0625 3.125 -0.859375 C 2.828125 -0.578125 2.46875 -0.4375 2.046875 -0.4375 C 1.46875 -0.4375 1.140625 -0.71875 1.140625 -1.171875 C 1.140625 -1.65625 1.453125 -1.90625 2.25 -2.015625 C 3.03125 -2.125 3.171875 -2.15625 3.421875 -2.28125 Z M 3.421875 -1.453125 "/>
</symbol>
<symbol overflow="visible" id="glyph0-2">
<path style="stroke:none;" d="M 0.609375 -4.609375 L 0.609375 0 L 1.34375 0 L 1.34375 -2.390625 C 1.359375 -3.5 1.8125 -4 2.828125 -3.96875 L 2.828125 -4.71875 C 2.703125 -4.734375 2.625 -4.734375 2.546875 -4.734375 C 2.0625 -4.734375 1.703125 -4.453125 1.28125 -3.78125 L 1.28125 -4.609375 Z M 0.609375 -4.609375 "/>
</symbol>
<symbol overflow="visible" id="glyph0-3">
<path style="stroke:none;" d="M 3.546875 -4.609375 L 3.546875 -3.9375 C 3.1875 -4.5 2.78125 -4.734375 2.203125 -4.734375 C 1.078125 -4.734375 0.3125 -3.703125 0.3125 -2.21875 C 0.3125 -1.453125 0.5 -0.890625 0.890625 -0.421875 C 1.234375 -0.015625 1.671875 0.203125 2.140625 0.203125 C 2.703125 0.203125 3.09375 -0.046875 3.484375 -0.625 L 3.484375 -0.390625 C 3.484375 0.84375 3.140625 1.296875 2.21875 1.296875 C 1.59375 1.296875 1.28125 1.0625 1.203125 0.53125 L 0.453125 0.53125 C 0.53125 1.375 1.203125 1.921875 2.203125 1.921875 C 2.890625 1.921875 3.453125 1.703125 3.75 1.328125 C 4.09375 0.890625 4.234375 0.328125 4.234375 -0.75 L 4.234375 -4.609375 Z M 2.265625 -4.0625 C 3.046875 -4.0625 3.484375 -3.40625 3.484375 -2.25 C 3.484375 -1.125 3.03125 -0.46875 2.265625 -0.46875 C 1.515625 -0.46875 1.078125 -1.140625 1.078125 -2.265625 C 1.078125 -3.390625 1.515625 -4.0625 2.265625 -4.0625 Z M 2.265625 -4.0625 "/>
</symbol>
<symbol overflow="visible" id="glyph0-4">
<path style="stroke:none;" d="M 4.234375 0 L 4.234375 -4.609375 L 3.515625 -4.609375 L 3.515625 -2 C 3.515625 -1.0625 3.015625 -0.4375 2.25 -0.4375 C 1.671875 -0.4375 1.296875 -0.796875 1.296875 -1.34375 L 1.296875 -4.609375 L 0.578125 -4.609375 L 0.578125 -1.0625 C 0.578125 -0.296875 1.140625 0.203125 2.046875 0.203125 C 2.71875 0.203125 3.15625 -0.03125 3.578125 -0.640625 L 3.578125 0 Z M 4.234375 0 "/>
</symbol>
<symbol overflow="visible" id="glyph0-5">
<path style="stroke:none;" d="M 0.609375 -4.609375 L 0.609375 0 L 1.359375 0 L 1.359375 -2.890625 C 1.359375 -3.5625 1.84375 -4.09375 2.4375 -4.09375 C 2.984375 -4.09375 3.296875 -3.765625 3.296875 -3.171875 L 3.296875 0 L 4.03125 0 L 4.03125 -2.890625 C 4.03125 -3.5625 4.515625 -4.09375 5.109375 -4.09375 C 5.640625 -4.09375 5.96875 -3.75 5.96875 -3.171875 L 5.96875 0 L 6.703125 0 L 6.703125 -3.453125 C 6.703125 -4.28125 6.234375 -4.734375 5.359375 -4.734375 C 4.75 -4.734375 4.375 -4.5625 3.953125 -4.03125 C 3.671875 -4.53125 3.3125 -4.734375 2.703125 -4.734375 C 2.09375 -4.734375 1.6875 -4.515625 1.296875 -3.953125 L 1.296875 -4.609375 Z M 0.609375 -4.609375 "/>
</symbol>
<symbol overflow="visible" id="glyph0-6">
<path style="stroke:none;" d="M 4.515625 -2.0625 C 4.515625 -2.765625 4.453125 -3.1875 4.328125 -3.53125 C 4.03125 -4.28125 3.328125 -4.734375 2.46875 -4.734375 C 1.171875 -4.734375 0.359375 -3.765625 0.359375 -2.25 C 0.359375 -0.71875 1.140625 0.203125 2.453125 0.203125 C 3.5 0.203125 4.234375 -0.390625 4.421875 -1.40625 L 3.671875 -1.40625 C 3.46875 -0.796875 3.0625 -0.46875 2.46875 -0.46875 C 2 -0.46875 1.609375 -0.6875 1.359375 -1.078125 C 1.1875 -1.34375 1.125 -1.59375 1.125 -2.0625 Z M 1.140625 -2.65625 C 1.203125 -3.515625 1.71875 -4.0625 2.453125 -4.0625 C 3.203125 -4.0625 3.71875 -3.484375 3.71875 -2.65625 Z M 1.140625 -2.65625 "/>
</symbol>
<symbol overflow="visible" id="glyph0-7">
<path style="stroke:none;" d="M 0.609375 -4.609375 L 0.609375 0 L 1.359375 0 L 1.359375 -2.546875 C 1.359375 -3.484375 1.84375 -4.09375 2.609375 -4.09375 C 3.1875 -4.09375 3.546875 -3.75 3.546875 -3.1875 L 3.546875 0 L 4.28125 0 L 4.28125 -3.484375 C 4.28125 -4.25 3.71875 -4.734375 2.828125 -4.734375 C 2.140625 -4.734375 1.703125 -4.484375 1.296875 -3.828125 L 1.296875 -4.609375 Z M 0.609375 -4.609375 "/>
</symbol>
<symbol overflow="visible" id="glyph0-8">
<path style="stroke:none;" d="M 2.234375 -4.609375 L 1.484375 -4.609375 L 1.484375 -5.875 L 0.75 -5.875 L 0.75 -4.609375 L 0.125 -4.609375 L 0.125 -4.015625 L 0.75 -4.015625 L 0.75 -0.53125 C 0.75 -0.046875 1.0625 0.203125 1.640625 0.203125 C 1.828125 0.203125 1.984375 0.1875 2.234375 0.140625 L 2.234375 -0.46875 C 2.125 -0.453125 2.03125 -0.4375 1.875 -0.4375 C 1.5625 -0.4375 1.484375 -0.53125 1.484375 -0.859375 L 1.484375 -4.015625 L 2.234375 -4.015625 Z M 2.234375 -4.609375 "/>
</symbol>
<symbol overflow="visible" id="glyph0-9">
<path style="stroke:none;" d="M 1.3125 -4.609375 L 0.59375 -4.609375 L 0.59375 0 L 1.3125 0 Z M 1.3125 -6.40625 L 0.578125 -6.40625 L 0.578125 -5.484375 L 1.3125 -5.484375 Z M 1.3125 -6.40625 "/>
</symbol>
<symbol overflow="visible" id="glyph0-10">
<path style="stroke:none;" d="M 2.5 0 L 4.28125 -4.609375 L 3.453125 -4.609375 L 2.140625 -0.875 L 0.921875 -4.609375 L 0.09375 -4.609375 L 1.703125 0 Z M 2.5 0 "/>
</symbol>
<symbol overflow="visible" id="glyph0-11">
<path style="stroke:none;" d="M 3.109375 -5.6875 L 5.21875 -5.6875 L 5.21875 -6.40625 L 0.1875 -6.40625 L 0.1875 -5.6875 L 2.296875 -5.6875 L 2.296875 0 L 3.109375 0 Z M 3.109375 -5.6875 "/>
</symbol>
<symbol overflow="visible" id="glyph0-12">
<path style="stroke:none;" d="M 2.28125 -4.53125 L 2.28125 0 L 3.046875 0 L 3.046875 -6.359375 L 2.546875 -6.359375 C 2.265625 -5.390625 2.09375 -5.25 0.890625 -5.09375 L 0.890625 -4.53125 Z M 2.28125 -4.53125 "/>
</symbol>
<symbol overflow="visible" id="glyph0-13">
<path style="stroke:none;" d="M 4.453125 -0.765625 L 1.171875 -0.765625 C 1.25 -1.296875 1.53125 -1.625 2.296875 -2.09375 L 3.171875 -2.59375 C 4.046875 -3.0625 4.5 -3.71875 4.5 -4.5 C 4.5 -5.03125 4.28125 -5.53125 3.921875 -5.875 C 3.546875 -6.203125 3.09375 -6.359375 2.5 -6.359375 C 1.703125 -6.359375 1.125 -6.078125 0.78125 -5.53125 C 0.546875 -5.203125 0.453125 -4.796875 0.4375 -4.15625 L 1.21875 -4.15625 C 1.234375 -4.59375 1.296875 -4.84375 1.40625 -5.0625 C 1.59375 -5.4375 2 -5.6875 2.46875 -5.6875 C 3.171875 -5.6875 3.703125 -5.171875 3.703125 -4.484375 C 3.703125 -3.96875 3.40625 -3.53125 2.859375 -3.21875 L 2.046875 -2.75 C 0.75 -2 0.375 -1.40625 0.296875 -0.015625 L 4.453125 -0.015625 Z M 4.453125 -0.765625 "/>
</symbol>
<symbol overflow="visible" id="glyph0-14">
<path style="stroke:none;" d="M 1.9375 -2.921875 L 2.359375 -2.921875 C 3.203125 -2.921875 3.65625 -2.53125 3.65625 -1.765625 C 3.65625 -0.96875 3.171875 -0.484375 2.375 -0.484375 C 1.515625 -0.484375 1.109375 -0.921875 1.0625 -1.84375 L 0.28125 -1.84375 C 0.3125 -1.34375 0.40625 -1 0.546875 -0.71875 C 0.875 -0.109375 1.484375 0.203125 2.34375 0.203125 C 3.625 0.203125 4.453125 -0.578125 4.453125 -1.78125 C 4.453125 -2.59375 4.140625 -3.03125 3.390625 -3.296875 C 3.96875 -3.53125 4.265625 -3.96875 4.265625 -4.609375 C 4.265625 -5.703125 3.546875 -6.359375 2.359375 -6.359375 C 1.109375 -6.359375 0.4375 -5.65625 0.40625 -4.3125 L 1.1875 -4.3125 C 1.203125 -4.703125 1.234375 -4.921875 1.328125 -5.109375 C 1.5 -5.46875 1.890625 -5.6875 2.375 -5.6875 C 3.0625 -5.6875 3.46875 -5.265625 3.46875 -4.578125 C 3.46875 -4.140625 3.3125 -3.859375 2.96875 -3.71875 C 2.765625 -3.625 2.484375 -3.59375 1.9375 -3.578125 Z M 1.9375 -2.921875 "/>
</symbol>
<symbol overflow="visible" id="glyph0-15">
<path style="stroke:none;" d="M 2.875 -1.546875 L 2.875 0 L 3.65625 0 L 3.65625 -1.546875 L 4.578125 -1.546875 L 4.578125 -2.234375 L 3.65625 -2.234375 L 3.65625 -6.359375 L 3.078125 -6.359375 L 0.25 -2.359375 L 0.25 -1.546875 Z M 2.875 -2.234375 L 0.921875 -2.234375 L 2.875 -5.046875 Z M 2.875 -2.234375 "/>
</symbol>
<symbol overflow="visible" id="glyph0-16">
<path style="stroke:none;" d="M 4.1875 -6.234375 L 0.96875 -6.234375 L 0.5 -2.84375 L 1.21875 -2.84375 C 1.578125 -3.265625 1.875 -3.421875 2.359375 -3.421875 C 3.203125 -3.421875 3.71875 -2.84375 3.71875 -1.921875 C 3.71875 -1.03125 3.203125 -0.484375 2.359375 -0.484375 C 1.6875 -0.484375 1.265625 -0.828125 1.078125 -1.53125 L 0.3125 -1.53125 C 0.40625 -1.015625 0.5 -0.78125 0.6875 -0.546875 C 1.03125 -0.078125 1.671875 0.203125 2.375 0.203125 C 3.640625 0.203125 4.515625 -0.71875 4.515625 -2.03125 C 4.515625 -3.265625 3.6875 -4.109375 2.5 -4.109375 C 2.0625 -4.109375 1.703125 -4 1.34375 -3.734375 L 1.59375 -5.46875 L 4.1875 -5.46875 Z M 4.1875 -6.234375 "/>
</symbol>
<symbol overflow="visible" id="glyph0-17">
<path style="stroke:none;" d="M 4.375 -4.703125 C 4.234375 -5.75 3.5625 -6.359375 2.609375 -6.359375 C 1.921875 -6.359375 1.3125 -6.03125 0.9375 -5.453125 C 0.546875 -4.828125 0.375 -4.0625 0.375 -2.90625 C 0.375 -1.828125 0.53125 -1.15625 0.90625 -0.59375 C 1.234375 -0.078125 1.78125 0.203125 2.46875 0.203125 C 3.65625 0.203125 4.515625 -0.6875 4.515625 -1.921875 C 4.515625 -3.09375 3.71875 -3.921875 2.609375 -3.921875 C 1.984375 -3.921875 1.5 -3.6875 1.171875 -3.234375 C 1.171875 -4.796875 1.671875 -5.671875 2.5625 -5.671875 C 3.109375 -5.671875 3.484375 -5.328125 3.609375 -4.703125 Z M 2.5 -3.234375 C 3.25 -3.234375 3.71875 -2.703125 3.71875 -1.859375 C 3.71875 -1.0625 3.1875 -0.484375 2.484375 -0.484375 C 1.765625 -0.484375 1.21875 -1.09375 1.21875 -1.90625 C 1.21875 -2.6875 1.734375 -3.234375 2.5 -3.234375 Z M 2.5 -3.234375 "/>
</symbol>
<symbol overflow="visible" id="glyph0-18">
<path style="stroke:none;" d="M 1.625 -2.71875 L 3.640625 -2.71875 C 4.140625 -2.71875 4.53125 -2.875 4.875 -3.171875 C 5.265625 -3.53125 5.421875 -3.9375 5.421875 -4.53125 C 5.421875 -5.734375 4.71875 -6.40625 3.453125 -6.40625 L 0.796875 -6.40625 L 0.796875 0 L 1.625 0 Z M 1.625 -3.4375 L 1.625 -5.6875 L 3.328125 -5.6875 C 4.109375 -5.6875 4.578125 -5.265625 4.578125 -4.5625 C 4.578125 -3.859375 4.109375 -3.4375 3.328125 -3.4375 Z M 1.625 -3.4375 "/>
</symbol>
<symbol overflow="visible" id="glyph0-19">
<path style="stroke:none;" d="M 2.390625 -4.734375 C 1.09375 -4.734375 0.3125 -3.8125 0.3125 -2.265625 C 0.3125 -0.71875 1.09375 0.203125 2.40625 0.203125 C 3.703125 0.203125 4.484375 -0.71875 4.484375 -2.234375 C 4.484375 -3.828125 3.734375 -4.734375 2.390625 -4.734375 Z M 2.40625 -4.0625 C 3.234375 -4.0625 3.71875 -3.390625 3.71875 -2.25 C 3.71875 -1.15625 3.203125 -0.46875 2.40625 -0.46875 C 1.578125 -0.46875 1.078125 -1.15625 1.078125 -2.265625 C 1.078125 -3.390625 1.578125 -4.0625 2.40625 -4.0625 Z M 2.40625 -4.0625 "/>
</symbol>
<symbol overflow="visible" id="glyph0-20">
<path style="stroke:none;" d="M 3.859375 -3.328125 C 3.84375 -4.234375 3.25 -4.734375 2.1875 -4.734375 C 1.109375 -4.734375 0.40625 -4.1875 0.40625 -3.328125 C 0.40625 -2.609375 0.78125 -2.265625 1.875 -2 L 2.5625 -1.84375 C 3.0625 -1.71875 3.265625 -1.53125 3.265625 -1.203125 C 3.265625 -0.765625 2.84375 -0.46875 2.203125 -0.46875 C 1.796875 -0.46875 1.46875 -0.59375 1.28125 -0.78125 C 1.171875 -0.921875 1.125 -1.046875 1.078125 -1.375 L 0.296875 -1.375 C 0.328125 -0.3125 0.9375 0.203125 2.140625 0.203125 C 3.296875 0.203125 4.03125 -0.375 4.03125 -1.265625 C 4.03125 -1.9375 3.65625 -2.328125 2.734375 -2.546875 L 2.03125 -2.703125 C 1.4375 -2.84375 1.171875 -3.046875 1.171875 -3.375 C 1.171875 -3.796875 1.5625 -4.0625 2.15625 -4.0625 C 2.75 -4.0625 3.0625 -3.8125 3.078125 -3.328125 Z M 3.859375 -3.328125 "/>
</symbol>
<symbol overflow="visible" id="glyph0-21">
<path style="stroke:none;" d="M 2.5 -2.75 L 0.40625 -2.75 L 0.40625 -2.109375 L 2.5 -2.109375 Z M 2.5 -2.75 "/>
</symbol>
<symbol overflow="visible" id="glyph0-22">
<path style="stroke:none;" d="M 6.234375 -3.390625 L 3.5625 -3.390625 L 3.5625 -2.671875 L 5.515625 -2.671875 L 5.515625 -2.484375 C 5.515625 -1.34375 4.671875 -0.515625 3.5 -0.515625 C 2.84375 -0.515625 2.265625 -0.75 1.875 -1.171875 C 1.453125 -1.625 1.203125 -2.390625 1.203125 -3.1875 C 1.203125 -4.765625 2.109375 -5.796875 3.453125 -5.796875 C 4.4375 -5.796875 5.140625 -5.296875 5.3125 -4.46875 L 6.15625 -4.46875 C 5.921875 -5.765625 4.9375 -6.515625 3.46875 -6.515625 C 2.6875 -6.515625 2.046875 -6.3125 1.546875 -5.90625 C 0.796875 -5.28125 0.390625 -4.296875 0.390625 -3.140625 C 0.390625 -1.171875 1.59375 0.203125 3.328125 0.203125 C 4.203125 0.203125 4.875 -0.125 5.515625 -0.8125 L 5.71875 0.03125 L 6.234375 0.03125 Z M 6.234375 -3.390625 "/>
</symbol>
<symbol overflow="visible" id="glyph0-23">
<path style="stroke:none;" d="M 1.609375 -2.921875 L 4.671875 -2.921875 L 4.671875 -3.640625 L 1.609375 -3.640625 L 1.609375 -5.6875 L 5.09375 -5.6875 L 5.09375 -6.40625 L 0.796875 -6.40625 L 0.796875 0 L 1.609375 0 Z M 1.609375 -2.921875 "/>
</symbol>
<symbol overflow="visible" id="glyph0-24">
<path style="stroke:none;" d="M 4.140625 -3.0625 C 4.109375 -3.515625 4.015625 -3.796875 3.828125 -4.0625 C 3.515625 -4.484375 2.96875 -4.734375 2.328125 -4.734375 C 1.078125 -4.734375 0.265625 -3.75 0.265625 -2.21875 C 0.265625 -0.734375 1.0625 0.203125 2.3125 0.203125 C 3.40625 0.203125 4.109375 -0.453125 4.203125 -1.578125 L 3.453125 -1.578125 C 3.328125 -0.84375 2.953125 -0.46875 2.328125 -0.46875 C 1.515625 -0.46875 1.03125 -1.140625 1.03125 -2.21875 C 1.03125 -3.375 1.515625 -4.0625 2.3125 -4.0625 C 2.921875 -4.0625 3.3125 -3.703125 3.40625 -3.0625 Z M 4.140625 -3.0625 "/>
</symbol>
<symbol overflow="visible" id="glyph0-25">
<path style="stroke:none;" d="M 0.609375 -6.40625 L 0.609375 0 L 1.34375 0 L 1.34375 -2.546875 C 1.34375 -3.484375 1.84375 -4.09375 2.59375 -4.09375 C 2.84375 -4.09375 3.0625 -4.03125 3.25 -3.890625 C 3.453125 -3.734375 3.546875 -3.515625 3.546875 -3.1875 L 3.546875 0 L 4.28125 0 L 4.28125 -3.484375 C 4.28125 -4.25 3.71875 -4.734375 2.828125 -4.734375 C 2.171875 -4.734375 1.78125 -4.546875 1.34375 -3.96875 L 1.34375 -6.40625 Z M 0.609375 -6.40625 "/>
</symbol>
<symbol overflow="visible" id="glyph0-26">
<path style="stroke:none;" d="M 1.34375 -6.40625 L 0.59375 -6.40625 L 0.59375 0 L 1.34375 0 Z M 1.34375 -6.40625 "/>
</symbol>
<symbol overflow="visible" id="glyph0-27">
<path style="stroke:none;" d=""/>
</symbol>
<symbol overflow="visible" id="glyph1-0">
<path style="stroke:none;" d=""/>
</symbol>
<symbol overflow="visible" id="glyph1-1">
<path style="stroke:none;" d="M 3.890625 -7.109375 L 6.515625 -7.109375 L 6.515625 -8.015625 L 0.234375 -8.015625 L 0.234375 -7.109375 L 2.875 -7.109375 L 2.875 0 L 3.890625 0 Z M 3.890625 -7.109375 "/>
</symbol>
<symbol overflow="visible" id="glyph1-2">
<path style="stroke:none;" d="M 1.65625 -5.765625 L 0.734375 -5.765625 L 0.734375 0 L 1.65625 0 Z M 1.65625 -8.015625 L 0.71875 -8.015625 L 0.71875 -6.859375 L 1.65625 -6.859375 Z M 1.65625 -8.015625 "/>
</symbol>
<symbol overflow="visible" id="glyph1-3">
<path style="stroke:none;" d="M 0.765625 -5.765625 L 0.765625 0 L 1.6875 0 L 1.6875 -3.625 C 1.6875 -4.453125 2.296875 -5.125 3.046875 -5.125 C 3.734375 -5.125 4.109375 -4.703125 4.109375 -3.96875 L 4.109375 0 L 5.03125 0 L 5.03125 -3.625 C 5.03125 -4.453125 5.640625 -5.125 6.390625 -5.125 C 7.0625 -5.125 7.453125 -4.703125 7.453125 -3.96875 L 7.453125 0 L 8.375 0 L 8.375 -4.328125 C 8.375 -5.359375 7.78125 -5.921875 6.703125 -5.921875 C 5.9375 -5.921875 5.484375 -5.703125 4.9375 -5.046875 C 4.59375 -5.671875 4.140625 -5.921875 3.390625 -5.921875 C 2.625 -5.921875 2.09375 -5.640625 1.609375 -4.953125 L 1.609375 -5.765625 Z M 0.765625 -5.765625 "/>
</symbol>
<symbol overflow="visible" id="glyph1-4">
<path style="stroke:none;" d="M 5.640625 -2.578125 C 5.640625 -3.453125 5.578125 -3.984375 5.40625 -4.40625 C 5.03125 -5.359375 4.15625 -5.921875 3.078125 -5.921875 C 1.46875 -5.921875 0.4375 -4.703125 0.4375 -2.8125 C 0.4375 -0.90625 1.4375 0.25 3.0625 0.25 C 4.375 0.25 5.296875 -0.5 5.515625 -1.75 L 4.59375 -1.75 C 4.34375 -0.984375 3.828125 -0.59375 3.09375 -0.59375 C 2.515625 -0.59375 2.015625 -0.859375 1.703125 -1.34375 C 1.484375 -1.671875 1.40625 -2 1.390625 -2.578125 Z M 1.421875 -3.328125 C 1.5 -4.390625 2.140625 -5.078125 3.0625 -5.078125 C 4 -5.078125 4.65625 -4.359375 4.65625 -3.328125 Z M 1.421875 -3.328125 "/>
</symbol>
<symbol overflow="visible" id="glyph2-0">
<path style="stroke:none;" d=""/>
</symbol>
<symbol overflow="visible" id="glyph2-1">
<path style="stroke:none;" d="M 0 -5.140625 L -6.71875 -7.40625 L 0 -7.40625 L 0 -8.375 L -8.015625 -8.375 L -8.015625 -6.953125 L -1.03125 -4.625 L -8.015625 -2.25 L -8.015625 -0.828125 L 0 -0.828125 L 0 -1.796875 L -6.71875 -1.796875 L 0 -4.0625 Z M 0 -5.140625 "/>
</symbol>
<symbol overflow="visible" id="glyph2-2">
<path style="stroke:none;" d="M -5.921875 -2.984375 C -5.921875 -1.359375 -4.78125 -0.390625 -2.84375 -0.390625 C -0.890625 -0.390625 0.25 -1.359375 0.25 -3 C 0.25 -4.625 -0.90625 -5.609375 -2.796875 -5.609375 C -4.796875 -5.609375 -5.921875 -4.65625 -5.921875 -2.984375 Z M -5.078125 -3 C -5.078125 -4.03125 -4.234375 -4.65625 -2.8125 -4.65625 C -1.4375 -4.65625 -0.59375 -4.015625 -0.59375 -3 C -0.59375 -1.984375 -1.4375 -1.359375 -2.84375 -1.359375 C -4.234375 -1.359375 -5.078125 -1.984375 -5.078125 -3 Z M -5.078125 -3 "/>
</symbol>
<symbol overflow="visible" id="glyph2-3">
<path style="stroke:none;" d="M -8.015625 -5.4375 L -8.015625 -4.53125 L -5.03125 -4.53125 C -5.625 -4.140625 -5.921875 -3.53125 -5.921875 -2.765625 C -5.921875 -1.265625 -4.734375 -0.28125 -2.890625 -0.28125 C -0.953125 -0.28125 0.25 -1.234375 0.25 -2.796875 C 0.25 -3.59375 -0.046875 -4.140625 -0.765625 -4.625 L 0 -4.625 L 0 -5.4375 Z M -5.078125 -2.921875 C -5.078125 -3.90625 -4.203125 -4.53125 -2.8125 -4.53125 C -1.484375 -4.53125 -0.609375 -3.890625 -0.609375 -2.921875 C -0.609375 -1.90625 -1.5 -1.25 -2.84375 -1.25 C -4.1875 -1.25 -5.078125 -1.90625 -5.078125 -2.921875 Z M -5.078125 -2.921875 "/>
</symbol>
<symbol overflow="visible" id="glyph2-4">
<path style="stroke:none;" d="M -2.578125 -5.640625 C -3.453125 -5.640625 -3.984375 -5.578125 -4.40625 -5.40625 C -5.359375 -5.03125 -5.921875 -4.15625 -5.921875 -3.078125 C -5.921875 -1.46875 -4.703125 -0.4375 -2.8125 -0.4375 C -0.90625 -0.4375 0.25 -1.4375 0.25 -3.0625 C 0.25 -4.375 -0.5 -5.296875 -1.75 -5.515625 L -1.75 -4.59375 C -0.984375 -4.34375 -0.59375 -3.828125 -0.59375 -3.09375 C -0.59375 -2.515625 -0.859375 -2.015625 -1.34375 -1.703125 C -1.671875 -1.484375 -2 -1.40625 -2.578125 -1.390625 Z M -3.328125 -1.421875 C -4.390625 -1.5 -5.078125 -2.140625 -5.078125 -3.0625 C -5.078125 -4 -4.359375 -4.65625 -3.328125 -4.65625 Z M -3.328125 -1.421875 "/>
</symbol>
<symbol overflow="visible" id="glyph2-5">
<path style="stroke:none;" d="M -8.015625 -1.671875 L -8.015625 -0.75 L 0 -0.75 L 0 -1.671875 Z M -8.015625 -1.671875 "/>
</symbol>
<symbol overflow="visible" id="glyph2-6">
<path style="stroke:none;" d=""/>
</symbol>
<symbol overflow="visible" id="glyph2-7">
<path style="stroke:none;" d="M -5.765625 -0.765625 L 0 -0.765625 L 0 -1.6875 L -3.625 -1.6875 C -4.453125 -1.6875 -5.125 -2.296875 -5.125 -3.046875 C -5.125 -3.734375 -4.703125 -4.109375 -3.96875 -4.109375 L 0 -4.109375 L 0 -5.03125 L -3.625 -5.03125 C -4.453125 -5.03125 -5.125 -5.640625 -5.125 -6.390625 C -5.125 -7.0625 -4.703125 -7.453125 -3.96875 -7.453125 L 0 -7.453125 L 0 -8.375 L -4.328125 -8.375 C -5.359375 -8.375 -5.921875 -7.78125 -5.921875 -6.703125 C -5.921875 -5.9375 -5.703125 -5.484375 -5.046875 -4.9375 C -5.671875 -4.59375 -5.921875 -4.140625 -5.921875 -3.390625 C -5.921875 -2.625 -5.640625 -2.09375 -4.953125 -1.609375 L -5.765625 -1.609375 Z M -5.765625 -0.765625 "/>
</symbol>
<symbol overflow="visible" id="glyph2-8">
<path style="stroke:none;" d="M -0.53125 -5.890625 C -0.515625 -5.78125 -0.515625 -5.734375 -0.515625 -5.6875 C -0.515625 -5.375 -0.6875 -5.1875 -0.96875 -5.1875 L -4.359375 -5.1875 C -5.375 -5.1875 -5.921875 -4.4375 -5.921875 -3.03125 C -5.921875 -2.171875 -5.6875 -1.5 -5.265625 -1.109375 C -4.96875 -0.84375 -4.625 -0.734375 -4.0625 -0.71875 L -4.0625 -1.640625 C -4.765625 -1.71875 -5.078125 -2.140625 -5.078125 -2.984375 C -5.078125 -3.828125 -4.78125 -4.28125 -4.21875 -4.28125 L -3.984375 -4.28125 C -3.59375 -4.265625 -3.4375 -4.0625 -3.34375 -3.328125 C -3.171875 -2.03125 -3.140625 -1.828125 -2.984375 -1.46875 C -2.703125 -0.796875 -2.203125 -0.46875 -1.453125 -0.46875 C -0.40625 -0.46875 0.25 -1.1875 0.25 -2.359375 C 0.25 -3.078125 0 -3.65625 -0.59375 -4.3125 C 0 -4.375 0.25 -4.65625 0.25 -5.265625 C 0.25 -5.453125 0.234375 -5.578125 0.15625 -5.890625 Z M -1.8125 -4.28125 C -1.5 -4.28125 -1.3125 -4.1875 -1.0625 -3.921875 C -0.71875 -3.546875 -0.546875 -3.09375 -0.546875 -2.546875 C -0.546875 -1.84375 -0.890625 -1.421875 -1.46875 -1.421875 C -2.078125 -1.421875 -2.390625 -1.8125 -2.53125 -2.8125 C -2.65625 -3.78125 -2.703125 -3.96875 -2.84375 -4.28125 Z M -1.8125 -4.28125 "/>
</symbol>
<symbol overflow="visible" id="glyph2-9">
<path style="stroke:none;" d="M -5.765625 -0.765625 L 0 -0.765625 L 0 -1.6875 L -3.171875 -1.6875 C -4.359375 -1.6875 -5.125 -2.3125 -5.125 -3.25 C -5.125 -3.984375 -4.6875 -4.4375 -4 -4.4375 L 0 -4.4375 L 0 -5.359375 L -4.359375 -5.359375 C -5.3125 -5.359375 -5.921875 -4.640625 -5.921875 -3.53125 C -5.921875 -2.671875 -5.59375 -2.125 -4.796875 -1.609375 L -5.765625 -1.609375 Z M -5.765625 -0.765625 "/>
</symbol>
<symbol overflow="visible" id="glyph2-10">
<path style="stroke:none;" d="M -4.234375 -7.796875 L -4.234375 -4.453125 L -3.328125 -4.453125 L -3.328125 -6.890625 L -3.109375 -6.890625 C -1.6875 -6.890625 -0.65625 -5.84375 -0.65625 -4.375 C -0.65625 -3.5625 -0.953125 -2.828125 -1.46875 -2.359375 C -2.03125 -1.828125 -2.984375 -1.5 -3.984375 -1.5 C -5.953125 -1.5 -7.25 -2.625 -7.25 -4.328125 C -7.25 -5.546875 -6.625 -6.421875 -5.59375 -6.640625 L -5.59375 -7.6875 C -7.21875 -7.40625 -8.15625 -6.171875 -8.15625 -4.328125 C -8.15625 -3.359375 -7.890625 -2.5625 -7.375 -1.9375 C -6.609375 -1 -5.375 -0.484375 -3.921875 -0.484375 C -1.46875 -0.484375 0.25 -1.984375 0.25 -4.15625 C 0.25 -5.25 -0.15625 -6.109375 -1.015625 -6.890625 L 0.046875 -7.15625 L 0.046875 -7.796875 Z M -4.234375 -7.796875 "/>
</symbol>
<symbol overflow="visible" id="glyph2-11">
<path style="stroke:none;" d="M 0 -5.296875 L -5.765625 -5.296875 L -5.765625 -4.390625 L -2.5 -4.390625 C -1.3125 -4.390625 -0.546875 -3.765625 -0.546875 -2.8125 C -0.546875 -2.09375 -0.984375 -1.625 -1.6875 -1.625 L -5.765625 -1.625 L -5.765625 -0.71875 L -1.3125 -0.71875 C -0.359375 -0.71875 0.25 -1.4375 0.25 -2.546875 C 0.25 -3.40625 -0.046875 -3.9375 -0.796875 -4.484375 L 0 -4.484375 Z M 0 -5.296875 "/>
</symbol>
<symbol overflow="visible" id="glyph2-12">
<path style="stroke:none;" d="M -5.765625 -1.65625 L -5.765625 -0.734375 L 0 -0.734375 L 0 -1.65625 Z M -8.015625 -1.65625 L -8.015625 -0.71875 L -6.859375 -0.71875 L -6.859375 -1.65625 Z M -8.015625 -1.65625 "/>
</symbol>
<symbol overflow="visible" id="glyph2-13">
<path style="stroke:none;" d="M -5.765625 -0.765625 L 0 -0.765625 L 0 -1.6875 L -2.984375 -1.6875 C -4.375 -1.6875 -5 -2.265625 -4.96875 -3.53125 L -5.890625 -3.53125 C -5.921875 -3.375 -5.921875 -3.28125 -5.921875 -3.171875 C -5.921875 -2.578125 -5.578125 -2.140625 -4.71875 -1.609375 L -5.765625 -1.609375 Z M -5.765625 -0.765625 "/>
</symbol>
</g>
<clipPath id="clip1">
  <path d="M 30.152344 23.246094 L 225.597656 23.246094 L 225.597656 214.652344 L 30.152344 214.652344 Z M 30.152344 23.246094 "/>
</clipPath>
<clipPath id="clip2">
  <path d="M 30.152344 209 L 225.597656 209 L 225.597656 211 L 30.152344 211 Z M 30.152344 209 "/>
</clipPath>
<clipPath id="clip3">
  <path d="M 30.152344 150 L 225.597656 150 L 225.597656 151 L 30.152344 151 Z M 30.152344 150 "/>
</clipPath>
<clipPath id="clip4">
  <path d="M 30.152344 90 L 225.597656 90 L 225.597656 91 L 30.152344 91 Z M 30.152344 90 "/>
</clipPath>
<clipPath id="clip5">
  <path d="M 30.152344 30 L 225.597656 30 L 225.597656 32 L 30.152344 32 Z M 30.152344 30 "/>
</clipPath>
<clipPath id="clip6">
  <path d="M 30.152344 179 L 225.597656 179 L 225.597656 181 L 30.152344 181 Z M 30.152344 179 "/>
</clipPath>
<clipPath id="clip7">
  <path d="M 30.152344 119 L 225.597656 119 L 225.597656 121 L 30.152344 121 Z M 30.152344 119 "/>
</clipPath>
<clipPath id="clip8">
  <path d="M 30.152344 60 L 225.597656 60 L 225.597656 62 L 30.152344 62 Z M 30.152344 60 "/>
</clipPath>
<clipPath id="clip9">
  <path d="M 66 23.246094 L 68 23.246094 L 68 214.652344 L 66 214.652344 Z M 66 23.246094 "/>
</clipPath>
<clipPath id="clip10">
  <path d="M 127 23.246094 L 129 23.246094 L 129 214.652344 L 127 214.652344 Z M 127 23.246094 "/>
</clipPath>
<clipPath id="clip11">
  <path d="M 188 23.246094 L 190 23.246094 L 190 214.652344 L 188 214.652344 Z M 188 23.246094 "/>
</clipPath>
<clipPath id="clip12">
  <path d="M 30.152344 23.246094 L 225.597656 23.246094 L 225.597656 214.652344 L 30.152344 214.652344 Z M 30.152344 23.246094 "/>
</clipPath>
<clipPath id="clip13">
  <path d="M 231.074219 23.246094 L 426.519531 23.246094 L 426.519531 214.652344 L 231.074219 214.652344 Z M 231.074219 23.246094 "/>
</clipPath>
<clipPath id="clip14">
  <path d="M 231.074219 209 L 426.519531 209 L 426.519531 211 L 231.074219 211 Z M 231.074219 209 "/>
</clipPath>
<clipPath id="clip15">
  <path d="M 231.074219 150 L 426.519531 150 L 426.519531 151 L 231.074219 151 Z M 231.074219 150 "/>
</clipPath>
<clipPath id="clip16">
  <path d="M 231.074219 90 L 426.519531 90 L 426.519531 91 L 231.074219 91 Z M 231.074219 90 "/>
</clipPath>
<clipPath id="clip17">
  <path d="M 231.074219 30 L 426.519531 30 L 426.519531 32 L 231.074219 32 Z M 231.074219 30 "/>
</clipPath>
<clipPath id="clip18">
  <path d="M 231.074219 179 L 426.519531 179 L 426.519531 181 L 231.074219 181 Z M 231.074219 179 "/>
</clipPath>
<clipPath id="clip19">
  <path d="M 231.074219 119 L 426.519531 119 L 426.519531 121 L 231.074219 121 Z M 231.074219 119 "/>
</clipPath>
<clipPath id="clip20">
  <path d="M 231.074219 60 L 426.519531 60 L 426.519531 62 L 231.074219 62 Z M 231.074219 60 "/>
</clipPath>
<clipPath id="clip21">
  <path d="M 267 23.246094 L 269 23.246094 L 269 214.652344 L 267 214.652344 Z M 267 23.246094 "/>
</clipPath>
<clipPath id="clip22">
  <path d="M 328 23.246094 L 330 23.246094 L 330 214.652344 L 328 214.652344 Z M 328 23.246094 "/>
</clipPath>
<clipPath id="clip23">
  <path d="M 389 23.246094 L 391 23.246094 L 391 214.652344 L 389 214.652344 Z M 389 23.246094 "/>
</clipPath>
<clipPath id="clip24">
  <path d="M 231.074219 23.246094 L 426.519531 23.246094 L 426.519531 214.652344 L 231.074219 214.652344 Z M 231.074219 23.246094 "/>
</clipPath>
<clipPath id="clip25">
  <path d="M 30.152344 5.480469 L 225.597656 5.480469 L 225.597656 23.246094 L 30.152344 23.246094 Z M 30.152344 5.480469 "/>
</clipPath>
<clipPath id="clip26">
  <path d="M 231.074219 5.480469 L 426.519531 5.480469 L 426.519531 23.246094 L 231.074219 23.246094 Z M 231.074219 5.480469 "/>
</clipPath>
</defs>
<g id="surface80">
<rect x="0" y="0" width="432" height="288" style="fill:rgb(100%,100%,100%);fill-opacity:1;stroke:none;"/>
<rect x="0" y="0" width="432" height="288" style="fill:rgb(100%,100%,100%);fill-opacity:1;stroke:none;"/>
<path style="fill:none;stroke-width:1.066978;stroke-linecap:round;stroke-linejoin:round;stroke:rgb(100%,100%,100%);stroke-opacity:1;stroke-miterlimit:10;" d="M 0 288 L 432 288 L 432 0 L 0 0 Z M 0 288 "/>
<g clip-path="url(#clip1)" clip-rule="nonzero">
<path style=" stroke:none;fill-rule:nonzero;fill:rgb(100%,100%,100%);fill-opacity:1;" d="M 30.152344 214.652344 L 225.597656 214.652344 L 225.597656 23.246094 L 30.152344 23.246094 Z M 30.152344 214.652344 "/>
</g>
<g clip-path="url(#clip2)" clip-rule="nonzero">
<path style="fill:none;stroke-width:0.533489;stroke-linecap:butt;stroke-linejoin:round;stroke:rgb(92.156863%,92.156863%,92.156863%);stroke-opacity:1;stroke-miterlimit:10;" d="M 30.152344 209.988281 L 225.597656 209.988281 "/>
</g>
<g clip-path="url(#clip3)" clip-rule="nonzero">
<path style="fill:none;stroke-width:0.533489;stroke-linecap:butt;stroke-linejoin:round;stroke:rgb(92.156863%,92.156863%,92.156863%);stroke-opacity:1;stroke-miterlimit:10;" d="M 30.152344 150.273438 L 225.597656 150.273438 "/>
</g>
<g clip-path="url(#clip4)" clip-rule="nonzero">
<path style="fill:none;stroke-width:0.533489;stroke-linecap:butt;stroke-linejoin:round;stroke:rgb(92.156863%,92.156863%,92.156863%);stroke-opacity:1;stroke-miterlimit:10;" d="M 30.152344 90.558594 L 225.597656 90.558594 "/>
</g>
<g clip-path="url(#clip5)" clip-rule="nonzero">
<path style="fill:none;stroke-width:0.533489;stroke-linecap:butt;stroke-linejoin:round;stroke:rgb(92.156863%,92.156863%,92.156863%);stroke-opacity:1;stroke-miterlimit:10;" d="M 30.152344 30.847656 L 225.597656 30.847656 "/>
</g>
<g clip-path="url(#clip6)" clip-rule="nonzero">
<path style="fill:none;stroke-width:1.066978;stroke-linecap:butt;stroke-linejoin:round;stroke:rgb(92.156863%,92.156863%,92.156863%);stroke-opacity:1;stroke-miterlimit:10;" d="M 30.152344 180.128906 L 225.597656 180.128906 "/>
</g>
<g clip-path="url(#clip7)" clip-rule="nonzero">
<path style="fill:none;stroke-width:1.066978;stroke-linecap:butt;stroke-linejoin:round;stroke:rgb(92.156863%,92.156863%,92.156863%);stroke-opacity:1;stroke-miterlimit:10;" d="M 30.152344 120.417969 L 225.597656 120.417969 "/>
</g>
<g clip-path="url(#clip8)" clip-rule="nonzero">
<path style="fill:none;stroke-width:1.066978;stroke-linecap:butt;stroke-linejoin:round;stroke:rgb(92.156863%,92.156863%,92.156863%);stroke-opacity:1;stroke-miterlimit:10;" d="M 30.152344 60.703125 L 225.597656 60.703125 "/>
</g>
<g clip-path="url(#clip9)" clip-rule="nonzero">
<path style="fill:none;stroke-width:1.066978;stroke-linecap:butt;stroke-linejoin:round;stroke:rgb(92.156863%,92.156863%,92.156863%);stroke-opacity:1;stroke-miterlimit:10;" d="M 66.796875 214.652344 L 66.796875 23.246094 "/>
</g>
<g clip-path="url(#clip10)" clip-rule="nonzero">
<path style="fill:none;stroke-width:1.066978;stroke-linecap:butt;stroke-linejoin:round;stroke:rgb(92.156863%,92.156863%,92.156863%);stroke-opacity:1;stroke-miterlimit:10;" d="M 127.875 214.652344 L 127.875 23.246094 "/>
</g>
<g clip-path="url(#clip11)" clip-rule="nonzero">
<path style="fill:none;stroke-width:1.066978;stroke-linecap:butt;stroke-linejoin:round;stroke:rgb(92.156863%,92.156863%,92.156863%);stroke-opacity:1;stroke-miterlimit:10;" d="M 188.949219 214.652344 L 188.949219 23.246094 "/>
</g>
<path style="fill-rule:nonzero;fill:rgb(99.215686%,75.294118%,52.54902%);fill-opacity:1;stroke-width:0.708661;stroke-linecap:round;stroke-linejoin:round;stroke:rgb(99.215686%,75.294118%,52.54902%);stroke-opacity:1;stroke-miterlimit:10;" d="M 62.644531 105.386719 C 62.644531 107.992188 58.734375 107.992188 58.734375 105.386719 C 58.734375 102.78125 62.644531 102.78125 62.644531 105.386719 "/>
<path style="fill-rule:nonzero;fill:rgb(99.215686%,75.294118%,52.54902%);fill-opacity:1;stroke-width:0.708661;stroke-linecap:round;stroke-linejoin:round;stroke:rgb(99.215686%,75.294118%,52.54902%);stroke-opacity:1;stroke-miterlimit:10;" d="M 123.71875 71.199219 C 123.71875 73.804688 119.8125 73.804688 119.8125 71.199219 C 119.8125 68.59375 123.71875 68.59375 123.71875 71.199219 "/>
<path style="fill-rule:nonzero;fill:rgb(99.215686%,75.294118%,52.54902%);fill-opacity:1;stroke-width:0.708661;stroke-linecap:round;stroke-linejoin:round;stroke:rgb(99.215686%,75.294118%,52.54902%);stroke-opacity:1;stroke-miterlimit:10;" d="M 184.796875 50.6875 C 184.796875 53.292969 180.886719 53.292969 180.886719 50.6875 C 180.886719 48.078125 184.796875 48.078125 184.796875 50.6875 "/>
<path style="fill-rule:nonzero;fill:rgb(74.509804%,68.235294%,83.137255%);fill-opacity:1;stroke-width:0.708661;stroke-linecap:round;stroke-linejoin:round;stroke:rgb(74.509804%,68.235294%,83.137255%);stroke-opacity:1;stroke-miterlimit:10;" d="M 68.75 168.785156 C 68.75 171.390625 64.84375 171.390625 64.84375 168.785156 C 64.84375 166.179688 68.75 166.179688 68.75 168.785156 "/>
<path style="fill-rule:nonzero;fill:rgb(74.509804%,68.235294%,83.137255%);fill-opacity:1;stroke-width:0.708661;stroke-linecap:round;stroke-linejoin:round;stroke:rgb(74.509804%,68.235294%,83.137255%);stroke-opacity:1;stroke-miterlimit:10;" d="M 129.828125 167.566406 C 129.828125 170.171875 125.917969 170.171875 125.917969 167.566406 C 125.917969 164.957031 129.828125 164.957031 129.828125 167.566406 "/>
<path style="fill-rule:nonzero;fill:rgb(74.509804%,68.235294%,83.137255%);fill-opacity:1;stroke-width:0.708661;stroke-linecap:round;stroke-linejoin:round;stroke:rgb(74.509804%,68.235294%,83.137255%);stroke-opacity:1;stroke-miterlimit:10;" d="M 190.90625 136.683594 C 190.90625 139.289062 186.996094 139.289062 186.996094 136.683594 C 186.996094 134.078125 190.90625 134.078125 190.90625 136.683594 "/>
<path style="fill-rule:nonzero;fill:rgb(49.803922%,78.823529%,49.803922%);fill-opacity:1;stroke-width:0.708661;stroke-linecap:round;stroke-linejoin:round;stroke:rgb(49.803922%,78.823529%,49.803922%);stroke-opacity:1;stroke-miterlimit:10;" d="M 74.859375 182.984375 C 74.859375 185.589844 70.949219 185.589844 70.949219 182.984375 C 70.949219 180.378906 74.859375 180.378906 74.859375 182.984375 "/>
<path style="fill-rule:nonzero;fill:rgb(49.803922%,78.823529%,49.803922%);fill-opacity:1;stroke-width:0.708661;stroke-linecap:round;stroke-linejoin:round;stroke:rgb(49.803922%,78.823529%,49.803922%);stroke-opacity:1;stroke-miterlimit:10;" d="M 135.9375 187.292969 C 135.9375 189.898438 132.027344 189.898438 132.027344 187.292969 C 132.027344 184.6875 135.9375 184.6875 135.9375 187.292969 "/>
<path style="fill-rule:nonzero;fill:rgb(49.803922%,78.823529%,49.803922%);fill-opacity:1;stroke-width:0.708661;stroke-linecap:round;stroke-linejoin:round;stroke:rgb(49.803922%,78.823529%,49.803922%);stroke-opacity:1;stroke-miterlimit:10;" d="M 197.011719 142.015625 C 197.011719 144.621094 193.101562 144.621094 193.101562 142.015625 C 193.101562 139.410156 197.011719 139.410156 197.011719 142.015625 "/>
<path style="fill:none;stroke-width:1.066978;stroke-linecap:butt;stroke-linejoin:round;stroke:rgb(99.215686%,75.294118%,52.54902%);stroke-opacity:1;stroke-miterlimit:10;" d="M 60.6875 105.386719 L 121.765625 71.199219 L 182.84375 50.6875 "/>
<path style="fill:none;stroke-width:1.066978;stroke-linecap:butt;stroke-linejoin:round;stroke:rgb(74.509804%,68.235294%,83.137255%);stroke-opacity:1;stroke-miterlimit:10;" d="M 66.796875 168.785156 L 127.875 167.566406 L 188.949219 136.683594 "/>
<path style="fill:none;stroke-width:1.066978;stroke-linecap:butt;stroke-linejoin:round;stroke:rgb(49.803922%,78.823529%,49.803922%);stroke-opacity:1;stroke-miterlimit:10;" d="M 72.90625 182.984375 L 133.980469 187.292969 L 195.058594 142.015625 "/>
<path style="fill:none;stroke-width:0.853583;stroke-linecap:butt;stroke-linejoin:round;stroke:rgb(99.215686%,75.294118%,52.54902%);stroke-opacity:1;stroke-miterlimit:10;" d="M 60.6875 120.933594 L 60.6875 89.941406 "/>
<path style="fill:none;stroke-width:0.853583;stroke-linecap:butt;stroke-linejoin:round;stroke:rgb(99.215686%,75.294118%,52.54902%);stroke-opacity:1;stroke-miterlimit:10;" d="M 121.765625 87.574219 L 121.765625 54.328125 "/>
<path style="fill:none;stroke-width:0.853583;stroke-linecap:butt;stroke-linejoin:round;stroke:rgb(99.215686%,75.294118%,52.54902%);stroke-opacity:1;stroke-miterlimit:10;" d="M 182.84375 70.019531 L 182.84375 31.945312 "/>
<path style="fill:none;stroke-width:0.853583;stroke-linecap:butt;stroke-linejoin:round;stroke:rgb(74.509804%,68.235294%,83.137255%);stroke-opacity:1;stroke-miterlimit:10;" d="M 66.796875 182.160156 L 66.796875 154.816406 "/>
<path style="fill:none;stroke-width:0.853583;stroke-linecap:butt;stroke-linejoin:round;stroke:rgb(74.509804%,68.235294%,83.137255%);stroke-opacity:1;stroke-miterlimit:10;" d="M 127.875 181.875 L 127.875 152.4375 "/>
<path style="fill:none;stroke-width:0.853583;stroke-linecap:butt;stroke-linejoin:round;stroke:rgb(74.509804%,68.235294%,83.137255%);stroke-opacity:1;stroke-miterlimit:10;" d="M 188.949219 151.496094 L 188.949219 120.765625 "/>
<path style="fill:none;stroke-width:0.853583;stroke-linecap:butt;stroke-linejoin:round;stroke:rgb(49.803922%,78.823529%,49.803922%);stroke-opacity:1;stroke-miterlimit:10;" d="M 72.90625 195.875 L 72.90625 170.058594 "/>
<path style="fill:none;stroke-width:0.853583;stroke-linecap:butt;stroke-linejoin:round;stroke:rgb(49.803922%,78.823529%,49.803922%);stroke-opacity:1;stroke-miterlimit:10;" d="M 133.980469 201.050781 L 133.980469 173.628906 "/>
<path style="fill:none;stroke-width:0.853583;stroke-linecap:butt;stroke-linejoin:round;stroke:rgb(49.803922%,78.823529%,49.803922%);stroke-opacity:1;stroke-miterlimit:10;" d="M 195.058594 157.492188 L 195.058594 126.925781 "/>
<path style="fill:none;stroke-width:1.920561;stroke-linecap:butt;stroke-linejoin:round;stroke:rgb(99.215686%,75.294118%,52.54902%);stroke-opacity:1;stroke-miterlimit:10;" d="M 60.6875 115.1875 L 60.6875 95.550781 "/>
<path style="fill:none;stroke-width:1.920561;stroke-linecap:butt;stroke-linejoin:round;stroke:rgb(99.215686%,75.294118%,52.54902%);stroke-opacity:1;stroke-miterlimit:10;" d="M 121.765625 81.496094 L 121.765625 60.855469 "/>
<path style="fill:none;stroke-width:1.920561;stroke-linecap:butt;stroke-linejoin:round;stroke:rgb(99.215686%,75.294118%,52.54902%);stroke-opacity:1;stroke-miterlimit:10;" d="M 182.84375 62.6875 L 182.84375 38.871094 "/>
<path style="fill:none;stroke-width:1.920561;stroke-linecap:butt;stroke-linejoin:round;stroke:rgb(74.509804%,68.235294%,83.137255%);stroke-opacity:1;stroke-miterlimit:10;" d="M 66.796875 177.578125 L 66.796875 159.914062 "/>
<path style="fill:none;stroke-width:1.920561;stroke-linecap:butt;stroke-linejoin:round;stroke:rgb(74.509804%,68.235294%,83.137255%);stroke-opacity:1;stroke-miterlimit:10;" d="M 127.875 176.820312 L 127.875 158.105469 "/>
<path style="fill:none;stroke-width:1.920561;stroke-linecap:butt;stroke-linejoin:round;stroke:rgb(74.509804%,68.235294%,83.137255%);stroke-opacity:1;stroke-miterlimit:10;" d="M 188.949219 146.503906 L 188.949219 126.777344 "/>
<path style="fill:none;stroke-width:1.920561;stroke-linecap:butt;stroke-linejoin:round;stroke:rgb(49.803922%,78.823529%,49.803922%);stroke-opacity:1;stroke-miterlimit:10;" d="M 72.90625 191.238281 L 72.90625 174.695312 "/>
<path style="fill:none;stroke-width:1.920561;stroke-linecap:butt;stroke-linejoin:round;stroke:rgb(49.803922%,78.823529%,49.803922%);stroke-opacity:1;stroke-miterlimit:10;" d="M 133.980469 196.148438 L 133.980469 178.65625 "/>
<path style="fill:none;stroke-width:1.920561;stroke-linecap:butt;stroke-linejoin:round;stroke:rgb(49.803922%,78.823529%,49.803922%);stroke-opacity:1;stroke-miterlimit:10;" d="M 195.058594 151.851562 L 195.058594 132.292969 "/>
<g clip-path="url(#clip12)" clip-rule="nonzero">
<path style="fill:none;stroke-width:1.066978;stroke-linecap:round;stroke-linejoin:round;stroke:rgb(20%,20%,20%);stroke-opacity:1;stroke-miterlimit:10;" d="M 30.152344 214.652344 L 225.597656 214.652344 L 225.597656 23.246094 L 30.152344 23.246094 Z M 30.152344 214.652344 "/>
</g>
<g clip-path="url(#clip13)" clip-rule="nonzero">
<path style=" stroke:none;fill-rule:nonzero;fill:rgb(100%,100%,100%);fill-opacity:1;" d="M 231.074219 214.652344 L 426.519531 214.652344 L 426.519531 23.246094 L 231.074219 23.246094 Z M 231.074219 214.652344 "/>
</g>
<g clip-path="url(#clip14)" clip-rule="nonzero">
<path style="fill:none;stroke-width:0.533489;stroke-linecap:butt;stroke-linejoin:round;stroke:rgb(92.156863%,92.156863%,92.156863%);stroke-opacity:1;stroke-miterlimit:10;" d="M 231.074219 209.988281 L 426.519531 209.988281 "/>
</g>
<g clip-path="url(#clip15)" clip-rule="nonzero">
<path style="fill:none;stroke-width:0.533489;stroke-linecap:butt;stroke-linejoin:round;stroke:rgb(92.156863%,92.156863%,92.156863%);stroke-opacity:1;stroke-miterlimit:10;" d="M 231.074219 150.273438 L 426.519531 150.273438 "/>
</g>
<g clip-path="url(#clip16)" clip-rule="nonzero">
<path style="fill:none;stroke-width:0.533489;stroke-linecap:butt;stroke-linejoin:round;stroke:rgb(92.156863%,92.156863%,92.156863%);stroke-opacity:1;stroke-miterlimit:10;" d="M 231.074219 90.558594 L 426.519531 90.558594 "/>
</g>
<g clip-path="url(#clip17)" clip-rule="nonzero">
<path style="fill:none;stroke-width:0.533489;stroke-linecap:butt;stroke-linejoin:round;stroke:rgb(92.156863%,92.156863%,92.156863%);stroke-opacity:1;stroke-miterlimit:10;" d="M 231.074219 30.847656 L 426.519531 30.847656 "/>
</g>
<g clip-path="url(#clip18)" clip-rule="nonzero">
<path style="fill:none;stroke-width:1.066978;stroke-linecap:butt;stroke-linejoin:round;stroke:rgb(92.156863%,92.156863%,92.156863%);stroke-opacity:1;stroke-miterlimit:10;" d="M 231.074219 180.128906 L 426.519531 180.128906 "/>
</g>
<g clip-path="url(#clip19)" clip-rule="nonzero">
<path style="fill:none;stroke-width:1.066978;stroke-linecap:butt;stroke-linejoin:round;stroke:rgb(92.156863%,92.156863%,92.156863%);stroke-opacity:1;stroke-miterlimit:10;" d="M 231.074219 120.417969 L 426.519531 120.417969 "/>
</g>
<g clip-path="url(#clip20)" clip-rule="nonzero">
<path style="fill:none;stroke-width:1.066978;stroke-linecap:butt;stroke-linejoin:round;stroke:rgb(92.156863%,92.156863%,92.156863%);stroke-opacity:1;stroke-miterlimit:10;" d="M 231.074219 60.703125 L 426.519531 60.703125 "/>
</g>
<g clip-path="url(#clip21)" clip-rule="nonzero">
<path style="fill:none;stroke-width:1.066978;stroke-linecap:butt;stroke-linejoin:round;stroke:rgb(92.156863%,92.156863%,92.156863%);stroke-opacity:1;stroke-miterlimit:10;" d="M 267.722656 214.652344 L 267.722656 23.246094 "/>
</g>
<g clip-path="url(#clip22)" clip-rule="nonzero">
<path style="fill:none;stroke-width:1.066978;stroke-linecap:butt;stroke-linejoin:round;stroke:rgb(92.156863%,92.156863%,92.156863%);stroke-opacity:1;stroke-miterlimit:10;" d="M 328.796875 214.652344 L 328.796875 23.246094 "/>
</g>
<g clip-path="url(#clip23)" clip-rule="nonzero">
<path style="fill:none;stroke-width:1.066978;stroke-linecap:butt;stroke-linejoin:round;stroke:rgb(92.156863%,92.156863%,92.156863%);stroke-opacity:1;stroke-miterlimit:10;" d="M 389.875 214.652344 L 389.875 23.246094 "/>
</g>
<path style="fill-rule:nonzero;fill:rgb(99.215686%,75.294118%,52.54902%);fill-opacity:1;stroke-width:0.708661;stroke-linecap:round;stroke-linejoin:round;stroke:rgb(99.215686%,75.294118%,52.54902%);stroke-opacity:1;stroke-miterlimit:10;" d="M 263.570312 121.050781 C 263.570312 123.65625 259.660156 123.65625 259.660156 121.050781 C 259.660156 118.441406 263.570312 118.441406 263.570312 121.050781 "/>
<path style="fill-rule:nonzero;fill:rgb(99.215686%,75.294118%,52.54902%);fill-opacity:1;stroke-width:0.708661;stroke-linecap:round;stroke-linejoin:round;stroke:rgb(99.215686%,75.294118%,52.54902%);stroke-opacity:1;stroke-miterlimit:10;" d="M 324.644531 101.339844 C 324.644531 103.945312 320.734375 103.945312 320.734375 101.339844 C 320.734375 98.734375 324.644531 98.734375 324.644531 101.339844 "/>
<path style="fill-rule:nonzero;fill:rgb(99.215686%,75.294118%,52.54902%);fill-opacity:1;stroke-width:0.708661;stroke-linecap:round;stroke-linejoin:round;stroke:rgb(99.215686%,75.294118%,52.54902%);stroke-opacity:1;stroke-miterlimit:10;" d="M 385.722656 69.972656 C 385.722656 72.578125 381.8125 72.578125 381.8125 69.972656 C 381.8125 67.367188 385.722656 67.367188 385.722656 69.972656 "/>
<path style="fill-rule:nonzero;fill:rgb(74.509804%,68.235294%,83.137255%);fill-opacity:1;stroke-width:0.708661;stroke-linecap:round;stroke-linejoin:round;stroke:rgb(74.509804%,68.235294%,83.137255%);stroke-opacity:1;stroke-miterlimit:10;" d="M 269.675781 175.917969 C 269.675781 178.523438 265.765625 178.523438 265.765625 175.917969 C 265.765625 173.3125 269.675781 173.3125 269.675781 175.917969 "/>
<path style="fill-rule:nonzero;fill:rgb(74.509804%,68.235294%,83.137255%);fill-opacity:1;stroke-width:0.708661;stroke-linecap:round;stroke-linejoin:round;stroke:rgb(74.509804%,68.235294%,83.137255%);stroke-opacity:1;stroke-miterlimit:10;" d="M 330.753906 167.164062 C 330.753906 169.769531 326.84375 169.769531 326.84375 167.164062 C 326.84375 164.558594 330.753906 164.558594 330.753906 167.164062 "/>
<path style="fill-rule:nonzero;fill:rgb(74.509804%,68.235294%,83.137255%);fill-opacity:1;stroke-width:0.708661;stroke-linecap:round;stroke-linejoin:round;stroke:rgb(74.509804%,68.235294%,83.137255%);stroke-opacity:1;stroke-miterlimit:10;" d="M 391.828125 132.371094 C 391.828125 134.976562 387.917969 134.976562 387.917969 132.371094 C 387.917969 129.761719 391.828125 129.761719 391.828125 132.371094 "/>
<path style="fill-rule:nonzero;fill:rgb(49.803922%,78.823529%,49.803922%);fill-opacity:1;stroke-width:0.708661;stroke-linecap:round;stroke-linejoin:round;stroke:rgb(49.803922%,78.823529%,49.803922%);stroke-opacity:1;stroke-miterlimit:10;" d="M 275.785156 188.097656 C 275.785156 190.707031 271.875 190.707031 271.875 188.097656 C 271.875 185.492188 275.785156 185.492188 275.785156 188.097656 "/>
<path style="fill-rule:nonzero;fill:rgb(49.803922%,78.823529%,49.803922%);fill-opacity:1;stroke-width:0.708661;stroke-linecap:round;stroke-linejoin:round;stroke:rgb(49.803922%,78.823529%,49.803922%);stroke-opacity:1;stroke-miterlimit:10;" d="M 336.859375 174.097656 C 336.859375 176.703125 332.949219 176.703125 332.949219 174.097656 C 332.949219 171.492188 336.859375 171.492188 336.859375 174.097656 "/>
<path style="fill-rule:nonzero;fill:rgb(49.803922%,78.823529%,49.803922%);fill-opacity:1;stroke-width:0.708661;stroke-linecap:round;stroke-linejoin:round;stroke:rgb(49.803922%,78.823529%,49.803922%);stroke-opacity:1;stroke-miterlimit:10;" d="M 397.9375 134.808594 C 397.9375 137.414062 394.027344 137.414062 394.027344 134.808594 C 394.027344 132.203125 397.9375 132.203125 397.9375 134.808594 "/>
<path style="fill:none;stroke-width:1.066978;stroke-linecap:butt;stroke-linejoin:round;stroke:rgb(99.215686%,75.294118%,52.54902%);stroke-opacity:1;stroke-miterlimit:10;" d="M 261.613281 121.050781 L 322.691406 101.339844 L 383.765625 69.972656 "/>
<path style="fill:none;stroke-width:1.066978;stroke-linecap:butt;stroke-linejoin:round;stroke:rgb(74.509804%,68.235294%,83.137255%);stroke-opacity:1;stroke-miterlimit:10;" d="M 267.722656 175.917969 L 328.796875 167.164062 L 389.875 132.371094 "/>
<path style="fill:none;stroke-width:1.066978;stroke-linecap:butt;stroke-linejoin:round;stroke:rgb(49.803922%,78.823529%,49.803922%);stroke-opacity:1;stroke-miterlimit:10;" d="M 273.828125 188.097656 L 334.90625 174.097656 L 395.980469 134.808594 "/>
<path style="fill:none;stroke-width:0.853583;stroke-linecap:butt;stroke-linejoin:round;stroke:rgb(99.215686%,75.294118%,52.54902%);stroke-opacity:1;stroke-miterlimit:10;" d="M 261.613281 142.515625 L 261.613281 99.539062 "/>
<path style="fill:none;stroke-width:0.853583;stroke-linecap:butt;stroke-linejoin:round;stroke:rgb(99.215686%,75.294118%,52.54902%);stroke-opacity:1;stroke-miterlimit:10;" d="M 322.691406 124.53125 L 322.691406 79.09375 "/>
<path style="fill:none;stroke-width:0.853583;stroke-linecap:butt;stroke-linejoin:round;stroke:rgb(99.215686%,75.294118%,52.54902%);stroke-opacity:1;stroke-miterlimit:10;" d="M 383.765625 93.554688 L 383.765625 46.625 "/>
<path style="fill:none;stroke-width:0.853583;stroke-linecap:butt;stroke-linejoin:round;stroke:rgb(74.509804%,68.235294%,83.137255%);stroke-opacity:1;stroke-miterlimit:10;" d="M 267.722656 194.832031 L 267.722656 156.5 "/>
<path style="fill:none;stroke-width:0.853583;stroke-linecap:butt;stroke-linejoin:round;stroke:rgb(74.509804%,68.235294%,83.137255%);stroke-opacity:1;stroke-miterlimit:10;" d="M 328.796875 185.5 L 328.796875 148.796875 "/>
<path style="fill:none;stroke-width:0.853583;stroke-linecap:butt;stroke-linejoin:round;stroke:rgb(74.509804%,68.235294%,83.137255%);stroke-opacity:1;stroke-miterlimit:10;" d="M 389.875 150.890625 L 389.875 113.910156 "/>
<path style="fill:none;stroke-width:0.853583;stroke-linecap:butt;stroke-linejoin:round;stroke:rgb(49.803922%,78.823529%,49.803922%);stroke-opacity:1;stroke-miterlimit:10;" d="M 273.828125 205.953125 L 273.828125 170.535156 "/>
<path style="fill:none;stroke-width:0.853583;stroke-linecap:butt;stroke-linejoin:round;stroke:rgb(49.803922%,78.823529%,49.803922%);stroke-opacity:1;stroke-miterlimit:10;" d="M 334.90625 192.648438 L 334.90625 155.476562 "/>
<path style="fill:none;stroke-width:0.853583;stroke-linecap:butt;stroke-linejoin:round;stroke:rgb(49.803922%,78.823529%,49.803922%);stroke-opacity:1;stroke-miterlimit:10;" d="M 395.980469 152.394531 L 395.980469 117.527344 "/>
<path style="fill:none;stroke-width:1.920561;stroke-linecap:butt;stroke-linejoin:round;stroke:rgb(99.215686%,75.294118%,52.54902%);stroke-opacity:1;stroke-miterlimit:10;" d="M 261.613281 134.335938 L 261.613281 107.433594 "/>
<path style="fill:none;stroke-width:1.920561;stroke-linecap:butt;stroke-linejoin:round;stroke:rgb(99.215686%,75.294118%,52.54902%);stroke-opacity:1;stroke-miterlimit:10;" d="M 322.691406 115.644531 L 322.691406 87.148438 "/>
<path style="fill:none;stroke-width:1.920561;stroke-linecap:butt;stroke-linejoin:round;stroke:rgb(99.215686%,75.294118%,52.54902%);stroke-opacity:1;stroke-miterlimit:10;" d="M 383.765625 84.527344 L 383.765625 55.601562 "/>
<path style="fill:none;stroke-width:1.920561;stroke-linecap:butt;stroke-linejoin:round;stroke:rgb(74.509804%,68.235294%,83.137255%);stroke-opacity:1;stroke-miterlimit:10;" d="M 267.722656 188.121094 L 267.722656 163.292969 "/>
<path style="fill:none;stroke-width:1.920561;stroke-linecap:butt;stroke-linejoin:round;stroke:rgb(74.509804%,68.235294%,83.137255%);stroke-opacity:1;stroke-miterlimit:10;" d="M 328.796875 179.046875 L 328.796875 155.28125 "/>
<path style="fill:none;stroke-width:1.920561;stroke-linecap:butt;stroke-linejoin:round;stroke:rgb(74.509804%,68.235294%,83.137255%);stroke-opacity:1;stroke-miterlimit:10;" d="M 389.875 144.007812 L 389.875 120.515625 "/>
<path style="fill:none;stroke-width:1.920561;stroke-linecap:butt;stroke-linejoin:round;stroke:rgb(49.803922%,78.823529%,49.803922%);stroke-opacity:1;stroke-miterlimit:10;" d="M 273.828125 199.585938 L 273.828125 176.65625 "/>
<path style="fill:none;stroke-width:1.920561;stroke-linecap:butt;stroke-linejoin:round;stroke:rgb(49.803922%,78.823529%,49.803922%);stroke-opacity:1;stroke-miterlimit:10;" d="M 334.90625 186.117188 L 334.90625 162.136719 "/>
<path style="fill:none;stroke-width:1.920561;stroke-linecap:butt;stroke-linejoin:round;stroke:rgb(49.803922%,78.823529%,49.803922%);stroke-opacity:1;stroke-miterlimit:10;" d="M 395.980469 146.070312 L 395.980469 123.46875 "/>
<g clip-path="url(#clip24)" clip-rule="nonzero">
<path style="fill:none;stroke-width:1.066978;stroke-linecap:round;stroke-linejoin:round;stroke:rgb(20%,20%,20%);stroke-opacity:1;stroke-miterlimit:10;" d="M 231.074219 214.652344 L 426.519531 214.652344 L 426.519531 23.246094 L 231.074219 23.246094 Z M 231.074219 214.652344 "/>
</g>
<g clip-path="url(#clip25)" clip-rule="nonzero">
<path style="fill-rule:nonzero;fill:rgb(85.098039%,85.098039%,85.098039%);fill-opacity:1;stroke-width:1.066978;stroke-linecap:round;stroke-linejoin:round;stroke:rgb(20%,20%,20%);stroke-opacity:1;stroke-miterlimit:10;" d="M 30.152344 23.246094 L 225.597656 23.246094 L 225.597656 5.480469 L 30.152344 5.480469 Z M 30.152344 23.246094 "/>
</g>
<g style="fill:rgb(10.196078%,10.196078%,10.196078%);fill-opacity:1;">
  <use xlink:href="#glyph0-1" x="100.375" y="17.27832"/>
  <use xlink:href="#glyph0-2" x="105.375" y="17.27832"/>
  <use xlink:href="#glyph0-3" x="108.375" y="17.27832"/>
  <use xlink:href="#glyph0-4" x="113.375" y="17.27832"/>
  <use xlink:href="#glyph0-5" x="118.375" y="17.27832"/>
  <use xlink:href="#glyph0-6" x="125.375" y="17.27832"/>
  <use xlink:href="#glyph0-7" x="130.375" y="17.27832"/>
  <use xlink:href="#glyph0-8" x="135.375" y="17.27832"/>
  <use xlink:href="#glyph0-1" x="137.375" y="17.27832"/>
  <use xlink:href="#glyph0-8" x="142.375" y="17.27832"/>
  <use xlink:href="#glyph0-9" x="144.375" y="17.27832"/>
  <use xlink:href="#glyph0-10" x="146.375" y="17.27832"/>
  <use xlink:href="#glyph0-6" x="150.375" y="17.27832"/>
</g>
<g clip-path="url(#clip26)" clip-rule="nonzero">
<path style="fill-rule:nonzero;fill:rgb(85.098039%,85.098039%,85.098039%);fill-opacity:1;stroke-width:1.066978;stroke-linecap:round;stroke-linejoin:round;stroke:rgb(20%,20%,20%);stroke-opacity:1;stroke-miterlimit:10;" d="M 231.074219 23.246094 L 426.519531 23.246094 L 426.519531 5.480469 L 231.074219 5.480469 Z M 231.074219 23.246094 "/>
</g>
<g style="fill:rgb(10.196078%,10.196078%,10.196078%);fill-opacity:1;">
  <use xlink:href="#glyph0-7" x="311.796875" y="17.27832"/>
  <use xlink:href="#glyph0-1" x="316.796875" y="17.27832"/>
  <use xlink:href="#glyph0-2" x="321.796875" y="17.27832"/>
  <use xlink:href="#glyph0-2" x="324.796875" y="17.27832"/>
  <use xlink:href="#glyph0-1" x="327.796875" y="17.27832"/>
  <use xlink:href="#glyph0-8" x="332.796875" y="17.27832"/>
  <use xlink:href="#glyph0-9" x="334.796875" y="17.27832"/>
  <use xlink:href="#glyph0-10" x="336.796875" y="17.27832"/>
  <use xlink:href="#glyph0-6" x="340.796875" y="17.27832"/>
</g>
<path style="fill:none;stroke-width:1.066978;stroke-linecap:butt;stroke-linejoin:round;stroke:rgb(20%,20%,20%);stroke-opacity:1;stroke-miterlimit:10;" d="M 66.796875 217.390625 L 66.796875 214.652344 "/>
<path style="fill:none;stroke-width:1.066978;stroke-linecap:butt;stroke-linejoin:round;stroke:rgb(20%,20%,20%);stroke-opacity:1;stroke-miterlimit:10;" d="M 127.875 217.390625 L 127.875 214.652344 "/>
<path style="fill:none;stroke-width:1.066978;stroke-linecap:butt;stroke-linejoin:round;stroke:rgb(20%,20%,20%);stroke-opacity:1;stroke-miterlimit:10;" d="M 188.949219 217.390625 L 188.949219 214.652344 "/>
<g style="fill:rgb(30.196078%,30.196078%,30.196078%);fill-opacity:1;">
  <use xlink:href="#glyph0-11" x="61.796875" y="225.99707"/>
  <use xlink:href="#glyph0-12" x="66.796875" y="225.99707"/>
</g>
<g style="fill:rgb(30.196078%,30.196078%,30.196078%);fill-opacity:1;">
  <use xlink:href="#glyph0-11" x="122.875" y="225.99707"/>
  <use xlink:href="#glyph0-13" x="127.875" y="225.99707"/>
</g>
<g style="fill:rgb(30.196078%,30.196078%,30.196078%);fill-opacity:1;">
  <use xlink:href="#glyph0-11" x="183.949219" y="225.99707"/>
  <use xlink:href="#glyph0-14" x="188.949219" y="225.99707"/>
</g>
<path style="fill:none;stroke-width:1.066978;stroke-linecap:butt;stroke-linejoin:round;stroke:rgb(20%,20%,20%);stroke-opacity:1;stroke-miterlimit:10;" d="M 267.722656 217.390625 L 267.722656 214.652344 "/>
<path style="fill:none;stroke-width:1.066978;stroke-linecap:butt;stroke-linejoin:round;stroke:rgb(20%,20%,20%);stroke-opacity:1;stroke-miterlimit:10;" d="M 328.796875 217.390625 L 328.796875 214.652344 "/>
<path style="fill:none;stroke-width:1.066978;stroke-linecap:butt;stroke-linejoin:round;stroke:rgb(20%,20%,20%);stroke-opacity:1;stroke-miterlimit:10;" d="M 389.875 217.390625 L 389.875 214.652344 "/>
<g style="fill:rgb(30.196078%,30.196078%,30.196078%);fill-opacity:1;">
  <use xlink:href="#glyph0-11" x="262.722656" y="225.99707"/>
  <use xlink:href="#glyph0-12" x="267.722656" y="225.99707"/>
</g>
<g style="fill:rgb(30.196078%,30.196078%,30.196078%);fill-opacity:1;">
  <use xlink:href="#glyph0-11" x="323.796875" y="225.99707"/>
  <use xlink:href="#glyph0-13" x="328.796875" y="225.99707"/>
</g>
<g style="fill:rgb(30.196078%,30.196078%,30.196078%);fill-opacity:1;">
  <use xlink:href="#glyph0-11" x="384.875" y="225.99707"/>
  <use xlink:href="#glyph0-14" x="389.875" y="225.99707"/>
</g>
<g style="fill:rgb(30.196078%,30.196078%,30.196078%);fill-opacity:1;">
  <use xlink:href="#glyph0-15" x="20.21875" y="183.043945"/>
</g>
<g style="fill:rgb(30.196078%,30.196078%,30.196078%);fill-opacity:1;">
  <use xlink:href="#glyph0-16" x="20.21875" y="123.333008"/>
</g>
<g style="fill:rgb(30.196078%,30.196078%,30.196078%);fill-opacity:1;">
  <use xlink:href="#glyph0-17" x="20.21875" y="63.618164"/>
</g>
<path style="fill:none;stroke-width:1.066978;stroke-linecap:butt;stroke-linejoin:round;stroke:rgb(20%,20%,20%);stroke-opacity:1;stroke-miterlimit:10;" d="M 27.410156 180.128906 L 30.152344 180.128906 "/>
<path style="fill:none;stroke-width:1.066978;stroke-linecap:butt;stroke-linejoin:round;stroke:rgb(20%,20%,20%);stroke-opacity:1;stroke-miterlimit:10;" d="M 27.410156 120.417969 L 30.152344 120.417969 "/>
<path style="fill:none;stroke-width:1.066978;stroke-linecap:butt;stroke-linejoin:round;stroke:rgb(20%,20%,20%);stroke-opacity:1;stroke-miterlimit:10;" d="M 27.410156 60.703125 L 30.152344 60.703125 "/>
<g style="fill:rgb(0%,0%,0%);fill-opacity:1;">
  <use xlink:href="#glyph1-1" x="216.335938" y="239.342773"/>
  <use xlink:href="#glyph1-2" x="223.335938" y="239.342773"/>
  <use xlink:href="#glyph1-3" x="225.335938" y="239.342773"/>
  <use xlink:href="#glyph1-4" x="234.335938" y="239.342773"/>
</g>
<g style="fill:rgb(0%,0%,0%);fill-opacity:1;">
  <use xlink:href="#glyph2-1" x="13.499023" y="176.449219"/>
  <use xlink:href="#glyph2-2" x="13.499023" y="167.449219"/>
  <use xlink:href="#glyph2-3" x="13.499023" y="161.449219"/>
  <use xlink:href="#glyph2-4" x="13.499023" y="155.449219"/>
  <use xlink:href="#glyph2-5" x="13.499023" y="149.449219"/>
  <use xlink:href="#glyph2-5" x="13.499023" y="147.449219"/>
  <use xlink:href="#glyph2-4" x="13.499023" y="145.449219"/>
  <use xlink:href="#glyph2-3" x="13.499023" y="139.449219"/>
  <use xlink:href="#glyph2-6" x="13.499023" y="133.449219"/>
  <use xlink:href="#glyph2-7" x="13.499023" y="130.449219"/>
  <use xlink:href="#glyph2-4" x="13.499023" y="121.449219"/>
  <use xlink:href="#glyph2-8" x="13.499023" y="115.449219"/>
  <use xlink:href="#glyph2-9" x="13.499023" y="109.449219"/>
  <use xlink:href="#glyph2-6" x="13.499023" y="103.449219"/>
  <use xlink:href="#glyph2-10" x="13.499023" y="100.449219"/>
  <use xlink:href="#glyph2-11" x="13.499023" y="91.449219"/>
  <use xlink:href="#glyph2-12" x="13.499023" y="85.449219"/>
  <use xlink:href="#glyph2-13" x="13.499023" y="83.449219"/>
  <use xlink:href="#glyph2-8" x="13.499023" y="79.449219"/>
  <use xlink:href="#glyph2-11" x="13.499023" y="73.449219"/>
  <use xlink:href="#glyph2-3" x="13.499023" y="67.449219"/>
</g>
<path style=" stroke:none;fill-rule:nonzero;fill:rgb(100%,100%,100%);fill-opacity:1;" d="M 55.496094 282.519531 L 401.171875 282.519531 L 401.171875 254.28125 L 55.496094 254.28125 Z M 55.496094 282.519531 "/>
<path style=" stroke:none;fill-rule:nonzero;fill:rgb(100%,100%,100%);fill-opacity:1;" d="M 66.457031 277.042969 L 83.738281 277.042969 L 83.738281 259.761719 L 66.457031 259.761719 Z M 66.457031 277.042969 "/>
<path style="fill-rule:nonzero;fill:rgb(49.803922%,78.823529%,49.803922%);fill-opacity:1;stroke-width:0.708661;stroke-linecap:round;stroke-linejoin:round;stroke:rgb(49.803922%,78.823529%,49.803922%);stroke-opacity:1;stroke-miterlimit:10;" d="M 77.050781 268.402344 C 77.050781 271.007812 73.140625 271.007812 73.140625 268.402344 C 73.140625 265.792969 77.050781 265.792969 77.050781 268.402344 "/>
<path style="fill:none;stroke-width:1.066978;stroke-linecap:butt;stroke-linejoin:round;stroke:rgb(49.803922%,78.823529%,49.803922%);stroke-opacity:1;stroke-miterlimit:10;" d="M 68.183594 268.402344 L 82.007812 268.402344 "/>
<path style="fill:none;stroke-width:0.853583;stroke-linecap:butt;stroke-linejoin:round;stroke:rgb(49.803922%,78.823529%,49.803922%);stroke-opacity:1;stroke-miterlimit:10;" d="M 75.097656 275.3125 L 75.097656 261.488281 "/>
<path style="fill:none;stroke-width:1.920561;stroke-linecap:butt;stroke-linejoin:round;stroke:rgb(49.803922%,78.823529%,49.803922%);stroke-opacity:1;stroke-miterlimit:10;" d="M 75.097656 275.3125 L 75.097656 261.488281 "/>
<path style=" stroke:none;fill-rule:nonzero;fill:rgb(100%,100%,100%);fill-opacity:1;" d="M 174.695312 277.042969 L 191.976562 277.042969 L 191.976562 259.761719 L 174.695312 259.761719 Z M 174.695312 277.042969 "/>
<path style="fill-rule:nonzero;fill:rgb(74.509804%,68.235294%,83.137255%);fill-opacity:1;stroke-width:0.708661;stroke-linecap:round;stroke-linejoin:round;stroke:rgb(74.509804%,68.235294%,83.137255%);stroke-opacity:1;stroke-miterlimit:10;" d="M 185.289062 268.402344 C 185.289062 271.007812 181.378906 271.007812 181.378906 268.402344 C 181.378906 265.792969 185.289062 265.792969 185.289062 268.402344 "/>
<path style="fill:none;stroke-width:1.066978;stroke-linecap:butt;stroke-linejoin:round;stroke:rgb(74.509804%,68.235294%,83.137255%);stroke-opacity:1;stroke-miterlimit:10;" d="M 176.421875 268.402344 L 190.246094 268.402344 "/>
<path style="fill:none;stroke-width:0.853583;stroke-linecap:butt;stroke-linejoin:round;stroke:rgb(74.509804%,68.235294%,83.137255%);stroke-opacity:1;stroke-miterlimit:10;" d="M 183.335938 275.3125 L 183.335938 261.488281 "/>
<path style="fill:none;stroke-width:1.920561;stroke-linecap:butt;stroke-linejoin:round;stroke:rgb(74.509804%,68.235294%,83.137255%);stroke-opacity:1;stroke-miterlimit:10;" d="M 183.335938 275.3125 L 183.335938 261.488281 "/>
<path style=" stroke:none;fill-rule:nonzero;fill:rgb(100%,100%,100%);fill-opacity:1;" d="M 277.933594 277.042969 L 295.214844 277.042969 L 295.214844 259.761719 L 277.933594 259.761719 Z M 277.933594 277.042969 "/>
<path style="fill-rule:nonzero;fill:rgb(99.215686%,75.294118%,52.54902%);fill-opacity:1;stroke-width:0.708661;stroke-linecap:round;stroke-linejoin:round;stroke:rgb(99.215686%,75.294118%,52.54902%);stroke-opacity:1;stroke-miterlimit:10;" d="M 288.53125 268.402344 C 288.53125 271.007812 284.621094 271.007812 284.621094 268.402344 C 284.621094 265.792969 288.53125 265.792969 288.53125 268.402344 "/>
<path style="fill:none;stroke-width:1.066978;stroke-linecap:butt;stroke-linejoin:round;stroke:rgb(99.215686%,75.294118%,52.54902%);stroke-opacity:1;stroke-miterlimit:10;" d="M 279.664062 268.402344 L 293.488281 268.402344 "/>
<path style="fill:none;stroke-width:0.853583;stroke-linecap:butt;stroke-linejoin:round;stroke:rgb(99.215686%,75.294118%,52.54902%);stroke-opacity:1;stroke-miterlimit:10;" d="M 286.574219 275.3125 L 286.574219 261.488281 "/>
<path style="fill:none;stroke-width:1.920561;stroke-linecap:butt;stroke-linejoin:round;stroke:rgb(99.215686%,75.294118%,52.54902%);stroke-opacity:1;stroke-miterlimit:10;" d="M 286.574219 275.3125 L 286.574219 261.488281 "/>
<g style="fill:rgb(0%,0%,0%);fill-opacity:1;">
  <use xlink:href="#glyph0-18" x="89.214844" y="271.317383"/>
  <use xlink:href="#glyph0-19" x="95.214844" y="271.317383"/>
  <use xlink:href="#glyph0-2" x="100.214844" y="271.317383"/>
  <use xlink:href="#glyph0-8" x="103.214844" y="271.317383"/>
  <use xlink:href="#glyph0-4" x="105.214844" y="271.317383"/>
  <use xlink:href="#glyph0-3" x="110.214844" y="271.317383"/>
  <use xlink:href="#glyph0-4" x="115.214844" y="271.317383"/>
  <use xlink:href="#glyph0-6" x="120.214844" y="271.317383"/>
  <use xlink:href="#glyph0-20" x="125.214844" y="271.317383"/>
  <use xlink:href="#glyph0-6" x="129.214844" y="271.317383"/>
  <use xlink:href="#glyph0-21" x="134.214844" y="271.317383"/>
  <use xlink:href="#glyph0-22" x="137.214844" y="271.317383"/>
  <use xlink:href="#glyph0-6" x="144.214844" y="271.317383"/>
  <use xlink:href="#glyph0-2" x="149.214844" y="271.317383"/>
  <use xlink:href="#glyph0-5" x="152.214844" y="271.317383"/>
  <use xlink:href="#glyph0-1" x="159.214844" y="271.317383"/>
  <use xlink:href="#glyph0-7" x="164.214844" y="271.317383"/>
</g>
<g style="fill:rgb(0%,0%,0%);fill-opacity:1;">
  <use xlink:href="#glyph0-18" x="197.453125" y="271.317383"/>
  <use xlink:href="#glyph0-19" x="203.453125" y="271.317383"/>
  <use xlink:href="#glyph0-2" x="208.453125" y="271.317383"/>
  <use xlink:href="#glyph0-8" x="211.453125" y="271.317383"/>
  <use xlink:href="#glyph0-4" x="213.453125" y="271.317383"/>
  <use xlink:href="#glyph0-3" x="218.453125" y="271.317383"/>
  <use xlink:href="#glyph0-4" x="223.453125" y="271.317383"/>
  <use xlink:href="#glyph0-6" x="228.453125" y="271.317383"/>
  <use xlink:href="#glyph0-20" x="233.453125" y="271.317383"/>
  <use xlink:href="#glyph0-6" x="237.453125" y="271.317383"/>
  <use xlink:href="#glyph0-21" x="242.453125" y="271.317383"/>
  <use xlink:href="#glyph0-23" x="245.453125" y="271.317383"/>
  <use xlink:href="#glyph0-2" x="250.453125" y="271.317383"/>
  <use xlink:href="#glyph0-6" x="253.453125" y="271.317383"/>
  <use xlink:href="#glyph0-7" x="258.453125" y="271.317383"/>
  <use xlink:href="#glyph0-24" x="263.453125" y="271.317383"/>
  <use xlink:href="#glyph0-25" x="267.453125" y="271.317383"/>
</g>
<g style="fill:rgb(0%,0%,0%);fill-opacity:1;">
  <use xlink:href="#glyph0-5" x="300.695312" y="271.317383"/>
  <use xlink:href="#glyph0-19" x="307.695312" y="271.317383"/>
  <use xlink:href="#glyph0-7" x="312.695312" y="271.317383"/>
  <use xlink:href="#glyph0-19" x="317.695312" y="271.317383"/>
  <use xlink:href="#glyph0-26" x="322.695312" y="271.317383"/>
  <use xlink:href="#glyph0-9" x="324.695312" y="271.317383"/>
  <use xlink:href="#glyph0-7" x="326.695312" y="271.317383"/>
  <use xlink:href="#glyph0-3" x="331.695312" y="271.317383"/>
  <use xlink:href="#glyph0-4" x="336.695312" y="271.317383"/>
  <use xlink:href="#glyph0-1" x="341.695312" y="271.317383"/>
  <use xlink:href="#glyph0-26" x="346.695312" y="271.317383"/>
  <use xlink:href="#glyph0-27" x="348.695312" y="271.317383"/>
  <use xlink:href="#glyph0-18" x="350.695312" y="271.317383"/>
  <use xlink:href="#glyph0-19" x="356.695312" y="271.317383"/>
  <use xlink:href="#glyph0-2" x="361.695312" y="271.317383"/>
  <use xlink:href="#glyph0-8" x="364.695312" y="271.317383"/>
  <use xlink:href="#glyph0-4" x="366.695312" y="271.317383"/>
  <use xlink:href="#glyph0-3" x="371.695312" y="271.317383"/>
  <use xlink:href="#glyph0-4" x="376.695312" y="271.317383"/>
  <use xlink:href="#glyph0-6" x="381.695312" y="271.317383"/>
  <use xlink:href="#glyph0-20" x="386.695312" y="271.317383"/>
  <use xlink:href="#glyph0-6" x="390.695312" y="271.317383"/>
</g>
</g>
</svg>
